<svg width="91" height="84" viewBox="0 0 91 84" fill="none" xmlns="http://www.w3.org/2000/svg">
    <g clip-path="url(#clip0_113_2)">
        <path d="M9.74737 78.6134C11.4673 78.6134 12.8616 77.2191 12.8616 75.4992C12.8616 73.7793 11.4673 72.385 9.74737 72.385C8.02745 72.385 6.63318 73.7793 6.63318 75.4992C6.63318 77.2191 8.02745 78.6134 9.74737 78.6134Z" fill="#34B715"/>
        <path d="M19.5737 84C20.7048 84 21.6217 83.0831 21.6217 81.952C21.6217 80.821 20.7048 79.904 19.5737 79.904C18.4427 79.904 17.5258 80.821 17.5258 81.952C17.5258 83.0831 18.4427 84 19.5737 84Z" fill="#34B715"/>
        <path d="M3.40701 19.0543C5.16191 19.0543 6.58453 17.6316 6.58453 15.8767C6.58453 14.1219 5.16191 12.6992 3.40701 12.6992C1.65212 12.6992 0.229492 14.1219 0.229492 15.8767C0.229492 17.6316 1.65212 19.0543 3.40701 19.0543Z" fill="#34B715"/>
        <path d="M10.6486 10.0964C11.8149 10.0964 12.7603 9.15092 12.7603 7.98463C12.7603 6.81835 11.8149 5.87289 10.6486 5.87289C9.48231 5.87289 8.53687 6.81835 8.53687 7.98463C8.53687 9.15092 9.48231 10.0964 10.6486 10.0964Z" fill="#34B715"/>
        <path d="M87.675 17.6938C89.0747 17.6938 90.2093 16.5592 90.2093 15.1595C90.2093 13.7598 89.0747 12.6251 87.675 12.6251C86.2753 12.6251 85.1406 13.7598 85.1406 15.1595C85.1406 16.5592 86.2753 17.6938 87.675 17.6938Z" fill="#34B715"/>
        <path d="M84.1174 7.41311C85.4821 6.04839 85.4821 3.83574 84.1174 2.47102C82.7526 1.1063 80.54 1.1063 79.1753 2.47102C77.8106 3.83574 77.8105 6.04839 79.1753 7.41311C80.54 8.77783 82.7526 8.77782 84.1174 7.41311Z" fill="#34B715"/>
        <path d="M86.0593 70.5606C86.7866 69.8333 86.7866 68.6542 86.0593 67.9269C85.332 67.1996 84.1529 67.1996 83.4256 67.9269C82.6983 68.6542 82.6983 69.8333 83.4256 70.5606C84.1529 71.2879 85.332 71.2879 86.0593 70.5606Z" fill="#34B715"/>
        <path d="M75.0379 81.1461C76.1625 80.0215 76.1626 78.1981 75.0379 77.0734C73.9133 75.9488 72.0898 75.9488 70.9652 77.0734C69.8405 78.1981 69.8405 80.0215 70.9652 81.1461C72.0898 82.2708 73.9132 82.2708 75.0379 81.1461Z" fill="#34B715"/>
        <path d="M89.2229 62.1312C90.0777 61.2764 90.0777 59.8905 89.2229 59.0357C88.3681 58.1809 86.9821 58.1809 86.1273 59.0357C85.2725 59.8905 85.2725 61.2764 86.1273 62.1312C86.9821 62.986 88.3681 62.986 89.2229 62.1312Z" fill="#34B715"/>
        <path d="M45.6371 80.5463C67.7688 80.5463 85.7102 62.605 85.7102 40.4732C85.7102 18.3415 67.7688 0.400116 45.6371 0.400116C23.5053 0.400116 5.56396 18.3415 5.56396 40.4732C5.56396 62.605 23.5053 80.5463 45.6371 80.5463Z" fill="#34B715"/>
        <path d="M45.637 72.3846C63.2612 72.3846 77.5484 58.0974 77.5484 40.4732C77.5484 22.8491 63.2612 8.56189 45.637 8.56189C28.0129 8.56189 13.7257 22.8491 13.7257 40.4732C13.7257 58.0974 28.0129 72.3846 45.637 72.3846Z" fill="white"/>
        <path d="M61.8559 29.7629C61.0717 28.9786 60.0079 28.538 58.8988 28.538C57.7896 28.538 56.7259 28.9786 55.9416 29.7629L41.131 44.5735L36.366 39.8068C34.7548 38.1956 32.1296 38.097 30.4745 39.6634C30.0681 40.0473 29.7428 40.5088 29.5179 41.0207C29.2929 41.5325 29.1729 42.0842 29.1649 42.6432C29.1568 43.2023 29.261 43.7572 29.4711 44.2753C29.6813 44.7934 29.9931 45.2641 30.3883 45.6595L37.676 52.9459C38.1298 53.3997 38.6685 53.7597 39.2614 54.0053C39.8543 54.2509 40.4897 54.3773 41.1314 54.3773C41.7732 54.3773 42.4086 54.2509 43.0015 54.0053C43.5944 53.7597 44.1331 53.3997 44.5868 52.9459L47.0458 50.487L61.8564 35.6764C62.6403 34.8921 63.0807 33.8285 63.0806 32.7195C63.0805 31.6106 62.64 30.5471 61.8559 29.7629Z" fill="#34B715"/>
    </g>
    <defs>
        <clipPath id="clip0_113_2">
            <rect width="91" height="84" fill="white"/>
        </clipPath>
    </defs>
</svg>
