<svg width="32" height="32" viewBox="0 0 32 32" fill="none" xmlns="http://www.w3.org/2000/svg">
<rect width="32" height="32" rx="16" fill="#F2F2F7"/>
<path d="M15.9999 7.88867C12.6879 7.88867 10 10.5766 10 13.8885C10 17.1365 12.5439 19.7764 15.9199 19.8724C15.9679 19.8724 16.0319 19.8724 16.0639 19.8724C16.0959 19.8724 16.1439 19.8724 16.1759 19.8724C16.1919 19.8724 16.2079 19.8724 16.2079 19.8724C19.4398 19.7604 21.9837 17.1365 21.9997 13.8885C21.9997 10.5766 19.3118 7.88867 15.9999 7.88867Z" fill="#AEB5C7"/>
<path opacity="0.4" d="M26.8439 27.7594C23.996 30.3834 20.1881 31.9993 15.9962 31.9993C11.8043 31.9993 7.99637 30.3834 5.14844 27.7594C5.53243 26.3035 6.5724 24.9755 8.09237 23.9515C12.4603 21.0396 19.5641 21.0396 23.9 23.9515C25.436 24.9755 26.4599 26.3035 26.8439 27.7594Z" fill="#AEB5C7"/>
</svg>
