<svg width="24" height="24" viewBox="0 0 24 24" fill="none" xmlns="http://www.w3.org/2000/svg">
<path d="M17.5751 18.9924L5.00427 6.42157C4.57477 5.99207 4.53915 5.31534 4.92571 4.92879C5.31226 4.54223 5.98898 4.57785 6.41849 5.00735L18.9893 17.5781C19.4188 18.0076 19.4544 18.6844 19.0678 19.0709C18.6813 19.4575 18.0046 19.4219 17.5751 18.9924Z" fill="white"/>
<path d="M4.93216 19.0709C4.54561 18.6844 4.58122 18.0076 5.01073 17.5781L17.5815 5.00735C18.011 4.57785 18.6877 4.54223 19.0743 4.92879C19.4608 5.31534 19.4252 5.99207 18.9957 6.42157L6.42494 18.9924C5.99544 19.4219 5.31871 19.4575 4.93216 19.0709Z" fill="white"/>
</svg>