<svg width="91" height="84" viewBox="0 0 91 84" fill="none" xmlns="http://www.w3.org/2000/svg">
    <path d="M9.60638 78.6132C11.3263 78.6132 12.7206 77.2189 12.7206 75.499C12.7206 73.779 11.3263 72.3848 9.60638 72.3848C7.88646 72.3848 6.49219 73.779 6.49219 75.499C6.49219 77.2189 7.88646 78.6132 9.60638 78.6132Z" fill="#FF4040"/>
    <path d="M19.4308 83.9998C20.5619 83.9998 21.4788 83.0829 21.4788 81.9518C21.4788 80.8207 20.5619 79.9038 19.4308 79.9038C18.2997 79.9038 17.3828 80.8207 17.3828 81.9518C17.3828 83.0829 18.2997 83.9998 19.4308 83.9998Z" fill="#FF4040"/>
    <path d="M3.26346 19.0543C5.01835 19.0543 6.44098 17.6316 6.44098 15.8767C6.44098 14.1218 5.01835 12.6992 3.26346 12.6992C1.50856 12.6992 0.0859375 14.1218 0.0859375 15.8767C0.0859375 17.6316 1.50856 19.0543 3.26346 19.0543Z" fill="#FF4040"/>
    <path d="M10.5024 10.0965C11.6686 10.0965 12.6141 9.15107 12.6141 7.98479C12.6141 6.81851 11.6686 5.87305 10.5024 5.87305C9.33608 5.87305 8.39062 6.81851 8.39062 7.98479C8.39062 9.15107 9.33608 10.0965 10.5024 10.0965Z" fill="#FF4040"/>
    <path d="M87.5344 17.6937C88.934 17.6937 90.0687 16.559 90.0687 15.1593C90.0687 13.7597 88.934 12.625 87.5344 12.625C86.1347 12.625 85 13.7597 85 15.1593C85 16.559 86.1347 17.6937 87.5344 17.6937Z" fill="#FF4040"/>
    <path d="M83.9756 7.41294C85.3404 6.04822 85.3403 3.83557 83.9756 2.47085C82.6109 1.10613 80.3983 1.10613 79.0335 2.47085C77.6688 3.83557 77.6688 6.04822 79.0335 7.41294C80.3983 8.77766 82.6109 8.77766 83.9756 7.41294Z" fill="#FF4040"/>
    <path d="M85.9193 70.5605C86.6466 69.8332 86.6466 68.6541 85.9193 67.9268C85.192 67.1995 84.0129 67.1995 83.2856 67.9268C82.5583 68.6541 82.5583 69.8332 83.2856 70.5605C84.0129 71.2878 85.192 71.2878 85.9193 70.5605Z" fill="#FF4040"/>
    <path d="M74.8981 81.1462C76.0228 80.0216 76.0228 78.1982 74.8981 77.0735C73.7735 75.9489 71.9501 75.9489 70.8254 77.0735C69.7008 78.1982 69.7008 80.0216 70.8254 81.1462C71.9501 82.2709 73.7735 82.2709 74.8981 81.1462Z" fill="#FF4040"/>
    <path d="M89.0808 62.1313C89.9356 61.2765 89.9356 59.8905 89.0808 59.0357C88.226 58.1809 86.8401 58.1809 85.9853 59.0357C85.1305 59.8905 85.1305 61.2765 85.9853 62.1313C86.8401 62.9861 88.226 62.9861 89.0808 62.1313Z" fill="#FF4040"/>
    <path d="M45.495 80.5461C67.6268 80.5461 85.5681 62.6048 85.5681 40.473C85.5681 18.3412 67.6268 0.399902 45.495 0.399902C23.3632 0.399902 5.42188 18.3412 5.42188 40.473C5.42188 62.6048 23.3632 80.5461 45.495 80.5461Z" fill="#FF4040"/>
    <path d="M45.4973 72.3847C63.1214 72.3847 77.4086 58.0975 77.4086 40.4733C77.4086 22.8492 63.1214 8.56201 45.4973 8.56201C27.8731 8.56201 13.5859 22.8492 13.5859 40.4733C13.5859 58.0975 27.8731 72.3847 45.4973 72.3847Z" fill="white"/>
    <path d="M52.0754 41.4582L60.3036 33.2598C61.074 32.4507 61.4965 31.3718 61.4804 30.2547C61.4642 29.1375 61.0108 28.0713 60.2174 27.2847C59.4212 26.4952 58.35 26.0452 57.2289 26.0291C56.1078 26.013 55.0242 26.4322 54.2057 27.1985L45.9569 35.3969L37.7288 27.1985C37.3315 26.7815 36.8549 26.4479 36.3271 26.2174C35.7992 25.9868 35.2306 25.8639 34.6547 25.8559C34.0787 25.8479 33.5069 25.9549 32.9728 26.1706C32.4388 26.3864 31.9531 26.7066 31.5443 27.1124C31.1369 27.5164 30.8152 27.9984 30.5982 28.5296C30.3813 29.0608 30.2736 29.6302 30.2817 30.204C30.2897 30.7777 30.4133 31.3439 30.645 31.8688C30.8768 32.3937 31.2119 32.8665 31.6305 33.2589L39.8745 41.4573L31.6335 49.657C31.215 50.0495 30.8799 50.5223 30.6482 51.0472C30.4165 51.5721 30.2929 52.1383 30.2849 52.712C30.2768 53.2857 30.3845 53.8551 30.6014 54.3863C30.8183 54.9175 31.14 55.3995 31.5473 55.8036C31.9562 56.2092 32.4419 56.5292 32.976 56.7448C33.5101 56.9604 34.0818 57.0673 34.6577 57.0593C35.2336 57.0513 35.8021 56.9285 36.3299 56.6981C36.8578 56.4676 37.3344 56.1343 37.7318 55.7174L45.9784 47.5181L54.2277 55.717C55.0534 56.438 56.1217 56.8193 57.2174 56.784C58.313 56.7486 59.3546 56.2993 60.1321 55.5265C60.9072 54.7565 61.3572 53.7183 61.3893 52.6262C61.4213 51.534 61.033 50.4712 60.3044 49.657L52.0754 41.4582Z" fill="#FF4040"/>
</svg>
