<svg width="91" height="84" viewBox="0 0 91 84" fill="none" xmlns="http://www.w3.org/2000/svg">
    <path d="M9.747 78.6132C11.4669 78.6132 12.8612 77.2189 12.8612 75.499C12.8612 73.779 11.4669 72.3848 9.747 72.3848C8.02708 72.3848 6.63281 73.779 6.63281 75.499C6.63281 77.2189 8.02708 78.6132 9.747 78.6132Z" fill="#FF9304"/>
    <path d="M19.5714 84.0003C20.7025 84.0003 21.6194 83.0834 21.6194 81.9523C21.6194 80.8212 20.7025 79.9043 19.5714 79.9043C18.4403 79.9043 17.5234 80.8212 17.5234 81.9523C17.5234 83.0834 18.4403 84.0003 19.5714 84.0003Z" fill="#FF9304"/>
    <path d="M3.40408 19.0543C5.15898 19.0543 6.5816 17.6316 6.5816 15.8767C6.5816 14.1218 5.15898 12.6992 3.40408 12.6992C1.64919 12.6992 0.226562 14.1218 0.226562 15.8767C0.226562 17.6316 1.64919 19.0543 3.40408 19.0543Z" fill="#FF9304"/>
    <path d="M10.643 10.0965C11.8093 10.0965 12.7547 9.15107 12.7547 7.98479C12.7547 6.81851 11.8093 5.87305 10.643 5.87305C9.47671 5.87305 8.53125 6.81851 8.53125 7.98479C8.53125 9.15107 9.47671 10.0965 10.643 10.0965Z" fill="#FF9304"/>
    <path d="M87.675 17.6937C89.0747 17.6937 90.2093 16.559 90.2093 15.1593C90.2093 13.7597 89.0747 12.625 87.675 12.625C86.2753 12.625 85.1406 13.7597 85.1406 15.1593C85.1406 16.559 86.2753 17.6937 87.675 17.6937Z" fill="#FF9304"/>
    <path d="M84.1163 7.41342C85.481 6.0487 85.481 3.83606 84.1163 2.47134C82.7515 1.10662 80.5389 1.10662 79.1742 2.47134C77.8095 3.83606 77.8094 6.04871 79.1742 7.41343C80.5389 8.77815 82.7515 8.77814 84.1163 7.41342Z" fill="#FF9304"/>
    <path d="M86.0599 70.561C86.7872 69.8337 86.7872 68.6546 86.0599 67.9273C85.3327 67.2 84.1535 67.2 83.4262 67.9273C82.699 68.6546 82.699 69.8337 83.4262 70.561C84.1535 71.2883 85.3327 71.2883 86.0599 70.561Z" fill="#FF9304"/>
    <path d="M75.0388 81.1457C76.1634 80.0211 76.1634 78.1977 75.0388 77.073C73.9141 75.9484 72.0907 75.9484 70.966 77.073C69.8414 78.1977 69.8414 80.0211 70.966 81.1457C72.0907 82.2704 73.9141 82.2704 75.0388 81.1457Z" fill="#FF9304"/>
    <path d="M89.2214 62.1308C90.0762 61.276 90.0762 59.8901 89.2214 59.0353C88.3666 58.1805 86.9807 58.1805 86.1259 59.0353C85.2711 59.8901 85.2711 61.276 86.1259 62.1308C86.9807 62.9856 88.3666 62.9856 89.2214 62.1308Z" fill="#FF9304"/>
    <path d="M45.6356 80.5466C67.7674 80.5466 85.7087 62.6053 85.7087 40.4735C85.7087 18.3417 67.7674 0.400391 45.6356 0.400391C23.5038 0.400391 5.5625 18.3417 5.5625 40.4735C5.5625 62.6053 23.5038 80.5466 45.6356 80.5466Z" fill="#FF9304"/>
    <path d="M45.9738 72.602C63.598 72.602 77.8852 58.3148 77.8852 40.6906C77.8852 23.0665 63.598 8.7793 45.9738 8.7793C28.3497 8.7793 14.0625 23.0665 14.0625 40.6906C14.0625 58.3148 28.3497 72.602 45.9738 72.602Z" fill="white"/>
    <path d="M45.971 18.5732C44.5013 18.5732 43.0919 19.1571 42.0527 20.1962C41.0135 21.2354 40.4297 22.6449 40.4297 24.1145L42.799 51.2923C42.8322 51.6731 42.9309 52.0453 43.0907 52.3925C44.2538 54.9161 47.8173 54.9773 49.0675 52.4968L49.0895 52.4537C49.284 52.067 49.4011 51.646 49.4341 51.2143L51.5114 24.1149C51.5115 22.6454 50.9279 21.236 49.8888 20.1967C48.8498 19.1574 47.4405 18.5735 45.971 18.5732Z" fill="#FF9304"/>
    <path d="M45.969 61.6822C47.3542 61.6822 48.4771 60.5593 48.4771 59.1741C48.4771 57.7889 47.3542 56.666 45.969 56.666C44.5838 56.666 43.4609 57.7889 43.4609 59.1741C43.4609 60.5593 44.5838 61.6822 45.969 61.6822Z" fill="#FF9304"/>
</svg>