<svg width="24" height="24" viewBox="0 0 24 24" fill="none" xmlns="http://www.w3.org/2000/svg">
<path fill-rule="evenodd" clip-rule="evenodd" d="M23.148 18.8571C23.6186 18.8597 24 19.2429 24 19.7143V23.1429C24 23.6143 23.6194 23.9974 23.148 24H23.1429H19.7143C19.2411 24 18.8571 23.616 18.8571 23.1429C18.8571 22.6697 19.2411 22.2857 19.7143 22.2857H22.2857V19.7143C22.2857 19.2411 22.6697 18.8571 23.1429 18.8571H23.148ZM0.862286 18.8571C1.33286 18.8597 1.71429 19.2429 1.71429 19.7143V22.2857H4.28571C4.75886 22.2857 5.14286 22.6697 5.14286 23.1429C5.14286 23.6143 4.76143 23.9974 4.29086 24H4.28571H0.857143C0.384 24 0 23.616 0 23.1429V19.7143C0 19.2429 0.381429 18.8597 0.852 18.8571H0.862286ZM19.7194 14.5714C20.19 14.574 20.5714 14.9571 20.5714 15.4286V19.7143C20.5714 20.1857 20.19 20.5689 19.7194 20.5714H19.7143C19.2411 20.5714 18.8571 20.1874 18.8571 19.7143V15.4286C18.8571 14.9554 19.2411 14.5714 19.7143 14.5714H19.7194ZM10.2909 14.5714C10.7614 14.574 11.1429 14.9571 11.1429 15.4286V19.7143C11.1429 20.1857 10.7614 20.5689 10.2909 20.5714H10.2857C9.81257 20.5714 9.42857 20.1874 9.42857 19.7143V15.4286C9.42857 14.9554 9.81257 14.5714 10.2857 14.5714H10.2909ZM4.28571 20.5714C3.81257 20.5714 3.42857 20.1874 3.42857 19.7143V15.4286C3.42857 14.9554 3.81257 14.5714 4.28571 14.5714H6.85714H6.86229C7.33371 14.574 7.71429 14.9571 7.71429 15.4286V19.7143C7.71429 20.1574 7.37743 20.5226 6.94543 20.5671C6.918 20.5697 6.89057 20.5714 6.86229 20.5714H6.85714H4.28571ZM13.7143 20.5714C13.2411 20.5714 12.8571 20.1874 12.8571 19.7143V15.4286C12.8571 14.9554 13.2411 14.5714 13.7143 14.5714H16.2857C16.7589 14.5714 17.1429 14.9554 17.1429 15.4286V19.7143C17.1429 20.1874 16.7589 20.5714 16.2857 20.5714H13.7143ZM9.42857 4.28571C9.42857 4.05857 9.51857 3.84 9.67971 3.67971C9.84 3.51857 10.0586 3.42857 10.2857 3.42857C10.5129 3.42857 10.7314 3.51857 10.8917 3.67971C11.0529 3.84 11.1429 4.05857 11.1429 4.28571V11.1429H12.8571V4.28571C12.8571 4.05857 12.9471 3.84 13.1083 3.67971C13.2686 3.51857 13.4871 3.42857 13.7143 3.42857H16.2857C16.7589 3.42857 17.1429 3.81257 17.1429 4.28571V11.1429H18.8571V4.28571C18.8571 3.81257 19.2411 3.42857 19.7143 3.42857C20.1874 3.42857 20.5714 3.81257 20.5714 4.28571V11.1429H23.1429C23.616 11.1429 24 11.5269 24 12C24 12.2271 23.91 12.4457 23.7489 12.606C23.5886 12.7671 23.37 12.8571 23.1429 12.8571C19.494 12.8571 4.59257 12.8563 0.858857 12.8563C0.387429 12.8563 0.00514281 12.4749 0.00342853 12.0043C0.00257138 11.7771 0.0917142 11.5577 0.252 11.3966C0.413143 11.2346 0.630857 11.1446 0.858 11.1446C1.87371 11.1437 3.42857 11.1429 3.42857 11.1429V4.28571C3.42857 3.81257 3.81257 3.42857 4.28571 3.42857H6.85714C7.33029 3.42857 7.71429 3.81257 7.71429 4.28571V11.1429H9.42857V4.28571ZM19.7143 0H23.1429C23.37 0 23.5886 0.09 23.7489 0.251143C23.91 0.411429 24 0.63 24 0.857143V4.28571C24 4.51286 23.91 4.73143 23.7489 4.89171C23.5886 5.05286 23.37 5.14286 23.1429 5.14286C22.6697 5.14286 22.2857 4.75886 22.2857 4.28571C22.2857 3.27 22.2857 1.71429 22.2857 1.71429H19.7143H19.7091C19.2386 1.71171 18.8571 1.32857 18.8571 0.857143C18.8571 0.384 19.2411 0 19.7143 0ZM0.857143 5.14286C0.384 5.14286 0 4.75886 0 4.28571V0.857143C0 0.384 0.384 0 0.857143 0H4.28571C4.75886 0 5.14286 0.384 5.14286 0.857143C5.14286 1.32857 4.76143 1.71171 4.29086 1.71429H4.28571H1.71429V4.28571C1.71429 4.75714 1.33286 5.14029 0.862286 5.14286H0.857143Z" fill="#0E72ED"/>
</svg>
