<svg width="17" height="16" viewBox="0 0 17 16" fill="none" xmlns="http://www.w3.org/2000/svg">
<g clip-path="url(#clip0_32797_3730)">
<path d="M13.1667 1.33333H12.5V0.666667C12.5 0.489856 12.4298 0.320286 12.3047 0.195262C12.1797 0.0702379 12.0101 0 11.8333 0C11.6565 0 11.487 0.0702379 11.3619 0.195262C11.2369 0.320286 11.1667 0.489856 11.1667 0.666667V1.33333H5.83333V0.666667C5.83333 0.489856 5.7631 0.320286 5.63807 0.195262C5.51305 0.0702379 5.34348 0 5.16667 0C4.98986 0 4.82029 0.0702379 4.69526 0.195262C4.57024 0.320286 4.5 0.489856 4.5 0.666667V1.33333H3.83333C2.9496 1.33439 2.10237 1.68592 1.47748 2.31081C0.852588 2.93571 0.501059 3.78294 0.5 4.66667L0.5 12.6667C0.501059 13.5504 0.852588 14.3976 1.47748 15.0225C2.10237 15.6474 2.9496 15.9989 3.83333 16H13.1667C14.0504 15.9989 14.8976 15.6474 15.5225 15.0225C16.1474 14.3976 16.4989 13.5504 16.5 12.6667V4.66667C16.4989 3.78294 16.1474 2.93571 15.5225 2.31081C14.8976 1.68592 14.0504 1.33439 13.1667 1.33333ZM1.83333 4.66667C1.83333 4.13623 2.04405 3.62753 2.41912 3.25245C2.79419 2.87738 3.3029 2.66667 3.83333 2.66667H13.1667C13.6971 2.66667 14.2058 2.87738 14.5809 3.25245C14.956 3.62753 15.1667 4.13623 15.1667 4.66667V5.33333H1.83333V4.66667ZM13.1667 14.6667H3.83333C3.3029 14.6667 2.79419 14.456 2.41912 14.0809C2.04405 13.7058 1.83333 13.1971 1.83333 12.6667V6.66667H15.1667V12.6667C15.1667 13.1971 14.956 13.7058 14.5809 14.0809C14.2058 14.456 13.6971 14.6667 13.1667 14.6667Z" fill="#494C5D"/>
<path d="M8.5 11C9.05228 11 9.5 10.5523 9.5 10C9.5 9.44772 9.05228 9 8.5 9C7.94772 9 7.5 9.44772 7.5 10C7.5 10.5523 7.94772 11 8.5 11Z" fill="#494C5D"/>
<path d="M5.16699 11C5.71928 11 6.16699 10.5523 6.16699 10C6.16699 9.44772 5.71928 9 5.16699 9C4.61471 9 4.16699 9.44772 4.16699 10C4.16699 10.5523 4.61471 11 5.16699 11Z" fill="#494C5D"/>
<path d="M11.833 11C12.3853 11 12.833 10.5523 12.833 10C12.833 9.44772 12.3853 9 11.833 9C11.2807 9 10.833 9.44772 10.833 10C10.833 10.5523 11.2807 11 11.833 11Z" fill="#494C5D"/>
</g>
<defs>
<clipPath id="clip0_32797_3730">
<rect width="16" height="16" fill="white" transform="translate(0.5)"/>
</clipPath>
</defs>
</svg>
