<svg width="33" height="32" viewBox="0 0 33 32" fill="none" xmlns="http://www.w3.org/2000/svg">
<path d="M9.83398 19.5866C9.28732 19.5866 8.83398 19.1333 8.83398 18.5866V14.3066C8.83398 13.76 9.28732 13.3066 9.83398 13.3066C10.3807 13.3066 10.834 13.76 10.834 14.3066V18.5866C10.834 19.1466 10.3807 19.5866 9.83398 19.5866Z" fill="#242133"/>
<path d="M16.5 21.9067C15.9533 21.9067 15.5 21.4533 15.5 20.9067V12C15.5 11.4533 15.9533 11 16.5 11C17.0467 11 17.5 11.4533 17.5 12V20.9067C17.5 21.4533 17.0467 21.9067 16.5 21.9067Z" fill="#242133"/>
<path d="M23.166 19.5866C22.6193 19.5866 22.166 19.1333 22.166 18.5866V14.3066C22.166 13.76 22.6193 13.3066 23.166 13.3066C23.7127 13.3066 24.166 13.76 24.166 14.3066V18.5866C24.166 19.1466 23.7127 19.5866 23.166 19.5866Z" fill="#242133"/>
<path d="M20.4993 30.3334H12.4993C5.25935 30.3334 2.16602 27.2401 2.16602 20.0001V12.0001C2.16602 4.76008 5.25935 1.66675 12.4993 1.66675H20.4993C27.7393 1.66675 30.8327 4.76008 30.8327 12.0001V20.0001C30.8327 27.2401 27.7393 30.3334 20.4993 30.3334ZM12.4993 3.66675C6.35268 3.66675 4.16602 5.85341 4.16602 12.0001V20.0001C4.16602 26.1467 6.35268 28.3334 12.4993 28.3334H20.4993C26.646 28.3334 28.8327 26.1467 28.8327 20.0001V12.0001C28.8327 5.85341 26.646 3.66675 20.4993 3.66675H12.4993Z" fill="#242133"/>
</svg>
