<svg width="40" height="40" viewBox="0 0 40 40" fill="none" xmlns="http://www.w3.org/2000/svg">
<g clip-path="url(#clip0_33834_5393)">
<path d="M5.45455 0C2.44209 0 0 2.44209 0 5.45455V34.5455C0 37.558 2.44209 40 5.45455 40H34.5455C37.558 40 40 37.558 40 34.5455V5.45455C40 2.44209 37.558 0 34.5455 0H5.45455Z" fill="#A2B5D2"/>
<path fill-rule="evenodd" clip-rule="evenodd" d="M10.9091 18.1819C12.9174 18.1819 14.5455 16.5539 14.5455 14.5455C14.5455 12.5372 12.9174 10.9092 10.9091 10.9092C8.90078 10.9092 7.27273 12.5372 7.27273 14.5455C7.27273 16.5539 8.90078 18.1819 10.9091 18.1819ZM10.8559 22.6279C10.064 22.0999 9.13355 21.8183 8.18182 21.8183C7.23009 21.8183 6.29965 22.0999 5.50776 22.6279L0.809636 25.7599C0.303818 26.0972 0 26.6648 0 27.2728V34.5455C0 37.5581 2.44209 40.0001 5.45455 40.0001H34.5453C37.5578 40.0001 40 37.5581 40 34.5455V27.2728C40 26.6912 39.7216 26.1445 39.2511 25.8025L29.9864 19.0645C29.1978 18.4908 28.2478 18.1819 27.2727 18.1819C26.2976 18.1819 25.3476 18.4908 24.5591 19.0643L16.0557 25.2486C15.8716 25.3825 15.6498 25.4546 15.4221 25.4546C15.2094 25.4546 15.0015 25.3917 14.8246 25.2737L10.8559 22.6279Z" fill="#DBE1F8"/>
</g>
<defs>
<clipPath id="clip0_33834_5393">
<rect width="40" height="40" fill="white"/>
</clipPath>
</defs>
</svg>
