<svg width="32" height="32" viewBox="0 0 32 32" fill="none" xmlns="http://www.w3.org/2000/svg">
<rect width="32" height="32" rx="16" fill="#B8D8FF"/>
<path d="M24.738 23.4901H24.2701C24.2288 23.4901 24.1891 23.4737 24.1598 23.4444C24.1306 23.4152 24.1142 23.3755 24.1142 23.3341V16.6874C24.1145 16.6626 24.109 16.638 24.0979 16.6158C24.0869 16.5936 24.0707 16.5743 24.0507 16.5596C24.0308 16.5449 24.0076 16.5351 23.9831 16.5312C23.9586 16.5272 23.9335 16.5292 23.9099 16.5369C23.5521 16.6493 23.1806 16.712 22.8058 16.7232C22.7598 16.7232 22.7161 16.7252 22.6733 16.7252C21.9523 16.7269 21.2429 16.5438 20.6128 16.1934C20.5651 16.1669 20.5115 16.153 20.4569 16.153C20.4023 16.153 20.3486 16.1669 20.3009 16.1934C19.671 16.5438 18.9617 16.7269 18.2409 16.7252C17.5241 16.7262 16.8193 16.5409 16.1957 16.1876C16.1476 16.1603 16.0932 16.146 16.038 16.146C15.9827 16.146 15.9283 16.1603 15.8803 16.1876C15.2473 16.5423 14.5334 16.7276 13.8078 16.7256C13.0861 16.726 12.3769 16.5379 11.7504 16.1798C11.702 16.1522 11.6471 16.1377 11.5914 16.1377C11.5356 16.1377 11.4808 16.1522 11.4323 16.1798C10.8058 16.5379 10.0966 16.726 9.37499 16.7256C9.3325 16.7256 9.28961 16.7256 9.24361 16.7236H9.24127C8.85328 16.712 8.46892 16.6452 8.09975 16.5252C8.07637 16.5176 8.05154 16.5157 8.02728 16.5196C8.00302 16.5234 7.98001 16.533 7.96013 16.5474C7.94026 16.5619 7.92407 16.5808 7.9129 16.6027C7.90174 16.6246 7.89589 16.6488 7.89585 16.6733V23.3341C7.89585 23.3755 7.87942 23.4152 7.85018 23.4444C7.82093 23.4737 7.78127 23.4901 7.73991 23.4901H7.29156C6.95472 23.4901 6.66388 23.749 6.64907 24.0858C6.64528 24.17 6.65858 24.2541 6.68818 24.333C6.71777 24.4118 6.76305 24.4839 6.82128 24.5449C6.8795 24.6058 6.94946 24.6543 7.02694 24.6874C7.10442 24.7205 7.18781 24.7377 7.27207 24.7377H24.7185C25.0553 24.7377 25.3462 24.4788 25.361 24.1419C25.3648 24.0578 25.3515 23.9737 25.3219 23.8948C25.2922 23.8159 25.247 23.7438 25.1888 23.6829C25.1305 23.622 25.0606 23.5735 24.9831 23.5403C24.9056 23.5072 24.8222 23.4901 24.738 23.4901ZM14.7575 20.839C14.7575 20.8804 14.741 20.92 14.7118 20.9493C14.6825 20.9786 14.6429 20.995 14.6015 20.995H11.1707C11.1294 20.995 11.0897 20.9786 11.0604 20.9493C11.0312 20.92 11.0148 20.8804 11.0148 20.839V18.3439C11.0148 18.2198 11.0641 18.1008 11.1518 18.0131C11.2395 17.9253 11.3585 17.8761 11.4826 17.8761H14.2896C14.4137 17.8761 14.5327 17.9253 14.6204 18.0131C14.7081 18.1008 14.7575 18.2198 14.7575 18.3439V20.839ZM20.8393 23.4901H18.0323C17.991 23.4901 17.9513 23.4737 17.922 23.4444C17.8928 23.4152 17.8764 23.3755 17.8764 23.3341V18.3439C17.8764 18.2198 17.9257 18.1008 18.0134 18.0131C18.1011 17.9253 18.2201 17.8761 18.3442 17.8761H20.5274C20.6515 17.8761 20.7705 17.9253 20.8582 18.0131C20.946 18.1008 20.9953 18.2198 20.9953 18.3439V23.3341C20.9953 23.3755 20.9788 23.4152 20.9496 23.4444C20.9204 23.4737 20.8807 23.4901 20.8393 23.4901Z" fill="#649AF8"/>
<path d="M25.2277 12.6635L23.5544 8.82373C23.1162 7.88143 22.1154 7.27246 21.0047 7.27246H11.0027C9.89199 7.27246 8.89121 7.88143 8.453 8.82373L6.77971 12.6635C6.42883 13.4202 6.89238 14.1972 6.89277 14.1976L6.90369 14.2151C6.92279 14.2456 6.95671 14.2931 6.97737 14.3235C6.97932 14.3259 6.98088 14.3286 6.98283 14.3313L7.17776 14.5672C7.18505 14.5761 7.19286 14.5845 7.20115 14.5925L7.39608 14.7808L7.41246 14.7949C7.52694 14.893 7.64938 14.9814 7.77854 15.0592V15.0612C8.20283 15.3182 8.68623 15.4615 9.18205 15.4771H9.27834C10.0285 15.4785 10.7514 15.1956 11.3014 14.6853L11.3142 14.6732C11.3717 14.6191 11.4476 14.589 11.5265 14.589C11.6054 14.589 11.6813 14.6191 11.7388 14.6732L11.7517 14.6853C12.3074 15.1947 13.034 15.4773 13.7879 15.4773C14.5418 15.4773 15.2684 15.1947 15.8242 14.6853C15.8818 14.6319 15.9575 14.6023 16.0361 14.6023C16.1146 14.6023 16.1903 14.6319 16.248 14.6853C16.8021 15.1931 17.526 15.4756 18.2776 15.4772C19.0292 15.4789 19.7543 15.1996 20.3107 14.6943C20.3675 14.6417 20.4421 14.6125 20.5195 14.6125C20.5969 14.6125 20.6715 14.6417 20.7283 14.6943C21.2852 15.2027 22.0135 15.4823 22.7676 15.4771H22.8647C23.3481 15.4591 23.8184 15.3153 24.2292 15.06C24.2663 15.0378 24.3018 15.0144 24.3376 14.991C24.6147 14.8042 24.8558 14.569 25.0495 14.2966L25.1173 14.1941C25.1241 14.1837 25.1303 14.1728 25.1361 14.1613C25.2008 14.0296 25.5478 13.352 25.2277 12.6635Z" fill="#649AF8"/>
</svg>
