<svg width="12" height="12" viewBox="0 0 12 12" fill="none" xmlns="http://www.w3.org/2000/svg">
    <path d="M3.20692 4.5H8.79292C8.8918 4.50002 8.98845 4.52936 9.07065 4.5843C9.15286 4.63924 9.21693 4.71732 9.25476 4.80867C9.2926 4.90002 9.3025 5.00054 9.28322 5.09751C9.26393 5.19449 9.21633 5.28357 9.14642 5.3535L6.35342 8.14649C6.25966 8.24023 6.13251 8.29289 5.99992 8.29289C5.86734 8.29289 5.74019 8.24023 5.64642 8.14649L2.85342 5.3535C2.78352 5.28357 2.73592 5.19449 2.71663 5.09751C2.69735 5.00054 2.70725 4.90002 2.74509 4.80867C2.78292 4.71732 2.84699 4.63924 2.9292 4.5843C3.0114 4.52936 3.10805 4.50002 3.20692 4.5Z" fill="#6F767E"/>
</svg>
