<svg width="20" height="21" viewBox="0 0 20 21" fill="none" xmlns="http://www.w3.org/2000/svg">
<g clip-path="url(#clip0_33021_3190)">
<mask id="path-1-inside-1_33021_3190" fill="white">
<path d="M19.3923 8.34907C18.0998 6.24407 15.1598 2.7124 9.9998 2.7124C4.8398 2.7124 1.8998 6.24407 0.607299 8.34907C0.207739 8.99532 -0.00390625 9.7401 -0.00390625 10.4999C-0.00390625 11.2597 0.207739 12.0045 0.607299 12.6507C1.8998 14.7557 4.8398 18.2874 9.9998 18.2874C15.1598 18.2874 18.0998 14.7557 19.3923 12.6507C19.7919 12.0045 20.0035 11.2597 20.0035 10.4999C20.0035 9.7401 19.7919 8.99532 19.3923 8.34907ZM17.9715 11.7782C16.8615 13.5832 14.349 16.6207 9.9998 16.6207C5.65063 16.6207 3.13813 13.5832 2.02813 11.7782C1.79074 11.3941 1.66501 10.9515 1.66501 10.4999C1.66501 10.0483 1.79074 9.6057 2.02813 9.22157C3.13813 7.41657 5.65063 4.37907 9.9998 4.37907C14.349 4.37907 16.8615 7.41324 17.9715 9.22157C18.2089 9.6057 18.3346 10.0483 18.3346 10.4999C18.3346 10.9515 18.2089 11.3941 17.9715 11.7782Z"/>
</mask>
<path d="M19.3923 8.34907C18.0998 6.24407 15.1598 2.7124 9.9998 2.7124C4.8398 2.7124 1.8998 6.24407 0.607299 8.34907C0.207739 8.99532 -0.00390625 9.7401 -0.00390625 10.4999C-0.00390625 11.2597 0.207739 12.0045 0.607299 12.6507C1.8998 14.7557 4.8398 18.2874 9.9998 18.2874C15.1598 18.2874 18.0998 14.7557 19.3923 12.6507C19.7919 12.0045 20.0035 11.2597 20.0035 10.4999C20.0035 9.7401 19.7919 8.99532 19.3923 8.34907ZM17.9715 11.7782C16.8615 13.5832 14.349 16.6207 9.9998 16.6207C5.65063 16.6207 3.13813 13.5832 2.02813 11.7782C1.79074 11.3941 1.66501 10.9515 1.66501 10.4999C1.66501 10.0483 1.79074 9.6057 2.02813 9.22157C3.13813 7.41657 5.65063 4.37907 9.9998 4.37907C14.349 4.37907 16.8615 7.41324 17.9715 9.22157C18.2089 9.6057 18.3346 10.0483 18.3346 10.4999C18.3346 10.9515 18.2089 11.3941 17.9715 11.7782Z" fill="#242133"/>
<path d="M0.607299 8.34907L18.7526 19.5678L18.7699 19.5398L18.7871 19.5117L0.607299 8.34907ZM0.607299 12.6507L18.7871 1.48807L18.7699 1.46003L18.7526 1.43205L0.607299 12.6507ZM19.3923 12.6507L1.24699 1.43205L1.22969 1.46003L1.21248 1.48807L19.3923 12.6507ZM2.02813 11.7782L20.2003 0.603109L20.188 0.583166L20.1757 0.563249L2.02813 11.7782ZM2.02813 9.22157L20.1757 20.4366L20.188 20.4166L20.2003 20.3967L2.02813 9.22157ZM17.9715 9.22157L-0.209893 20.3817L-0.193053 20.4092L-0.17613 20.4366L17.9715 9.22157ZM37.5721 -2.8136C34.851 -7.24531 26.2897 -18.6209 9.9998 -18.6209V24.0457C7.33868 24.0457 4.99278 23.0323 3.41848 21.8619C2.09763 20.8799 1.46216 19.9184 1.21248 19.5117L37.5721 -2.8136ZM9.9998 -18.6209C-6.29009 -18.6209 -14.8514 -7.24531 -17.5725 -2.8136L18.7871 19.5117C18.5374 19.9184 17.902 20.8799 16.5811 21.8619C15.0068 23.0323 12.6609 24.0457 9.9998 24.0457V-18.6209ZM-17.538 -2.86962C-20.0217 1.14749 -21.3372 5.77702 -21.3372 10.4999H21.3294C21.3294 13.7032 20.4371 16.8432 18.7526 19.5678L-17.538 -2.86962ZM-21.3372 10.4999C-21.3372 15.2228 -20.0217 19.8523 -17.538 23.8694L18.7526 1.43205C20.4371 4.15664 21.3294 7.29661 21.3294 10.4999H-21.3372ZM-17.5725 23.8134C-14.8514 28.2451 -6.29009 39.6207 9.9998 39.6207V-3.04593C12.6609 -3.04593 15.0068 -2.03246 16.5811 -0.862076C17.902 0.119877 18.5374 1.08142 18.7871 1.48807L-17.5725 23.8134ZM9.9998 39.6207C26.2897 39.6207 34.851 28.2451 37.5721 23.8134L1.21248 1.48807C1.46216 1.08142 2.09764 0.119877 3.41848 -0.862075C4.99278 -2.03246 7.33869 -3.04593 9.9998 -3.04593V39.6207ZM37.5376 23.8694C40.0213 19.8523 41.3368 15.2228 41.3368 10.4999H-1.32983C-1.32983 7.29661 -0.43754 4.15664 1.24699 1.43205L37.5376 23.8694ZM41.3368 10.4999C41.3368 5.77701 40.0213 1.14748 37.5376 -2.86962L1.24699 19.5678C-0.43754 16.8432 -1.32983 13.7032 -1.32983 10.4999H41.3368ZM-0.200702 0.603109C0.112036 0.094557 0.870418 -1.04043 2.38276 -2.17712C4.1443 -3.50112 6.82711 -4.7126 9.9998 -4.7126V37.9541C25.6103 37.9541 33.7229 26.8897 36.1436 22.9534L-0.200702 0.603109ZM9.9998 -4.7126C13.1725 -4.7126 15.8553 -3.50112 17.6168 -2.17712C19.1292 -1.04043 19.8876 0.0945566 20.2003 0.603109L-16.144 22.9534C-13.7233 26.8897 -5.61065 37.9541 9.9998 37.9541V-4.7126ZM20.1757 0.563249C22.021 3.54914 22.9983 6.98985 22.9983 10.4999H-19.6683C-19.6683 14.9131 -18.4395 19.2391 -16.1195 22.9932L20.1757 0.563249ZM22.9983 10.4999C22.9983 14.01 22.021 17.4507 20.1757 20.4366L-16.1195 -1.99342C-18.4395 1.76073 -19.6683 6.08673 -19.6683 10.4999H22.9983ZM20.2003 20.3967C19.8876 20.9052 19.1292 22.0402 17.6168 23.1769C15.8553 24.5009 13.1725 25.7124 9.9998 25.7124V-16.9543C-5.61066 -16.9543 -13.7234 -5.8899 -16.144 -1.95356L20.2003 20.3967ZM9.9998 25.7124C6.8332 25.7124 4.15131 24.5044 2.38622 23.1783C0.87052 22.0395 0.108551 20.9005 -0.209893 20.3817L36.1528 -1.9386C33.718 -5.90516 25.6028 -16.9543 9.9998 -16.9543V25.7124ZM-0.17613 20.4366C-2.02138 17.4507 -2.99874 14.0099 -2.99874 10.4999H39.6679C39.6679 6.08674 38.4391 1.76074 36.1191 -1.99342L-0.17613 20.4366ZM-2.99874 10.4999C-2.99874 6.98987 -2.02138 3.54915 -0.17613 0.563249L36.1191 22.9932C38.4391 19.2391 39.6679 14.9131 39.6679 10.4999H-2.99874Z" fill="#494C5D" mask="url(#path-1-inside-1_33021_3190)"/>
<path d="M9.99968 6.33325C9.17559 6.33325 8.37 6.57762 7.6848 7.03546C6.9996 7.4933 6.46554 8.14405 6.15018 8.9054C5.83481 9.66676 5.7523 10.5045 5.91307 11.3128C6.07384 12.121 6.47068 12.8635 7.0534 13.4462C7.63612 14.0289 8.37855 14.4258 9.1868 14.5865C9.99505 14.7473 10.8328 14.6648 11.5942 14.3494C12.3555 14.0341 13.0063 13.5 13.4641 12.8148C13.922 12.1296 14.1663 11.324 14.1663 10.4999C14.165 9.39526 13.7256 8.33622 12.9445 7.5551C12.1634 6.77399 11.1043 6.33458 9.99968 6.33325ZM9.99968 12.9999C9.50522 12.9999 9.02187 12.8533 8.61075 12.5786C8.19963 12.3039 7.8792 11.9134 7.68998 11.4566C7.50076 10.9998 7.45125 10.4971 7.54771 10.0122C7.64418 9.52724 7.88228 9.08178 8.23191 8.73215C8.58154 8.38252 9.027 8.14442 9.51195 8.04796C9.9969 7.95149 10.4996 8.001 10.9564 8.19022C11.4132 8.37944 11.8036 8.69987 12.0783 9.11099C12.3531 9.52212 12.4997 10.0055 12.4997 10.4999C12.4997 11.163 12.2363 11.7988 11.7674 12.2677C11.2986 12.7365 10.6627 12.9999 9.99968 12.9999Z" fill="#242133"/>
</g>
<defs>
<clipPath id="clip0_33021_3190">
<rect width="20" height="20" fill="white" transform="translate(0 0.5)"/>
</clipPath>
</defs>
</svg>
