<svg width="24" height="24" viewBox="0 0 24 24" fill="none" xmlns="http://www.w3.org/2000/svg">
<path d="M19.4746 4.38655C19.2243 4.14083 18.8873 4.00365 18.5365 4.00471L14.4872 4C14.311 4.00052 14.1423 4.07072 14.0177 4.19526C13.8932 4.3198 13.823 4.48856 13.8225 4.66468C13.8221 4.75269 13.8392 4.83989 13.8727 4.92127C13.9062 5.00265 13.9555 5.07659 14.0177 5.13882C14.08 5.20105 14.1539 5.25034 14.2353 5.28385C14.3167 5.31737 14.4039 5.33443 14.4919 5.33407L17.589 5.32936L12.8749 10.0434C12.7499 10.1684 12.6797 10.338 12.6797 10.5148C12.6797 10.6916 12.7499 10.8612 12.8749 10.9862C13 11.1112 13.1695 11.1815 13.3464 11.1815C13.5232 11.1815 13.6927 11.1112 13.8178 10.9862L18.5318 6.27217L18.5318 9.37401C18.5312 9.55092 18.6009 9.72083 18.7255 9.84636C18.8502 9.9719 19.0196 10.0428 19.1965 10.0434C19.3734 10.044 19.5433 9.97435 19.6688 9.8497C19.7944 9.72504 19.8652 9.55563 19.8659 9.37872L19.8612 5.32936C19.8622 4.9763 19.7232 4.63725 19.4746 4.38655Z" fill="#6F767E"/>
<path d="M4.52539 19.6135C4.77569 19.8592 5.11273 19.9964 5.46348 19.9953L9.51284 20C9.68897 19.9995 9.85773 19.9293 9.98227 19.8047C10.1068 19.6802 10.177 19.5114 10.1775 19.3353C10.1779 19.2473 10.1608 19.1601 10.1273 19.0787C10.0938 18.9973 10.0445 18.9234 9.98227 18.8612C9.92004 18.799 9.8461 18.7497 9.76472 18.7161C9.68335 18.6826 9.59614 18.6656 9.50813 18.6659L6.41101 18.6706L11.1251 13.9566C11.2501 13.8316 11.3203 13.662 11.3203 13.4852C11.3203 13.3084 11.2501 13.1388 11.1251 13.0138C11 12.8888 10.8305 12.8185 10.6536 12.8185C10.4768 12.8185 10.3073 12.8888 10.1822 13.0138L5.4682 17.7278L5.4682 14.626C5.46882 14.4491 5.39915 14.2792 5.2745 14.1536C5.14984 14.0281 4.98043 13.9572 4.80352 13.9566C4.62661 13.956 4.4567 14.0257 4.33116 14.1503C4.20563 14.275 4.13475 14.4444 4.13413 14.6213L4.13884 18.6706C4.13778 19.0237 4.2768 19.3628 4.52539 19.6135Z" fill="#6F767E"/>
</svg>
