<svg width="75" height="22" viewBox="0 0 75 22" fill="none" xmlns="http://www.w3.org/2000/svg">
<path d="M23.1245 2.34934L17.2611 12.548L21.0787 19.1954L21.5171 19.9603L18.0283 21.9818L17.5168 21.1258L13.0781 13.3858L19.8914 1.47517L20.7499 0L23.8734 1.09272L23.1245 2.34934Z" fill="#004C73"/>
<path d="M10.8846 8.19568L7.90719 13.3861L8.52824 14.4606L4.875 15.1708L4.96633 15.0252L8.58304 9.08807L6.35456 5.15429L5.77004 4.11621L11.0124 4.62614L11.5239 5.51853L11.9805 6.30164L10.8846 8.19568Z" fill="#004C73"/>
<path d="M19.8967 1.47517L13.0834 13.3858L17.5221 21.1258L18.0335 21.9818V22H12.8642L8.62644 14.6242L8.53511 14.4603L7.91406 13.3858L10.8915 8.19536L11.9874 6.30132L15.5859 0H20.7552L19.8967 1.47517Z" fill="white"/>
<path d="M8.58511 9.08788L4.96841 15.025L4.87707 15.1707H0L3.70804 9.08788L0.895044 4.11603H5.77212L6.35664 5.15411L8.58511 9.08788Z" fill="white"/>
<path d="M45.5738 7.12075C44.6477 9.48115 43.4785 11.7394 42.0849 13.8592C40.5289 16.2432 38.7883 18.5023 36.8791 20.6158H34.1392L33.4816 15.8807C33.0432 16.6638 32.5865 17.4651 32.1299 18.2482C31.6732 19.0313 31.1983 19.8327 30.7234 20.6158H27.1249L24.8234 8.43201V8.39559L24.6042 7.26645L24.5859 7.12075H28.6045L29.9379 16.8823C30.2667 16.336 30.5772 15.7896 30.8878 15.2433C31.1983 14.6969 31.4906 14.1506 31.7828 13.6042L30.5407 7.12075H34.0113L34.4862 11.2002C34.815 10.5082 35.1438 9.83433 35.4543 9.14227C35.7648 8.45022 36.0754 7.77638 36.3676 7.12075H39.5825C39.1076 8.34095 38.6144 9.45188 38.1029 10.49C37.5601 11.5572 36.9437 12.5856 36.258 13.5678L36.6964 15.9535C37.2444 15.2251 37.7376 14.5876 38.1577 13.9866C38.5778 13.3857 38.9432 12.8393 39.272 12.3111C39.6007 11.783 39.893 11.2731 40.167 10.7449C40.441 10.2168 40.6967 9.67042 40.9707 9.08764C41.2447 8.50486 41.5187 7.84923 41.811 7.10254H45.5738V7.12075Z" fill="white"/>
<path d="M56.0945 7.35782C55.2294 7.04071 54.3127 6.88634 53.3911 6.90252C51.0713 6.88387 48.8337 7.758 47.1441 9.34292C46.356 10.0904 45.7175 10.9803 45.2627 11.9654C44.8045 12.9716 44.5738 14.0658 44.5868 15.1707C44.5695 16.1963 44.808 17.2101 45.2809 18.1211C45.7259 18.9682 46.4123 19.6652 47.2537 20.1244C48.1989 20.6186 49.2554 20.8631 50.3224 20.8346C51.2488 20.836 52.1688 20.6821 53.0441 20.3793C53.9298 20.0769 54.7666 19.6474 55.5283 19.1045C56.2575 18.6022 56.8837 17.9655 57.3732 17.2287L54.0852 16.1906C53.7669 16.703 53.3198 17.1236 52.7883 17.4108C52.2568 17.7017 51.6594 17.8521 51.053 17.8479C50.5833 17.862 50.1178 17.7554 49.7014 17.5383C49.3472 17.35 49.0743 17.0391 48.9342 16.6641C48.7644 16.2355 48.6837 15.777 48.6967 15.3164V15.1343C49.263 15.1525 49.7927 15.1707 50.2859 15.1707C52.971 15.1707 55.0168 14.7883 56.3685 14.0234C57.7202 13.2585 58.4143 12.1658 58.4143 10.7088C58.4383 9.9623 58.2206 9.22793 57.7933 8.61444C57.369 8.03241 56.7762 7.59387 56.0945 7.35782ZM54.0487 11.9654C53.793 12.2022 53.3546 12.3661 52.7518 12.4754C51.9482 12.5991 51.1354 12.6539 50.3224 12.6393C49.9753 12.6393 49.6283 12.6393 49.263 12.6211C49.4202 12.2345 49.6225 11.8678 49.8657 11.5283C50.196 11.0483 50.6258 10.6446 51.1261 10.3446C51.6059 10.057 52.1555 9.90585 52.7153 9.90749C53.0199 9.90368 53.3228 9.95299 53.6103 10.0532C53.842 10.1337 54.0494 10.2716 54.2131 10.4538C54.3606 10.6402 54.4381 10.8721 54.4323 11.1095C54.4371 11.2717 54.4051 11.433 54.3387 11.5812C54.2723 11.7294 54.1731 11.8608 54.0487 11.9654Z" fill="white"/>
<path d="M73.7208 9.57907C73.4121 8.8038 72.8935 8.12919 72.223 7.63039C71.5111 7.13885 70.659 6.88973 69.7936 6.92013C68.8914 6.92163 68.0047 7.15362 67.218 7.59397C66.4035 8.02566 65.6978 8.63589 65.154 9.37874L66.7796 1.63867H62.6149L58.5781 20.6155H62.2314L62.7063 18.3936C62.9369 19.1407 63.413 19.7886 64.058 20.233C64.6973 20.6701 65.501 20.8887 66.4874 20.8887C67.4891 20.893 68.4778 20.6622 69.3734 20.2148C70.3097 19.7622 71.1524 19.1383 71.8576 18.3754C72.5992 17.5819 73.1929 16.663 73.6112 15.6619C74.0388 14.6091 74.256 13.4831 74.2505 12.3473C74.2547 11.3991 74.0748 10.4591 73.7208 9.57907ZM69.5378 14.7695C69.3461 15.2624 69.0608 15.7138 68.6976 16.0989C68.3543 16.4727 67.9458 16.7812 67.492 17.0095C67.0557 17.2299 66.5746 17.3483 66.0855 17.3556C65.7322 17.3628 65.382 17.288 65.0626 17.137C64.7618 16.9934 64.499 16.7813 64.2954 16.5178C64.0798 16.2274 63.9189 15.9004 63.8205 15.5526L64.4416 12.7297C64.6946 12.2988 65.0083 11.9063 65.3731 11.5642C65.7166 11.2307 66.1113 10.9541 66.5422 10.7446C66.9088 10.5518 67.3151 10.4459 67.7295 10.435C68.1375 10.4247 68.5369 10.5532 68.862 10.7993C69.1816 11.0519 69.4276 11.3851 69.5744 11.7645C69.7571 12.2026 69.8443 12.6744 69.8301 13.1486C69.8463 13.7032 69.7468 14.2552 69.5378 14.7695Z" fill="white"/>
</svg>
