<?xml version="1.0" standalone="no"?>
<!DOCTYPE svg PUBLIC "-//W3C//DTD SVG 20010904//EN"
 "http://www.w3.org/TR/2001/REC-SVG-20010904/DTD/svg10.dtd">
<svg version="1.0" xmlns="http://www.w3.org/2000/svg"
 width="400.000000pt" height="300.000000pt" viewBox="0 0 400.000000 300.000000"
 preserveAspectRatio="xMidYMid meet">
<metadata>
Created by potrace 1.16, written by Peter Selinger 2001-2019
</metadata>
<g transform="translate(0.000000,300.000000) scale(0.100000,-0.100000)"
fill="#000000" stroke="none">
<path d="M3003 1570 c0 -30 2 -43 4 -27 2 15 2 39 0 55 -2 15 -4 2 -4 -28z"/>
<path d="M2992 1480 c0 -19 2 -27 5 -17 2 9 2 25 0 35 -3 9 -5 1 -5 -18z"/>
<path d="M2641 1393 c-1 -7 -7 -13 -14 -13 -8 0 -31 -18 -53 -40 -21 -22 -44
-40 -50 -40 -6 0 -35 -24 -66 -52 -30 -29 -74 -71 -98 -93 -24 -22 -49 -53
-56 -70 -7 -16 -14 -23 -15 -15 -1 8 -2 20 -4 25 -1 6 -3 16 -3 24 -1 8 -5 11
-9 8 -3 -4 -15 5 -25 20 -23 36 -23 22 0 -17 10 -16 21 -27 25 -24 3 4 6 -2 5
-12 0 -11 12 -50 26 -89 17 -46 26 -92 27 -135 0 -51 3 -59 9 -38 5 16 34 56
65 90 102 112 201 289 190 339 -10 46 -29 48 -21 3 6 -35 5 -37 -6 -17 -10 17
-17 19 -30 12 -12 -7 -18 -7 -18 1 0 5 5 10 10 10 6 0 10 5 10 11 0 14 47 59
61 59 18 0 51 38 46 52 -4 10 -6 10 -6 1z"/>
<path d="M2971 1384 c0 -11 3 -14 6 -6 3 7 2 16 -1 19 -3 4 -6 -2 -5 -13z"/>
<path d="M2961 1344 c0 -11 3 -14 6 -6 3 7 2 16 -1 19 -3 4 -6 -2 -5 -13z"/>
<path d="M2626 1319 c4 -8 -1 -9 -17 -5 -13 3 -18 3 -11 0 6 -3 12 -15 12 -27
1 -21 1 -21 15 3 17 30 18 40 4 40 -5 0 -7 -5 -3 -11z"/>
<path d="M2936 1285 c-9 -26 -7 -32 5 -12 6 10 9 21 6 23 -2 3 -7 -2 -11 -11z"/>
<path d="M2200 1206 c0 -2 8 -10 18 -17 15 -13 16 -12 3 4 -13 16 -21 21 -21
13z"/>
<path d="M2855 1119 c-4 -6 -5 -12 -2 -15 2 -3 7 2 10 11 7 17 1 20 -8 4z"/>
<path d="M2796 1032 l-19 -27 26 24 c28 26 32 31 20 31 -5 0 -17 -13 -27 -28z"/>
<path d="M1956 975 c-9 -26 -7 -32 5 -12 6 10 9 21 6 23 -2 3 -7 -2 -11 -11z"/>
<path d="M2750 975 c-7 -8 -16 -13 -19 -10 -4 2 -8 -2 -8 -10 0 -21 9 -18 30
10 19 27 17 34 -3 10z"/>
<path d="M1780 928 c0 -19 49 -70 61 -63 5 4 9 9 9 12 0 4 -3 4 -6 0 -7 -6
-34 16 -34 28 0 4 -7 13 -15 21 -12 12 -15 12 -15 2z"/>
<path d="M1905 909 c-3 -4 2 -6 10 -5 21 3 28 13 10 13 -9 0 -18 -4 -20 -8z"/>
<path d="M1874 862 c1 -8 -5 -17 -13 -20 -9 -3 -11 0 -6 9 5 8 4 11 -1 6 -5
-5 -9 -12 -9 -15 0 -4 -4 -13 -9 -21 -11 -18 9 -7 42 22 25 23 28 34 8 34 -7
0 -13 -7 -12 -15z"/>
<path d="M2590 829 c-35 -31 -35 -31 -3 -9 18 11 35 25 38 30 10 16 2 11 -35
-21z"/>
<path d="M1705 820 c17 -11 35 -20 40 -20 6 0 -3 9 -20 20 -16 11 -34 20 -40
20 -5 0 4 -9 20 -20z"/>
<path d="M1753 796 c-18 -21 7 -27 38 -10 l24 15 -24 -7 c-16 -4 -21 -3 -17 5
10 16 -7 13 -21 -3z"/>
<path d="M2317 771 c-4 -17 -3 -21 5 -13 5 5 8 16 6 23 -3 8 -7 3 -11 -10z"/>
<path d="M2515 780 c-3 -6 1 -7 9 -4 18 7 21 14 7 14 -6 0 -13 -4 -16 -10z"/>
<path d="M2480 760 c-9 -6 -10 -10 -3 -10 6 0 15 5 18 10 8 12 4 12 -15 0z"/>
<path d="M2435 740 c-3 -6 1 -7 9 -4 18 7 21 14 7 14 -6 0 -13 -4 -16 -10z"/>
<path d="M2330 696 c4 -4 16 -4 26 2 16 9 14 10 -8 9 -15 -1 -23 -6 -18 -11z"/>
<path d="M2265 680 c-3 -5 1 -10 10 -10 9 0 13 5 10 10 -3 6 -8 10 -10 10 -2
0 -7 -4 -10 -10z"/>
</g>
</svg>
