<svg width="32" height="32" viewBox="0 0 32 32" fill="none" xmlns="http://www.w3.org/2000/svg">
<rect width="32" height="32" rx="16" fill="#D5E7FF"/>
<g clip-path="url(#clip0_34927_1516)">
<path d="M12.9478 22C13.2062 22.5943 13.6326 23.1001 14.1745 23.4554C14.7165 23.8107 15.3504 24 15.9984 24C16.6464 24 17.2804 23.8107 17.8223 23.4554C18.3643 23.1001 18.7906 22.5943 19.0491 22H12.9478Z" fill="#1A8BF3"/>
<path d="M22.9303 16.3658L21.773 12.5504C21.4024 11.216 20.5966 10.0436 19.4836 9.21944C18.3705 8.39526 17.0141 7.96652 15.6296 8.00129C14.2451 8.03606 12.9119 8.53236 11.8416 9.41137C10.7714 10.2904 10.0255 11.5017 9.72231 12.8531L8.82365 16.5444C8.7042 17.0349 8.69773 17.5462 8.80472 18.0395C8.91171 18.5329 9.12937 18.9955 9.44126 19.3925C9.75316 19.7895 10.1511 20.1104 10.6052 20.3311C11.0592 20.5518 11.5575 20.6664 12.0623 20.6664H19.7403C20.2608 20.6665 20.7741 20.5446 21.239 20.3106C21.7039 20.0766 22.1076 19.737 22.4177 19.3189C22.7277 18.9009 22.9356 18.416 23.0246 17.9032C23.1137 17.3904 23.0814 16.8639 22.9303 16.3658Z" fill="#1A8BF3"/>
</g>
<defs>
<clipPath id="clip0_34927_1516">
<rect width="16" height="16" fill="white" transform="translate(8 8)"/>
</clipPath>
</defs>
</svg>
