<svg width="16" height="16" viewBox="0 0 16 16" fill="none" xmlns="http://www.w3.org/2000/svg">
<g clip-path="url(#clip0_32859_5239)">
<path d="M7.65067 10C7.47386 10 7.30429 10.0702 7.17926 10.1953C7.05424 10.3203 6.984 10.4899 6.984 10.6667V12.6667C6.984 13.1971 6.77329 13.7058 6.39821 14.0809C6.02314 14.456 5.51443 14.6667 4.984 14.6667H3.33333C2.8029 14.6667 2.29419 14.456 1.91912 14.0809C1.54405 13.7058 1.33333 13.1971 1.33333 12.6667V3.33333C1.33333 2.8029 1.54405 2.29419 1.91912 1.91912C2.29419 1.54405 2.8029 1.33333 3.33333 1.33333H4.984C5.51443 1.33333 6.02314 1.54405 6.39821 1.91912C6.77329 2.29419 6.984 2.8029 6.984 3.33333V5.33333C6.984 5.51014 7.05424 5.67971 7.17926 5.80474C7.30429 5.92976 7.47386 6 7.65067 6C7.82748 6 7.99705 5.92976 8.12207 5.80474C8.2471 5.67971 8.31733 5.51014 8.31733 5.33333V3.33333C8.31627 2.4496 7.96475 1.60237 7.33985 0.97748C6.71496 0.352588 5.86773 0.00105857 4.984 0H3.33333C2.4496 0.00105857 1.60237 0.352588 0.97748 0.97748C0.352588 1.60237 0.00105857 2.4496 0 3.33333L0 12.6667C0.00105857 13.5504 0.352588 14.3976 0.97748 15.0225C1.60237 15.6474 2.4496 15.9989 3.33333 16H4.984C5.86773 15.9989 6.71496 15.6474 7.33985 15.0225C7.96475 14.3976 8.31627 13.5504 8.31733 12.6667V10.6667C8.31733 10.4899 8.2471 10.3203 8.12207 10.1953C7.99705 10.0702 7.82748 10 7.65067 10Z" fill="#FF424F"/>
<path d="M15.2443 6.58605L12.187 3.52872C12.1255 3.46505 12.0519 3.41426 11.9706 3.37932C11.8893 3.34438 11.8018 3.32599 11.7133 3.32522C11.6248 3.32445 11.537 3.34132 11.455 3.37484C11.3731 3.40836 11.2987 3.45786 11.2361 3.52046C11.1735 3.58305 11.124 3.65749 11.0905 3.73942C11.0569 3.82135 11.0401 3.90914 11.0408 3.99766C11.0416 4.08617 11.06 4.17365 11.0949 4.25499C11.1299 4.33633 11.1807 4.40989 11.2443 4.47139L14.0857 7.31339L3.99967 7.33339C3.82286 7.33339 3.65329 7.40363 3.52827 7.52865C3.40325 7.65367 3.33301 7.82324 3.33301 8.00005C3.33301 8.17687 3.40325 8.34643 3.52827 8.47146C3.65329 8.59648 3.82286 8.66672 3.99967 8.66672L14.125 8.64605L11.243 11.5287C11.1793 11.5902 11.1285 11.6638 11.0936 11.7451C11.0587 11.8265 11.0403 11.9139 11.0395 12.0025C11.0387 12.091 11.0556 12.1788 11.0891 12.2607C11.1226 12.3426 11.1722 12.4171 11.2347 12.4797C11.2973 12.5422 11.3718 12.5917 11.4537 12.6253C11.5356 12.6588 11.6234 12.6757 11.7119 12.6749C11.8005 12.6741 11.8879 12.6557 11.9693 12.6208C12.0506 12.5858 12.1242 12.5351 12.1857 12.4714L15.243 9.41405C15.6181 9.03918 15.829 8.53066 15.8292 8.00033C15.8295 7.47 15.6191 6.96129 15.2443 6.58605Z" fill="#FF424F"/>
</g>
<defs>
<clipPath id="clip0_32859_5239">
<rect width="16" height="16" fill="white"/>
</clipPath>
</defs>
</svg>
