<?xml version="1.0" encoding="UTF-8"?>
<svg version="1.1" xmlns="http://www.w3.org/2000/svg" width="807" height="806">
<path d="M0 0 C266.31 0 532.62 0 807 0 C807 265.98 807 531.96 807 806 C540.69 806 274.38 806 0 806 C0 540.02 0 274.04 0 0 Z " fill="#23337F" transform="translate(0,0)"/>
<path d="M0 0 C27.12752547 -1.03845062 27.12752547 -1.03845062 39 5 C40.02480469 5.515625 41.04960938 6.03125 42.10546875 6.5625 C45.66351022 8.44257475 49.11249489 10.45604526 52.54296875 12.55859375 C55.38346011 14.22495513 58.31104021 15.52979378 61.328125 16.83984375 C63 18 63 18 63.71313477 19.75732422 C64.08689151 22.67930673 63.38019201 24.32439139 62.26171875 27.04296875 C61.85888672 28.02612061 61.45605469 29.00927246 61.04101562 30.0222168 C60.37102539 31.58903198 60.37102539 31.58903198 59.6875 33.1875 C59.23181641 34.26233643 58.77613281 35.33717285 58.30664062 36.44458008 C50.56824282 54.28839937 40.25092204 69.47998085 27.06640625 83.7421875 C25.22107512 85.75844722 23.48728077 87.82885946 21.75 89.9375 C-2.37992343 117.44339895 -44.00777002 136.66727349 -79.98632812 139.68774414 C-82.32450776 139.83299622 -84.65844809 139.92730705 -87 140 C-87.91668457 140.03029297 -88.83336914 140.06058594 -89.77783203 140.09179688 C-137.17660851 141.38070408 -181.40615154 128.69567797 -216.7578125 96.0546875 C-218.69106313 94.28310243 -220.66289334 92.60217659 -222.6875 90.9375 C-226.54970602 87.63087814 -229.77713967 83.92375422 -233 80 C-233.4129834 79.49936035 -233.8259668 78.9987207 -234.25146484 78.48291016 C-240.9047382 70.37085922 -246.73546421 62.08094713 -252 53 C-248.60685314 51.72756993 -245.72231387 52.22349511 -242.19921875 52.72900391 C-216.29823521 55.92062155 -190.99917062 47.90596308 -166.3671875 41.05859375 C-165.45805603 40.80634537 -164.54892456 40.55409698 -163.61224365 40.29420471 C-159.06422067 39.03099095 -154.51923907 37.75820782 -149.97851562 36.46899414 C-148.3060335 36.00000612 -146.63350944 35.53116762 -144.9609375 35.0625 C-143.79726151 34.72713478 -143.79726151 34.72713478 -142.6100769 34.38499451 C-137.22639791 32.88680104 -137.22639791 32.88680104 -135 34 C-135.01160156 35.25296875 -135.02320313 36.5059375 -135.03515625 37.796875 C-135.04453716 39.44791517 -135.05363704 41.09895696 -135.0625 42.75 C-135.07506836 43.9875 -135.07506836 43.9875 -135.08789062 45.25 C-135.09272461 46.44882812 -135.09272461 46.44882812 -135.09765625 47.671875 C-135.10551147 48.77160645 -135.10551147 48.77160645 -135.11352539 49.89355469 C-135.06722826 52.03898149 -135.06722826 52.03898149 -134.43139648 54.20800781 C-134.28903564 54.79936523 -134.1466748 55.39072266 -134 56 C-134.33 56.33 -134.66 56.66 -135 57 C-135.0999519 59.08135137 -135.12967207 61.16625528 -135.125 63.25 C-135.12757813 64.38953125 -135.13015625 65.5290625 -135.1328125 66.703125 C-135.0161042 69.60023681 -134.56783727 72.17113794 -134 75 C-134.33 75.33 -134.66 75.66 -135 76 C-135.51636861 82.09314959 -135.06682422 85.1424044 -131 90 C-128.35575224 92.64424776 -127.24859547 92.97819338 -123.4375 93.3125 C-122.303125 93.539375 -121.16875 93.76625 -120 94 C-118.94773272 95.97300116 -117.95211112 97.97676387 -117 100 C-111.65804351 103.8088081 -107.55026394 104.68574573 -101.0625 104.5625 C-100.26779297 104.55371826 -99.47308594 104.54493652 -98.65429688 104.53588867 C-93.4573823 104.35433941 -89.44785504 103.73581467 -85.25 100.4375 C-83.79712049 98.93692232 -83.79712049 98.93692232 -83 96.3125 C-82.67 95.549375 -82.34 94.78625 -82 94 C-80.02659379 93.45003434 -78.0461962 92.91005988 -76.03515625 92.51953125 C-72.29063918 91.56363726 -69.95438095 89.27250793 -67.6875 86.25 C-66.24518701 81.52970294 -66.68261885 76.70493268 -68 72 C-67.67 71.67 -67.34 71.34 -67 71 C-66.90043991 68.7101179 -66.8703128 66.41704063 -66.875 64.125 C-66.87242187 62.86945313 -66.86984375 61.61390625 -66.8671875 60.3203125 C-66.84592923 56.99878218 -66.84592923 56.99878218 -68 54 C-67.67 53.34 -67.34 52.68 -67 52 C-67.07414066 48.48573284 -67.17398327 44.98104878 -67.390625 41.47265625 C-67.55594495 35.55213542 -65.95834728 33.52467709 -62 29 C-60.87675797 25.65164457 -60.42497887 22.15278954 -59.96875 18.65820312 C-59.578125 16.58203125 -59.578125 16.58203125 -58 13 C-55.20254539 11.25811054 -52.19273538 10.70576548 -49 10 C-46.74701976 9.40506817 -44.49444336 8.80860578 -42.2421875 8.2109375 C-39.78738222 7.59526286 -37.33162894 6.98335722 -34.875 6.375 C-33.63878906 6.06304687 -32.40257812 5.75109375 -31.12890625 5.4296875 C-29.92878906 5.130625 -28.72867188 4.8315625 -27.4921875 4.5234375 C-25.87352783 4.1200415 -25.87352783 4.1200415 -24.22216797 3.70849609 C-14.90100347 1.65894166 -14.90100347 1.65894166 -11.63232422 2.89624023 C-10.9467041 3.36231689 -10.26108398 3.82839355 -9.5546875 4.30859375 C-8.40419922 5.05786133 -8.40419922 5.05786133 -7.23046875 5.82226562 C-6.45316406 6.35529297 -5.67585937 6.88832031 -4.875 7.4375 C-3.31663162 8.48792729 -1.75170124 9.52869942 -0.1796875 10.55859375 C0.50367676 11.02579834 1.18704102 11.49300293 1.89111328 11.97436523 C4.43356196 13.21085828 6.20583335 13.26115646 9 13 C10.24454702 11.95123512 10.24454702 11.95123512 10.375 9.640625 C10.28002796 6.81532179 10.28002796 6.81532179 7.8125 5.234375 C6.884375 4.74453125 5.95625 4.2546875 5 3.75 C3.32553825 2.84765117 1.65657458 1.93478137 0 1 C0 0.67 0 0.34 0 0 Z " fill="#071678" transform="translate(505,388)"/>
<path d="M0 0 C1.37671875 0.41765625 1.37671875 0.41765625 2.78125 0.84375 C19.89540192 6.42027141 34.87967341 18.9298053 43.25 34.8125 C52.02227006 53.3370485 53.48836798 72.08021468 46.78125 91.53515625 C43.28422269 100.30686641 38.55472759 107.44078364 33 115 C26.61050409 123.88605391 23.08488412 132.37192835 21.00390625 143.140625 C20 146 20 146 17.41796875 148.8203125 C14.26060113 152.97232743 14.43534405 155.59050481 14.75 160.625 C15.08211548 168.67880047 15.08211548 168.67880047 14.44238281 171.18115234 C14.29639648 171.78137207 14.15041016 172.3815918 14 173 C14.33 173.33 14.66 173.66 15 174 C15.09980173 176.26902176 15.12967809 178.54128925 15.125 180.8125 C15.12886719 182.67841797 15.12886719 182.67841797 15.1328125 184.58203125 C15.02693275 187.30687781 14.69092552 189.40588872 14 192 C14.33 192.33 14.66 192.66 15 193 C15.39166362 197.6216307 15.46458258 200.07083484 13.375 204.25 C9.88581239 208.29011197 7.06958029 210.84669776 1.625 211.25 C0.75875 211.1675 -0.1075 211.085 -1 211 C-1.061875 211.7425 -1.12375 212.485 -1.1875 213.25 C-2.41336722 217.39908904 -5.15719259 218.76554106 -8.62109375 221.0859375 C-15.24932548 223.63274575 -25.2532397 223.3164293 -31.890625 220.984375 C-35.17741106 218.96361024 -36.84015429 217.23976856 -39 214 C-39 213.01 -39 212.02 -39 211 C-40.5159375 211.185625 -40.5159375 211.185625 -42.0625 211.375 C-47.18784969 210.88687146 -49.67715525 208.82258658 -53 205 C-55.75681631 200.46576265 -55.63947009 195.69998482 -54.4375 190.625 C-54.293125 190.08875 -54.14875 189.5525 -54 189 C-54.33 188.34 -54.66 187.68 -55 187 C-55.09706713 184.85595831 -55.12978536 182.70873249 -55.125 180.5625 C-55.12886719 178.83193359 -55.12886719 178.83193359 -55.1328125 177.06640625 C-55 174 -55 174 -54 171 C-54.33 170.34 -54.66 169.68 -55 169 C-55.09813199 166.50917924 -55.13905548 164.05266211 -55.125 161.5625 C-55.13080078 160.5405957 -55.13080078 160.5405957 -55.13671875 159.49804688 C-55.1306374 156.39351954 -54.98890312 153.96670935 -54 151 C-54.6290625 150.74863281 -55.258125 150.49726563 -55.90625 150.23828125 C-58.44393495 148.73744892 -58.71392248 147.97497227 -59.5 145.1875 C-59.74621094 144.38054687 -59.99242187 143.57359375 -60.24609375 142.7421875 C-60.76933595 140.83899568 -61.25927584 138.92645788 -61.72265625 137.0078125 C-64.07438899 128.06028981 -68.19306642 121.99396212 -73.68310547 114.76171875 C-87.36713105 96.45546576 -93.71512617 77.45484106 -90.50390625 54.4453125 C-89.82361398 51.5473443 -88.99995761 48.80309403 -88 46 C-87.47212891 44.49566406 -87.47212891 44.49566406 -86.93359375 42.9609375 C-84.21886005 35.88291895 -80.66271934 29.95735725 -76 24 C-75.47792969 23.31292969 -74.95585937 22.62585938 -74.41796875 21.91796875 C-56.62410363 -0.03212764 -26.69355488 -9.10721284 0 0 Z " fill="#F0F0F7" transform="translate(424,271)"/>
<path d="M0 0 C14.84260066 9.97165431 25.66002157 22.83902693 29.5234375 40.6953125 C29.9623197 44.6017717 30.04839787 48.45392366 30.0234375 52.3828125 C30.01771729 53.43428467 30.01199707 54.48575684 30.00610352 55.5690918 C29.69654279 69.14911413 25.41046517 79.66604273 17.5234375 90.6953125 C10.32320059 100.76574694 4.25939585 109.64964571 2.2734375 122.1328125 C1.09354571 128.16410293 1.09354571 128.16410293 -1.30859375 130.40234375 C-5.25626552 132.24827783 -9.52748591 132.93679287 -13.78515625 133.7734375 C-15.11051392 134.03495605 -15.11051392 134.03495605 -16.46264648 134.30175781 C-17.12723877 134.43163086 -17.79183105 134.56150391 -18.4765625 134.6953125 C-18.5354621 131.38288938 -18.57045648 128.07060399 -18.6015625 124.7578125 C-18.61832031 123.83162109 -18.63507813 122.90542969 -18.65234375 121.95117188 C-18.69481453 115.89908563 -18.06271355 110.52853105 -16.4765625 104.6953125 C-16.28884277 103.96513916 -16.10112305 103.23496582 -15.90771484 102.48266602 C-15.33370425 100.29470397 -14.72297041 98.1202402 -14.1015625 95.9453125 C-13.905625 95.21699219 -13.7096875 94.48867188 -13.5078125 93.73828125 C-11.7644171 87.65846566 -9.13256322 83.70862845 -3.9140625 80.0078125 C1.29640334 75.61357843 2.17625127 70.14113581 2.8359375 63.59375 C3.0849379 57.32205233 2.83634684 53.37789978 -1.4765625 48.6953125 C-4.51181736 46.67180926 -5.67082452 46.37407232 -9.1640625 46.0703125 C-9.97230469 45.99554688 -10.78054688 45.92078125 -11.61328125 45.84375 C-12.22816406 45.79476562 -12.84304688 45.74578125 -13.4765625 45.6953125 C-14.064375 44.055625 -14.064375 44.055625 -14.6640625 42.3828125 C-15.80987609 39.75010593 -16.48831694 38.68519062 -18.7265625 36.7578125 C-22.28169271 35.38423947 -24.69783573 35.14567952 -28.4765625 35.6953125 C-31.63879641 38.77432973 -33.34212745 41.51866789 -33.6184082 45.99194336 C-33.62960693 46.87245361 -33.64080566 47.75296387 -33.65234375 48.66015625 C-33.67619141 49.62501953 -33.70003906 50.58988281 -33.72460938 51.58398438 C-33.76749105 53.61241767 -33.79878903 55.64112975 -33.81835938 57.66992188 C-34.02858758 64.99857499 -34.02858758 64.99857499 -36.20703125 68.38671875 C-38.85845656 69.91550959 -40.46324919 70.03012509 -43.4765625 69.6953125 C-43.53263672 68.40947266 -43.53263672 68.40947266 -43.58984375 67.09765625 C-44.03593078 57.97029195 -44.03593078 57.97029195 -47.4765625 49.6953125 C-50.33956609 47.2299483 -52.17064894 46.73980902 -55.9140625 46.1953125 C-60.64332101 46.85906808 -62.13338041 48.35213041 -65.4765625 51.6953125 C-67.69863355 56.1394546 -66.98780935 61.87078759 -66.4765625 66.6953125 C-64.29297983 71.83603403 -59.26962349 74.34235529 -54.4765625 76.6953125 C-53.15083752 77.05772409 -51.81854786 77.39872493 -50.4765625 77.6953125 C-50.36586426 78.38568604 -50.25516602 79.07605957 -50.14111328 79.78735352 C-49.63228538 82.94489275 -49.11697916 86.10134236 -48.6015625 89.2578125 C-48.42753906 90.34384766 -48.25351562 91.42988281 -48.07421875 92.54882812 C-47.03421137 98.931245 -47.03421137 98.931245 -45.3515625 105.1640625 C-43.99842376 110.62494384 -44.26878105 116.03232878 -44.3515625 121.6328125 C-44.36058594 122.79361328 -44.36960937 123.95441406 -44.37890625 125.15039062 C-44.40235088 127.99891358 -44.43516728 130.84700328 -44.4765625 133.6953125 C-51.44647133 133.89572521 -57.0611117 133.62207621 -62.4765625 128.6953125 C-63.70968292 125.52190582 -64.24803836 122.50424559 -64.80859375 119.1484375 C-66.73948741 109.16650772 -73.00691458 101.47723211 -79.07397461 93.62890625 C-83.39319412 87.97908301 -86.67819337 82.24646143 -89.4765625 75.6953125 C-89.88648438 74.87675781 -90.29640625 74.05820312 -90.71875 73.21484375 C-95.64492408 62.25835312 -95.0950718 46.97782683 -91.6328125 35.61328125 C-84.87024948 18.54694822 -74.21810798 4.85658821 -57.4765625 -3.3046875 C-53.20058533 -4.9563525 -48.93159989 -6.23852471 -44.4765625 -7.3046875 C-43.84492188 -7.49417969 -43.21328125 -7.68367188 -42.5625 -7.87890625 C-28.41215458 -10.76727264 -12.24577149 -7.31804363 0 0 Z " fill="#081460" transform="translate(435.4765625,285.3046875)"/>
<path d="M0 0 C51.70483005 0 51.70483005 0 65.2421875 13.18359375 C76.08296515 25.59290882 76.72329128 41.29822065 76 57 C75.67596364 60.18018545 75.03881483 62.98145429 74 66 C73.68160156 66.95261719 73.36320313 67.90523437 73.03515625 68.88671875 C69.05751127 79.56073576 63.28835749 86.26971614 53.296875 91.7109375 C34.88447809 98.91009743 21.74901308 96 0 96 C0 64.32 0 32.64 0 0 Z " fill="#050E3F" transform="translate(585,583)"/>
<path d="M0 0 C5.61 0 11.22 0 17 0 C24.43317235 17.6876948 31.8384373 35.38695317 39.22131348 53.09570312 C40.11079811 55.22910615 41.00052537 57.36240803 41.89050293 59.49560547 C43.15822025 62.53451888 44.42494852 65.57384273 45.69140625 68.61328125 C46.06703201 69.51335403 46.44265778 70.41342682 46.82966614 71.34077454 C53.80197689 88.08612836 53.80197689 88.08612836 55.75 94.125 C55.99234375 94.87007812 56.2346875 95.61515625 56.484375 96.3828125 C56.65453125 96.91648437 56.8246875 97.45015625 57 98 C57.66 98 58.32 98 59 98 C59.39832031 96.74574219 59.79664063 95.49148438 60.20703125 94.19921875 C62.07477972 88.60685132 64.3594946 83.22620663 66.6875 77.8125 C67.66324775 75.52494739 68.63847416 73.23717236 69.61328125 70.94921875 C69.87532349 70.33530273 70.13736572 69.72138672 70.40734863 69.08886719 C73.73684282 61.28476519 77.0250738 53.46326881 80.31558228 45.64266968 C81.35270291 43.17798827 82.39050312 40.71359405 83.4284668 38.24926758 C84.08516994 36.68963535 84.74182787 35.12998409 85.3984375 33.5703125 C85.87118607 32.44752144 85.87118607 32.44752144 86.35348511 31.30204773 C88.17174138 26.98007881 89.97540853 22.65237203 91.76953125 18.3203125 C94.34521218 12.12819585 97.15994861 6.07638902 100 0 C105.28 0 110.56 0 116 0 C116 39.27 116 78.54 116 119 C112.04 119 108.08 119 104 119 C103.67 87.98 103.34 56.96 103 25 C94.78458421 44.41303282 94.78458421 44.41303282 87 64 C85.94824054 66.36187218 84.86813039 68.71164102 83.7421875 71.0390625 C80.91889008 76.9627673 78.24333319 82.94051377 75.6328125 88.9609375 C75.26355652 89.81206116 74.89430054 90.66318481 74.51385498 91.5401001 C72.99141653 95.05429143 71.47266278 98.57006933 69.95410156 102.0859375 C68.82809748 104.69094275 67.69931441 107.29473044 66.5703125 109.8984375 C66.22557892 110.69929779 65.88084534 111.50015808 65.52566528 112.32528687 C63.11294026 117.88705974 63.11294026 117.88705974 62 119 C60.48071962 119.07179964 58.95832518 119.08392007 57.4375 119.0625 C56.19806641 119.04896484 56.19806641 119.04896484 54.93359375 119.03515625 C53.97646484 119.01775391 53.97646484 119.01775391 53 119 C50.35302967 112.9379958 47.70745451 106.87538398 45.0625 100.8125 C44.67317291 99.92029755 44.28384583 99.02809509 43.88272095 98.1088562 C39.10447771 87.15687471 34.32650919 76.20548071 29.68969727 65.19262695 C28.20294771 61.68599454 26.64863876 58.2511294 24.921875 54.85546875 C23.24559117 51.5552216 21.8497977 48.2243675 20.5625 44.75 C18.20623114 38.41188307 15.61016046 32.26438511 13 26 C12.67 56.69 12.34 87.38 12 119 C8.04 119 4.08 119 0 119 C0 79.73 0 40.46 0 0 Z " fill="#F6F5FA" transform="translate(267,572)"/>
<path d="M0 0 C4.62 0 9.24 0 14 0 C17.67875681 7.69972357 20.92686134 15.22407537 23.62890625 23.3203125 C24.74289207 26.30998384 25.95542156 29.13386879 27.29492188 32.02368164 C29.90083727 37.72413075 32.30214622 43.49106356 34.65234375 49.30078125 C35.07495987 50.3396196 35.49757599 51.37845795 35.93299866 52.44877625 C37.26995462 55.73582656 38.60396878 59.02405897 39.9375 62.3125 C41.69497034 66.64259688 43.45395498 70.97207337 45.21484375 75.30078125 C45.63516876 76.33421661 46.05549377 77.36765198 46.48855591 78.43240356 C49.17777786 85.02799156 51.92502854 91.59314856 54.77270508 98.12182617 C57.83450156 105.30215613 60.53221701 112.59665102 63 120 C58.38 120 53.76 120 49 120 C47.28773565 115.90789205 45.57764516 111.81501428 43.87304688 107.71972656 C43.2922869 106.32629239 42.71026074 104.93338525 42.12695312 103.54101562 C41.28964617 101.54173168 40.45688311 99.54060824 39.625 97.5390625 C39.12226563 96.33459473 38.61953125 95.13012695 38.1015625 93.88916016 C37 91 37 91 37 89 C16.87 89 -3.26 89 -24 89 C-24.33 90.65 -24.66 92.3 -25 94 C-25.78945808 96.07633823 -26.62887107 98.1340325 -27.50390625 100.17578125 C-27.99697266 101.33271484 -28.49003906 102.48964844 -28.99804688 103.68164062 C-29.51431641 104.87982422 -30.03058594 106.07800781 -30.5625 107.3125 C-31.0883279 108.54213081 -31.61372303 109.77194678 -32.13867188 111.00195312 C-33.42152562 114.00312473 -34.71020282 117.00180589 -36 120 C-40.29 120 -44.58 120 -49 120 C-48.1386308 115.69315402 -46.9195091 112.07107313 -45.21875 108.078125 C-44.93375137 107.39833588 -44.64875275 106.71854675 -44.3551178 106.01815796 C-43.40757083 103.76033232 -42.45369745 101.50523375 -41.5 99.25 C-40.47672789 96.81565669 -39.45511721 94.38061989 -38.43348694 91.94558716 C-37.71833111 90.24147738 -37.00261207 88.53760387 -36.28636169 86.83395386 C-32.6980772 78.29626491 -29.15779062 69.73894917 -25.61935425 61.18051147 C-17.16970331 40.74895247 -8.60530719 20.36641935 0 0 Z " fill="#F4F3F9" transform="translate(470,571)"/>
<path d="M0 0 C69.88835066 0 69.88835066 0 85.8203125 13.81640625 C97.67477366 25.69211196 101.19853351 40.23043041 101.29516602 56.48046875 C101.31221145 58.46638244 101.3560716 60.45200773 101.40039062 62.4375 C101.49642429 77.21190952 97.34783432 92.08977117 87.07421875 103.12109375 C63.61720698 124.36934735 28.99297303 119 0 119 C0 79.73 0 40.46 0 0 Z M13 11 C13 42.68 13 74.36 13 107 C47.32426914 108.94694297 47.32426914 108.94694297 76.95703125 95.328125 C86.93680376 85.15267068 89.24498863 71.39223132 89.25097656 57.70532227 C89.07329493 45.20165014 86.42539294 33.05364577 77.796875 23.65625 C60.12215394 7.36476798 35.09843404 11 13 11 Z " fill="#F4F3F7" transform="translate(572,572)"/>
<path d="M0 0 C3.96 0 7.92 0 12 0 C12.33 20.46 12.66 40.92 13 62 C16.96 57.545 16.96 57.545 21 53 C21.66 53 22.32 53 23 53 C23.26891556 52.40544006 23.53783112 51.81088013 23.81489563 51.19830322 C25.00383843 48.99287993 26.18581146 47.57778904 27.96166992 45.82714844 C28.55956833 45.23262878 29.15746674 44.63810913 29.77348328 44.02557373 C30.74219109 43.07705536 30.74219109 43.07705536 31.73046875 42.109375 C32.73343742 41.11420868 32.73343742 41.11420868 33.75666809 40.09893799 C35.89558082 37.97781594 38.0410362 35.86347832 40.1875 33.75 C42.31528759 31.65000293 44.44153829 29.54850868 46.56477356 27.44390869 C47.88427409 26.13647456 49.20643605 24.83171857 50.53178406 23.5302124 C54.34665358 19.75594291 57.94683781 15.86011123 61.43574524 11.78204346 C62.90684002 10.10613049 64.33383724 8.48339121 66 7 C66.66 7 67.32 7 68 7 C68.4021875 6.1028125 68.4021875 6.1028125 68.8125 5.1875 C70.76911544 1.5832084 70.76911544 1.5832084 73 0 C75.81127043 -0.21714241 78.3883345 -0.28284276 81.1875 -0.1875 C81.93708984 -0.17396484 82.68667969 -0.16042969 83.45898438 -0.14648438 C85.30629767 -0.11118539 87.15324066 -0.05737917 89 0 C84.38529545 6.6657328 78.98129485 12.2809339 73.2265625 17.96875 C72.3028183 18.88966431 71.3790741 19.81057861 70.42733765 20.75939941 C67.99545262 23.1837219 65.55761898 25.60197228 63.1184082 28.0189209 C60.62082272 30.49588711 58.12903242 32.97866886 55.63671875 35.4609375 C50.76340383 40.31293308 45.88376688 45.15852554 41 50 C42.39117022 52.85731118 43.86118543 55.27059804 45.8359375 57.765625 C46.39909668 58.48210205 46.96225586 59.1985791 47.54248047 59.93676758 C48.14721191 60.70013428 48.75194336 61.46350098 49.375 62.25 C53.93665675 68.05983351 58.46088543 73.88967718 62.875 79.8125 C67.65178055 86.2149334 72.47115997 92.58372936 77.3125 98.9375 C77.97040527 99.80157471 78.62831055 100.66564941 79.30615234 101.5559082 C80.26255615 102.8102063 80.26255615 102.8102063 81.23828125 104.08984375 C81.85783691 104.90308105 82.47739258 105.71631836 83.11572266 106.55419922 C84.40912 108.233035 85.71692469 109.90083968 87.03662109 111.55908203 C87.67809082 112.36587402 88.31956055 113.17266602 88.98046875 114.00390625 C89.85094849 115.0858728 89.85094849 115.0858728 90.73901367 116.18969727 C92 118 92 118 92 120 C86.54809142 121.37022702 81.33223576 122.20056919 76 120 C70.05488613 114.9075823 65.8713008 108.00645388 61.62988281 101.49853516 C59.81151027 98.71105394 57.87091022 96.03762916 55.875 93.375 C55.2975 92.57191406 54.72 91.76882813 54.125 90.94140625 C51.06914198 86.71151454 47.97102461 82.51304363 44.875 78.3125 C43.99497314 77.11729736 43.99497314 77.11729736 43.09716797 75.89794922 C39.42305556 70.91306117 35.72410868 65.94764735 32 61 C23.84035105 65.02756946 16.70281186 69.27354105 13 78 C10.26063227 91.56582227 11.44422784 106.25229375 12 120 C8.04 120 4.08 120 0 120 C0 80.4 0 40.8 0 0 Z " fill="#F7F7FB" transform="translate(135,571)"/>
<path d="M0 0 C1.14885681 0.00007553 1.14885681 0.00007553 2.32092285 0.00015259 C10.62928348 0.02550884 18.6637441 0.30232339 26.75 2.4375 C26.75 2.7675 26.75 3.0975 26.75 3.4375 C26.18782776 3.43305878 25.62565552 3.42861755 25.04644775 3.42404175 C19.14052906 3.37943871 13.23465902 3.34948184 7.32861328 3.32763672 C5.13100233 3.31764318 2.93340445 3.30404382 0.73583984 3.28662109 C-17.16102023 2.2942804 -17.16102023 2.2942804 -34.25 6.4375 C-35.64301984 6.59070381 -37.03972825 6.71145626 -38.4375 6.8125 C-41.68333814 7.13294899 -43.62551939 7.60136301 -46.6875 8.9375 C-51.19807898 10.83669115 -55.4030079 11.15467752 -60.25 11.4375 C-60.25 12.0975 -60.25 12.7575 -60.25 13.4375 C-60.90226562 13.61925781 -61.55453125 13.80101562 -62.2265625 13.98828125 C-67.20211056 15.41930171 -71.62967982 17.07099454 -76.25 19.4375 C-77.24 19.4375 -78.23 19.4375 -79.25 19.4375 C-79.25 20.0975 -79.25 20.7575 -79.25 21.4375 C-80.25546875 21.84742188 -81.2609375 22.25734375 -82.296875 22.6796875 C-86.2125478 24.36204943 -89.8511487 26.36744299 -93.5 28.5625 C-94.15258789 28.95501953 -94.80517578 29.34753906 -95.47753906 29.75195312 C-101.52331371 33.47014901 -106.86693618 37.82113942 -112.25 42.4375 C-113.14074219 43.13359375 -114.03148437 43.8296875 -114.94921875 44.546875 C-135.56484647 60.66294346 -151.11642931 83.46776116 -161.25 107.4375 C-161.98863281 109.15259766 -161.98863281 109.15259766 -162.7421875 110.90234375 C-177.92899917 149.04097533 -179.03324954 192.78010625 -165.25 231.4375 C-164.79296875 232.7734375 -164.3359375 234.109375 -163.87890625 235.4453125 C-156.97720015 255.14482138 -145.89650373 272.70077475 -132.25 288.4375 C-131.4971875 289.31277344 -130.744375 290.18804687 -129.96875 291.08984375 C-125.37740217 296.31800524 -120.64249512 301.04595297 -115.25 305.4375 C-114.52151855 306.04247314 -114.52151855 306.04247314 -113.77832031 306.65966797 C-95.8175576 321.52918023 -75.51850767 332.51726901 -53.25 339.4375 C-52.50911133 339.67098145 -51.76822266 339.90446289 -51.00488281 340.14501953 C-30.54031855 346.45631571 -9.53598051 347.1409214 11.75 346.4375 C12.96453857 346.39979492 12.96453857 346.39979492 14.20361328 346.36132812 C47.22615378 344.98743342 80.2760947 330.00201385 105.75 309.4375 C106.54615723 308.80158936 106.54615723 308.80158936 107.35839844 308.15283203 C130.92438545 289.2378448 147.99668491 264.49335389 158.95410156 236.47021484 C159.61530343 234.78151339 160.30070112 233.10230954 160.9921875 231.42578125 C164.29410375 223.06860563 166.03309548 214.2332116 167.75 205.4375 C167.93167725 204.57753418 168.11335449 203.71756836 168.30053711 202.83154297 C170.06123337 193.70672087 170.10607488 184.69389872 170.0625 175.4375 C170.06034485 174.61702179 170.0581897 173.79654358 170.05596924 172.95120239 C169.87887254 130.9593222 155.2401054 93.31336235 127.75 61.4375 C127.32460938 60.94362793 126.89921875 60.44975586 126.4609375 59.94091797 C120.11943002 52.63752248 113.44561068 46.34142573 105.75 40.4375 C104.86183594 39.72207031 103.97367187 39.00664062 103.05859375 38.26953125 C80.82949826 20.80160503 54.89863312 11.2446794 27.75 4.4375 C27.75 4.1075 27.75 3.7775 27.75 3.4375 C33.74609486 3.11338676 38.76194147 4.25108747 44.5 5.9375 C45.87502686 6.33799561 45.87502686 6.33799561 47.27783203 6.74658203 C67.8605241 12.94439696 86.68441648 22.42057177 103.75 35.4375 C104.64847656 36.11039063 105.54695313 36.78328125 106.47265625 37.4765625 C125.7111641 52.50755355 140.98893818 71.139246 152.75 92.4375 C153.26771973 93.3641748 153.26771973 93.3641748 153.79589844 94.30957031 C159.96847013 105.50134114 164.28154713 117.15091052 167.75 129.4375 C168.00974609 130.34483887 168.26949219 131.25217773 168.53710938 132.18701172 C176.05260447 159.66493691 175.42182219 191.093184 167.75 218.4375 C167.50942871 219.31792969 167.26885742 220.19835937 167.02099609 221.10546875 C164.17423117 231.32403743 160.57700891 240.97387463 155.75 250.4375 C155.42660645 251.08928223 155.10321289 251.74106445 154.77001953 252.41259766 C146.78947706 268.46669591 136.79720904 282.19392562 124.75 295.4375 C124.25693359 295.9826123 123.76386719 296.52772461 123.25585938 297.08935547 C96.35316326 326.43374451 54.7559947 347.34974503 14.75891113 349.546875 C9.58998624 349.75783929 4.42276091 349.80868372 -0.75 349.8125 C-1.81531952 349.81549103 -1.81531952 349.81549103 -2.90216064 349.81854248 C-32.2604345 349.80919244 -60.51272387 342.53933812 -86.25 328.4375 C-87.32894531 327.8496875 -88.40789062 327.261875 -89.51953125 326.65625 C-101.88992357 319.66912212 -112.72450745 310.9104433 -123.25 301.4375 C-124.01763672 300.75010742 -124.01763672 300.75010742 -124.80078125 300.04882812 C-145.84760067 280.91788013 -159.65654666 255.8990917 -169.25 229.4375 C-169.86294922 227.80361328 -169.86294922 227.80361328 -170.48828125 226.13671875 C-184.25537372 186.00484687 -179.40478181 138.2226779 -161.22705078 100.40234375 C-155.79944648 89.48746134 -149.50117594 79.23811766 -142.25 69.4375 C-141.62351562 68.58542969 -140.99703125 67.73335938 -140.3515625 66.85546875 C-129.40201971 52.76821112 -116.38172225 39.90527649 -101.25 30.4375 C-99.6410888 29.2564362 -98.03673622 28.06913168 -96.4375 26.875 C-85.13516634 18.99430681 -72.14949873 13.92931847 -59.28808594 9.2019043 C-57.98558996 8.71339029 -56.69070854 8.20372091 -55.40722656 7.66723633 C-38.30523218 0.671578 -18.26365642 -0.04823563 0 0 Z " fill="#C4C5E1" transform="translate(406.25,180.5625)"/>
<path d="M0 0 C0.66 0 1.32 0 2 0 C4.66666667 6.66666667 7.33333333 13.33333333 10 20 C10.31324219 20.78117188 10.62648438 21.56234375 10.94921875 22.3671875 C11.74869154 24.3703275 12.54182019 26.37600083 13.33203125 28.3828125 C13.82499006 29.63041818 14.31849586 30.87780786 14.8125 32.125 C15.06080566 32.75253174 15.30911133 33.38006348 15.56494141 34.02661133 C16.95729668 37.50925421 18.40884862 40.95546189 19.94140625 44.37890625 C20.26326904 45.09868652 20.58513184 45.8184668 20.91674805 46.56005859 C21.54290028 47.95019631 22.17560986 49.33740399 22.81567383 50.72119141 C24.35432076 54.13238774 25 56.18112511 25 60 C8.83 60 -7.34 60 -24 60 C-23.21058595 56.05292973 -22.37687848 53.23977746 -20.8125 49.625 C-19.05316915 45.5063353 -17.34638179 41.37631487 -15.70776367 37.20874023 C-12.06293722 27.94013717 -12.06293722 27.94013717 -10 24.0625 C-7.56564918 19.44950749 -5.88409373 14.52596818 -4.10546875 9.63305664 C-2.89788753 6.32299025 -1.67909932 3.10233589 0 0 Z " fill="#0A165F" transform="translate(476,588)"/>
<path d="M0 0 C1.9375 0.3125 1.9375 0.3125 4 1 C5.23045968 4.69137905 5.23283648 8.21327714 5.375 12.0625 C5.64164822 18.04502456 6.26929761 23.29233703 8.4765625 28.921875 C9.71684974 33.84600045 7.11916337 39.05405799 5.625 43.75 C5.41617187 44.41515625 5.20734375 45.0803125 4.9921875 45.765625 C4.78078125 46.4359375 4.569375 47.10625 4.3515625 47.796875 C4.13508057 48.49111572 3.91859863 49.18535645 3.69555664 49.90063477 C3.24266202 51.26758486 2.74857318 52.62177906 2.20874023 53.95678711 C-0.68958512 61.41481355 -0.79367794 69.16713366 -1.1875 77.0625 C-1.26905224 78.51503785 -1.35172579 79.96751319 -1.43554688 81.41992188 C-1.63662616 84.94598809 -1.82253365 88.47265718 -2 92 C-4.64 92 -7.28 92 -10 92 C-10.00410889 91.30777344 -10.00821777 90.61554688 -10.01245117 89.90234375 C-10.16836901 74.75461386 -11.42577443 60.63159413 -14.94140625 45.88671875 C-15.81324238 42.17948323 -16.25025195 38.83077992 -16 35 C-15.40832031 34.85304688 -14.81664062 34.70609375 -14.20703125 34.5546875 C-8.25905534 32.86635502 -5.44220331 31.16330497 -2 26 C-1.00544091 23.01632274 -0.80440368 20.7995808 -0.68359375 17.67578125 C-0.64169922 16.64775391 -0.59980469 15.61972656 -0.55664062 14.56054688 C-0.51732422 13.48869141 -0.47800781 12.41683594 -0.4375 11.3125 C-0.39431641 10.22904297 -0.35113281 9.14558594 -0.30664062 8.02929688 C-0.20053162 5.35299209 -0.09847639 2.67659474 0 0 Z " fill="#09134A" transform="translate(410,329)"/>
<path d="M0 0 C1.14885681 0.00007553 1.14885681 0.00007553 2.32092285 0.00015259 C10.62928348 0.02550884 18.6637441 0.30232339 26.75 2.4375 C26.75 2.7675 26.75 3.0975 26.75 3.4375 C26.18782776 3.43305878 25.62565552 3.42861755 25.04644775 3.42404175 C19.14052906 3.37943871 13.23465902 3.34948184 7.32861328 3.32763672 C5.13100233 3.31764318 2.93340445 3.30404382 0.73583984 3.28662109 C-17.16102023 2.2942804 -17.16102023 2.2942804 -34.25 6.4375 C-35.64301984 6.59070381 -37.03972825 6.71145626 -38.4375 6.8125 C-41.68333814 7.13294899 -43.62551939 7.60136301 -46.6875 8.9375 C-51.19807898 10.83669115 -55.4030079 11.15467752 -60.25 11.4375 C-60.25 12.0975 -60.25 12.7575 -60.25 13.4375 C-60.90226562 13.61925781 -61.55453125 13.80101562 -62.2265625 13.98828125 C-67.20211056 15.41930171 -71.62967982 17.07099454 -76.25 19.4375 C-77.24 19.4375 -78.23 19.4375 -79.25 19.4375 C-79.25 20.0975 -79.25 20.7575 -79.25 21.4375 C-80.25546875 21.84742188 -81.2609375 22.25734375 -82.296875 22.6796875 C-86.2125478 24.36204943 -89.8511487 26.36744299 -93.5 28.5625 C-94.15258789 28.95501953 -94.80517578 29.34753906 -95.47753906 29.75195312 C-101.52331371 33.47014901 -106.86693618 37.82113942 -112.25 42.4375 C-113.14074219 43.13359375 -114.03148437 43.8296875 -114.94921875 44.546875 C-135.56484647 60.66294346 -151.11642931 83.46776116 -161.25 107.4375 C-161.98863281 109.15259766 -161.98863281 109.15259766 -162.7421875 110.90234375 C-169.89704444 128.87033195 -173.93397535 148.16058076 -175.25 167.4375 C-175.30494629 168.23172363 -175.35989258 169.02594727 -175.41650391 169.84423828 C-175.74207557 174.7066847 -176.0158593 179.56983818 -176.25 184.4375 C-176.58 184.4375 -176.91 184.4375 -177.25 184.4375 C-178.54445916 141.66060333 -167.76111948 103.91807668 -142.25 69.4375 C-141.62351562 68.58542969 -140.99703125 67.73335938 -140.3515625 66.85546875 C-129.40201971 52.76821112 -116.38172225 39.90527649 -101.25 30.4375 C-99.6410888 29.2564362 -98.03673622 28.06913168 -96.4375 26.875 C-85.13516634 18.99430681 -72.14949873 13.92931847 -59.28808594 9.2019043 C-57.98558996 8.71339029 -56.69070854 8.20372091 -55.40722656 7.66723633 C-38.30523218 0.671578 -18.26365642 -0.04823563 0 0 Z " fill="#C5CAF5" transform="translate(406.25,180.5625)"/>
<path d="M0 0 C2.7534375 0.7425 2.7534375 0.7425 5.5625 1.5 C12.33317876 2.95628259 18.83191726 3.30357416 25.75 3.3125 C27.18581421 3.32023437 27.18581421 3.32023437 28.65063477 3.328125 C34.98852023 3.26696853 40.83104648 2.40152448 47 1 C48.99810662 0.65549886 50.99722415 0.31622777 53 0 C53 3.96 53 7.92 53 12 C35.51 12 18.02 12 0 12 C0 8.04 0 4.08 0 0 Z " fill="#1423A6" transform="translate(378,426)"/>
<path d="M0 0 C17.16 0 34.32 0 52 0 C52 2.64 52 5.28 52 8 C49.56762005 9.21618998 48.00860217 9.12688905 45.29077148 9.12939453 C44.31313339 9.13254669 43.3354953 9.13569885 42.32823181 9.13894653 C41.26987625 9.1369223 40.21152069 9.13489807 39.12109375 9.1328125 C38.03868912 9.13376923 36.95628448 9.13472595 35.84107971 9.13571167 C33.55038393 9.13639298 31.25968623 9.13454211 28.96899414 9.13037109 C25.44868672 9.12501701 21.92850659 9.13032044 18.40820312 9.13671875 C16.18749972 9.13605806 13.96679639 9.13477709 11.74609375 9.1328125 C10.15552406 9.13584885 10.15552406 9.13584885 8.53282166 9.13894653 C7.55833572 9.13579437 6.58384979 9.13264221 5.57983398 9.12939453 C4.71760727 9.12859894 3.85538055 9.12780334 2.96702576 9.12698364 C1 9 1 9 0 8 C0 5.36 0 2.72 0 0 Z " fill="#0A1AA6" transform="translate(378,464)"/>
<path d="M0 0 C5.99609486 -0.32411324 11.01194147 0.81358747 16.75 2.5 C17.66668457 2.76699707 18.58336914 3.03399414 19.52783203 3.30908203 C40.1105241 9.50689696 58.93441648 18.98307177 76 32 C76.89847656 32.67289063 77.79695313 33.34578125 78.72265625 34.0390625 C97.9611641 49.07005355 113.23893818 67.701746 125 89 C125.34514648 89.6177832 125.69029297 90.23556641 126.04589844 90.87207031 C136.82988984 110.42501623 145.43648306 134.41529413 144 157 C142.49745818 154.26699413 141.70494135 152.03169239 141.359375 148.9375 C141.26156738 148.15052734 141.16375977 147.36355469 141.06298828 146.55273438 C140.95970215 145.71033203 140.85641602 144.86792969 140.75 144 C136.35437076 111.83225418 121.04857077 82.40664868 100 58 C99.57460938 57.50612793 99.14921875 57.01225586 98.7109375 56.50341797 C92.36943002 49.20002248 85.69561068 42.90392573 78 37 C77.11183594 36.28457031 76.22367187 35.56914062 75.30859375 34.83203125 C53.07949826 17.36410503 27.14863312 7.8071794 0 1 C0 0.67 0 0.34 0 0 Z " fill="#C4C6E6" transform="translate(434,184)"/>
<path d="M0 0 C17.16 0 34.32 0 52 0 C52 2.64 52 5.28 52 8 C34.84 8 17.68 8 0 8 C0 5.36 0 2.72 0 0 Z " fill="#0A1BA0" transform="translate(378,447)"/>
<path d="M0 0 C8.46740023 2.0410151 17.93423059 6.49125798 25.05810547 11.49609375 C25.49560547 14.05859375 25.49560547 14.05859375 25.05810547 16.49609375 C24.39810547 17.15609375 23.73810547 17.81609375 23.05810547 18.49609375 C18.08541306 18.29718605 14.63454524 16.88809763 10.35888672 14.61328125 C4.43270755 11.73571377 -2.00068635 9.55159169 -8.56689453 8.87109375 C-11.94189453 8.49609375 -11.94189453 8.49609375 -13.94189453 6.49609375 C-14.25439453 3.99609375 -14.25439453 3.99609375 -13.94189453 1.49609375 C-9.42713618 -1.51374515 -5.26063808 -0.87295608 0 0 Z " fill="#EBEAF5" transform="translate(411.94189453125,286.50390625)"/>
<path d="M0 0 C0.66 0 1.32 0 2 0 C4.23008599 5.51915137 6.40057498 11.05469893 8.5 16.625 C10.1182261 20.85310905 11.86602421 24.88284981 13.953125 28.89453125 C15.31824041 31.64004322 16.54015936 34.43270255 17.75 37.25 C18.17796875 38.24515625 18.6059375 39.2403125 19.046875 40.265625 C20 43 20 43 20 47 C16.08399952 45.41517157 13.45888847 42.722085 10.5625 39.75 C9.63566406 38.81671875 8.70882813 37.8834375 7.75390625 36.921875 C7.29991455 36.43219238 6.84592285 35.94250977 6.37817383 35.43798828 C5.05534311 34.05774507 3.61409561 32.79403348 2.171875 31.5390625 C-1.81883461 26.66829349 -0.50499394 19.53012165 -0.3125 13.625 C-0.28994141 12.31660156 -0.26738281 11.00820313 -0.24414062 9.66015625 C-0.18535914 6.43893113 -0.10322731 3.2200568 0 0 Z " fill="#0E1759" transform="translate(280,600)"/>
<path d="M0 0 C2.5625 0.3125 2.5625 0.3125 4.19775391 1.42382812 C6.20903132 4.20723458 5.95117549 6.43913226 5.9609375 9.84375 C5.96480469 11.12894531 5.96867187 12.41414062 5.97265625 13.73828125 C5.96637207 14.40682129 5.96008789 15.07536133 5.95361328 15.76416016 C5.93755354 17.8056933 5.95346671 19.84524708 5.97265625 21.88671875 C5.96878906 23.17191406 5.96492188 24.45710938 5.9609375 25.78125 C5.95755371 26.96138672 5.95416992 28.14152344 5.95068359 29.35742188 C5.5625 32.3125 5.5625 32.3125 4.19775391 34.23242188 C2.5625 35.3125 2.5625 35.3125 0 35.125 C-2.4375 34.3125 -2.4375 34.3125 -4.4375 32.3125 C-4.69628906 29.36328125 -4.69628906 29.36328125 -4.703125 25.625 C-4.70503845 24.96669189 -4.7069519 24.30838379 -4.70892334 23.63012695 C-4.7102845 22.2381146 -4.70659283 20.84608953 -4.69824219 19.45410156 C-4.687541 17.32067411 -4.69813906 15.18808869 -4.7109375 13.0546875 C-4.70961589 11.70312314 -4.70705347 10.3515593 -4.703125 9 C-4.70086914 7.76636719 -4.69861328 6.53273437 -4.69628906 5.26171875 C-4.37173878 1.56307027 -3.74798953 0.48051148 0 0 Z " fill="#E4E4F5" transform="translate(403.4375,216.6875)"/>
<path d="M0 0 C5.62658801 0.46377786 9.21909709 2.66733759 13.8125 5.6875 C14.51375 6.14084717 15.215 6.59419434 15.9375 7.0612793 C17.32743793 7.96130264 18.71504712 8.86493437 20.10009766 9.77246094 C21.72593453 10.82292454 23.38182959 11.82661436 25.04296875 12.8203125 C25.85378906 13.31273437 26.66460937 13.80515625 27.5 14.3125 C28.53640625 14.92544922 28.53640625 14.92544922 29.59375 15.55078125 C31 17 31 17 31.34375 19.54296875 C31 22 31 22 29 24 C21.58498205 24.200949 16.09124835 19.70022179 10.125 15.75 C9.06796875 15.08097656 8.0109375 14.41195313 6.921875 13.72265625 C5.91898437 13.06652344 4.91609375 12.41039062 3.8828125 11.734375 C2.96902832 11.13850586 2.05524414 10.54263672 1.11376953 9.92871094 C-1 8 -1 8 -1.93017578 5.45410156 C-2 3 -2 3 0 0 Z " fill="#F0F0F5" transform="translate(485,378)"/>
<path d="M0 0 C2 2 2 2 2.33984375 4.45703125 C2 7 2 7 0.62890625 8.44921875 C-0.05300781 8.85785156 -0.73492188 9.26648438 -1.4375 9.6875 C-2.24574219 10.17863281 -3.05398438 10.66976563 -3.88671875 11.17578125 C-4.91410156 11.77777344 -5.94148438 12.37976563 -7 13 C-8.40350999 13.86660363 -9.80575922 14.73525105 -11.20703125 15.60546875 C-12.72042591 16.53016677 -14.23475696 17.45333392 -15.75 18.375 C-16.48275146 18.82834717 -17.21550293 19.28169434 -17.97045898 19.7487793 C-24.80718492 23.82303407 -24.80718492 23.82303407 -29 23 C-29.66 22.34 -30.32 21.68 -31 21 C-30.85086521 17.91788103 -30.4786218 16.46373134 -28.2421875 14.296875 C-27.46101563 13.78640625 -26.67984375 13.2759375 -25.875 12.75 C-24.98167969 12.16605469 -24.08835937 11.58210938 -23.16796875 10.98046875 C-21.59982422 10.00013672 -21.59982422 10.00013672 -20 9 C-19.38592285 8.60635254 -18.7718457 8.21270508 -18.13916016 7.80712891 C-16.16449426 6.54355881 -14.17857728 5.3000251 -12.1875 4.0625 C-11.55376465 3.66063477 -10.9200293 3.25876953 -10.26708984 2.84472656 C-6.75198794 0.7117178 -4.14572946 -0.72196725 0 0 Z " fill="#F0F0F6" transform="translate(514,273)"/>
<path d="M0 0 C3.76627478 0.79671197 3.97176239 1.18459543 6 4.25 C6.48210937 5.06082031 6.96421875 5.87164062 7.4609375 6.70703125 C8.85735874 9.03338367 10.29711174 11.23120138 11.8515625 13.44921875 C12.30821289 14.10656006 12.76486328 14.76390137 13.23535156 15.44116211 C14.15002139 16.75515634 15.07109866 18.06471725 15.99902344 19.36938477 C17.85750159 22.0891002 19.18274127 24.22811022 19.6640625 27.515625 C19.25 29.6875 19.25 29.6875 17.25 31.6875 C14.8359375 32.08203125 14.8359375 32.08203125 12.25 31.6875 C10.4765625 29.88671875 10.4765625 29.88671875 8.875 27.375 C7.98941406 26.01955078 7.98941406 26.01955078 7.0859375 24.63671875 C6.48007812 23.66347656 5.87421875 22.69023437 5.25 21.6875 C4.00161666 19.68649049 2.75166109 17.68646086 1.5 15.6875 C0.67242187 14.32625 0.67242187 14.32625 -0.171875 12.9375 C-1.71395018 10.4496016 -1.71395018 10.4496016 -4.75 8.6875 C-5.0625 5.6875 -5.0625 5.6875 -4.75 2.6875 C-2.75 0.6875 -2.75 0.6875 0 0 Z " fill="#EDECFA" transform="translate(340.75,230.3125)"/>
<path d="M0 0 C2.88549805 0.41040039 2.88549805 0.41040039 4.88549805 2.41040039 C4.55517407 6.30210624 3.18029662 8.91319704 1.04956055 12.13305664 C0.47979492 13.00124023 -0.0899707 13.86942383 -0.67700195 14.76391602 C-1.27512695 15.65788086 -1.87325195 16.5518457 -2.48950195 17.47290039 C-3.37508789 18.81964844 -3.37508789 18.81964844 -4.27856445 20.19360352 C-5.87460256 22.61102609 -7.47470761 25.02243999 -9.11450195 27.41040039 C-9.62062012 28.15733154 -10.12673828 28.9042627 -10.64819336 29.67382812 C-12.11450195 31.41040039 -12.11450195 31.41040039 -14.67700195 31.78540039 C-17.11450195 31.41040039 -17.11450195 31.41040039 -19.11450195 29.41040039 C-19.30170696 22.06999341 -14.93646449 16.81417424 -10.92700195 10.97290039 C-10.26635742 9.95518555 -9.60571289 8.9374707 -8.92504883 7.88891602 C-8.27213867 6.92791992 -7.61922852 5.96692383 -6.9465332 4.97680664 C-6.06058472 3.66111694 -6.06058472 3.66111694 -5.15673828 2.31884766 C-3.11450195 0.41040039 -3.11450195 0.41040039 0 0 Z " fill="#EDEDF5" transform="translate(467.114501953125,230.589599609375)"/>
<path d="M0 0 C0.66 0.66 1.32 1.32 2 2 C1.84622699 5.06655908 1.53378848 6.51368239 -0.76245117 8.60571289 C-1.51502197 9.0568042 -2.26759277 9.50789551 -3.04296875 9.97265625 C-3.86990234 10.47990234 -4.69683594 10.98714844 -5.54882812 11.50976562 C-6.41958984 12.02216797 -7.29035156 12.53457031 -8.1875 13.0625 C-9.88960528 14.09458655 -11.59143435 15.12712879 -13.29296875 16.16015625 C-14.50956177 16.88513306 -14.50956177 16.88513306 -15.75073242 17.62475586 C-17.70049329 18.81687602 -19.56944967 20.06847174 -21.4375 21.3828125 C-24 23 -24 23 -26.8125 22.8125 C-29 22 -29 22 -30 21 C-30.375 18.6875 -30.375 18.6875 -30 16 C-25.47479072 11.84723593 -20.10585026 8.5803005 -15 5.1875 C-14.11054688 4.57712891 -13.22109375 3.96675781 -12.3046875 3.33789062 C-11.44101562 2.76619141 -10.57734375 2.19449219 -9.6875 1.60546875 C-8.90761719 1.08106201 -8.12773437 0.55665527 -7.32421875 0.01635742 C-4.4104187 -1.25781796 -2.97965564 -1.00663199 0 0 Z " fill="#F3F2F7" transform="translate(323,379)"/>
<path d="M0 0 C3.57700573 0.34728211 6.15171094 1.45036542 9.1796875 3.328125 C10.32630859 4.03388672 10.32630859 4.03388672 11.49609375 4.75390625 C12.28113281 5.24761719 13.06617188 5.74132812 13.875 6.25 C15.04095703 6.96736328 15.04095703 6.96736328 16.23046875 7.69921875 C20.95565046 10.62962556 25.51085634 13.71993236 30 17 C29.25 21.75 29.25 21.75 27 24 C23.26053224 23.65944689 20.66293447 22.42108439 17.53125 20.41796875 C16.71269531 19.89783203 15.89414062 19.37769531 15.05078125 18.84179688 C14.20902344 18.29587891 13.36726563 17.74996094 12.5 17.1875 C11.23736328 16.38602539 11.23736328 16.38602539 9.94921875 15.56835938 C1.29342002 10.02728507 1.29342002 10.02728507 -2 7 C-2.4375 4.375 -2.4375 4.375 -2 2 C-1.34 1.34 -0.68 0.68 0 0 Z " fill="#EFEFF9" transform="translate(295,273)"/>
<path d="M0 0 C1.02075623 -0.00287018 1.02075623 -0.00287018 2.06213379 -0.00579834 C3.50122446 -0.00715963 4.94032744 -0.00346705 6.37939453 0.00488281 C8.58524087 0.01558372 10.79027281 0.00498628 12.99609375 -0.0078125 C14.39323097 -0.00649089 15.79036768 -0.00392848 17.1875 0 C18.46302734 0.00225586 19.73855469 0.00451172 21.05273438 0.00683594 C24.09375 0.265625 24.09375 0.265625 26.09375 2.265625 C26.34375 4.765625 26.34375 4.765625 26.09375 7.265625 C23.65297148 9.70640352 22.34492641 9.50178681 19.01390076 9.51786804 C18.32739944 9.51068253 17.64089813 9.50349701 16.93359375 9.49609375 C16.22852188 9.49563553 15.52345001 9.49517731 14.79701233 9.4947052 C13.30663368 9.49168363 11.81625816 9.4838001 10.32592773 9.47143555 C8.03683367 9.45316956 5.74814373 9.45092591 3.45898438 9.45117188 C2.01301731 9.44625706 0.56705301 9.4404289 -0.87890625 9.43359375 C-1.91169456 9.43192451 -1.91169456 9.43192451 -2.96534729 9.43022156 C-7.79019501 9.38167999 -7.79019501 9.38167999 -8.90625 8.265625 C-9.09375 5.328125 -9.09375 5.328125 -8.90625 2.265625 C-6.03758116 -0.60304384 -4.00969387 0.00709142 0 0 Z " fill="#F0F0F7" transform="translate(287.90625,333.734375)"/>
<path d="M0 0 C0.65593643 -0.00191345 1.31187286 -0.0038269 1.98768616 -0.00579834 C3.37550235 -0.00715968 4.7633313 -0.00346674 6.15112305 0.00488281 C8.27356686 0.01556666 10.395161 0.0049954 12.51757812 -0.0078125 C13.86588728 -0.00649056 15.21419591 -0.00392745 16.5625 0 C17.790896 0.00225586 19.01929199 0.00451172 20.28491211 0.00683594 C23.34765625 0.265625 23.34765625 0.265625 26.34765625 2.265625 C26.66015625 4.765625 26.66015625 4.765625 26.34765625 7.265625 C24.34765625 9.265625 24.34765625 9.265625 21.18310547 9.49267578 C19.83947662 9.49235889 18.49582215 9.48104681 17.15234375 9.4609375 C16.44490021 9.4581076 15.73745667 9.45527771 15.00857544 9.45236206 C12.74643115 9.44115637 10.4846811 9.41605179 8.22265625 9.390625 C6.69010988 9.38059567 5.15755731 9.37146974 3.625 9.36328125 C-0.13426676 9.34121586 -3.89323839 9.30668396 -7.65234375 9.265625 C-8.27734375 5.890625 -8.27734375 5.890625 -8.65234375 2.265625 C-5.82543211 -0.56128664 -3.95293327 0.00726594 0 0 Z " fill="#F0F0F5" transform="translate(503.65234375,333.734375)"/>
<path d="M0 0 C0.33 0 0.66 0 1 0 C1.0093457 0.63687744 1.01869141 1.27375488 1.02832031 1.92993164 C1.41930571 23.36321431 3.77922116 43.74813632 11 64 C11.45703125 65.3359375 11.9140625 66.671875 12.37109375 68.0078125 C19.29600621 87.7735592 30.43252872 105.13567334 44 121 C45.02241393 122.22785225 46.0435627 123.45676113 47.0625 124.6875 C48.0215625 125.8321875 48.0215625 125.8321875 49 127 C46 127 46 127 44.16015625 125.41015625 C27.44910529 106.70747166 15.56238449 85.48614789 7 62 C6.59007812 60.90816406 6.18015625 59.81632812 5.7578125 58.69140625 C-0.82016275 39.49289708 -1.62599647 20.04373003 0 0 Z " fill="#C2C3DC" transform="translate(230,348)"/>
<path d="M0 0 C0.33 0 0.66 0 1 0 C1 2.64 1 5.28 1 8 C1.95261719 7.71125 2.90523438 7.4225 3.88671875 7.125 C5.14097656 6.75375 6.39523437 6.3825 7.6875 6 C9.54955078 5.443125 9.54955078 5.443125 11.44921875 4.875 C15 4 15 4 20 4 C19.67 7.63 19.34 11.26 19 15 C12.25759184 18.26245556 7.80734362 19.43853128 0 21 C0 14.07 0 7.14 0 0 Z " fill="#11208E" transform="translate(417,399)"/>
<path d="M0 0 C0.66 0.66 1.32 1.32 2 2 C1.46890625 2.90621094 0.9378125 3.81242187 0.390625 4.74609375 C-3.45647474 11.35698781 -7.16587237 17.88094131 -10 25 C-10.44859375 26.05316406 -10.8971875 27.10632813 -11.359375 28.19140625 C-18.74643022 46.12518583 -22.68151866 65.68709565 -24 85 C-24.05494629 85.79422363 -24.10989258 86.58844727 -24.16650391 87.40673828 C-24.49207557 92.2691847 -24.7658593 97.13233818 -25 102 C-25.33 102 -25.66 102 -26 102 C-27.14290788 64.23129024 -19.02110566 32.43508266 0 0 Z " fill="#C6C8E3" transform="translate(255,263)"/>
<path d="M0 0 C0.33 0 0.66 0 1 0 C1.54513465 21.87080204 1.96098623 42.75353637 -4 64 C-4.24057129 64.88042969 -4.48114258 65.76085937 -4.72900391 66.66796875 C-7.57938242 76.89950851 -11.20122104 86.5118605 -16 96 C-16.495 96.99 -16.495 96.99 -17 98 C-17.66 98 -18.32 98 -19 98 C-17.74166436 94.00803865 -16.25363988 90.18326987 -14.58886719 86.34399414 C-10.46870596 76.77231948 -7.37670986 67.14152901 -5 57 C-4.84015625 56.33581055 -4.6803125 55.67162109 -4.515625 54.98730469 C-1.65757134 42.60035231 -1.52311203 29.99976729 -1.29003906 17.34741211 C-1.2763327 16.64492844 -1.26262634 15.94244476 -1.24850464 15.21867371 C-1.21305918 13.28747219 -1.18514711 11.35613665 -1.15771484 9.42480469 C-1.00932583 6.20251204 -0.60387097 3.16532566 0 0 Z " fill="#B7B6CC" transform="translate(578,335)"/>
<path d="M0 0 C3.97223119 2.81667302 7.7434587 5.6091586 11.0625 9.1875 C25.77245317 24.19362672 46.37203739 35.05082684 66 42 C67.10988281 42.40992188 68.21976562 42.81984375 69.36328125 43.2421875 C71.9033533 44.17817339 74.44772973 45.09795022 77 46 C77 46.33 77 46.66 77 47 C71.25385337 47.50047084 66.95957923 45.76905455 61.75 43.625 C60.8739209 43.26776855 59.9978418 42.91053711 59.09521484 42.54248047 C37.18845841 33.36569879 16.19266295 19.51943608 0 2 C0 1.34 0 0.68 0 0 Z " fill="#C4C7E1" transform="translate(278,475)"/>
<path d="M0 0 C17.16 0 34.32 0 52 0 C52 0.33 52 0.66 52 1 C35.17 1 18.34 1 1 1 C1.33 2.98 1.66 4.96 2 7 C18.17 6.67 34.34 6.34 51 6 C50.67 6.99 50.34 7.98 50 9 C43.03996553 9.02526838 36.0799428 9.04283222 29.11987305 9.05493164 C26.75007688 9.05997341 24.38028385 9.06680665 22.01049805 9.07543945 C18.61245961 9.0875119 15.21446215 9.09322971 11.81640625 9.09765625 C10.74975235 9.10281754 9.68309845 9.10797882 8.5841217 9.11329651 C7.60318039 9.11337204 6.62223907 9.11344757 5.61157227 9.11352539 C4.74331314 9.115746 3.87505402 9.11796661 2.98048401 9.12025452 C1 9 1 9 0 8 C0 5.36 0 2.72 0 0 Z " fill="#3440B8" transform="translate(378,464)"/>
<path d="M0 0 C0 0.33 0 0.66 0 1 C-0.56879883 0.96970703 -1.13759766 0.93941406 -1.72363281 0.90820312 C-45.72602624 -1.82665902 -45.72602624 -1.82665902 -89.3125 2.6875 C-90.199375 2.790625 -91.08625 2.89375 -92 3 C-92.66 2.34 -93.32 1.68 -94 1 C-86.19393853 -0.42159168 -78.28250513 -1.02619529 -70.38964844 -1.77246094 C-68.43874705 -1.95822311 -66.48875479 -2.15351249 -64.5390625 -2.3515625 C-43.28760833 -4.30379582 -21.0551435 -3.36760941 0 0 Z " fill="#4F6AE8" transform="translate(370,56)"/>
<path d="M0 0 C0.33 0 0.66 0 1 0 C1.0093457 0.63687744 1.01869141 1.27375488 1.02832031 1.92993164 C1.39697349 22.13899269 4.03713929 41.41173917 9 61 C8.01 61.495 8.01 61.495 7 62 C-0.44118797 41.73463701 -1.73242611 21.3556929 0 0 Z " fill="#AEB2D2" transform="translate(230,348)"/>
<path d="M0 0 C0.74958984 0.01353516 1.49917969 0.02707031 2.27148438 0.04101562 C4.11879767 0.07631461 5.96574066 0.13012083 7.8125 0.1875 C7.8125 0.5175 7.8125 0.8475 7.8125 1.1875 C7.00925293 1.06173584 6.20600586 0.93597168 5.37841797 0.80639648 C-1.27870386 0.44870461 -5.42383229 1.20215191 -10.53027344 5.45751953 C-15.27381727 9.83068385 -19.66691374 14.53188351 -24.0625 19.25 C-25.63363819 20.88642678 -27.20783381 22.5199239 -28.78515625 24.15039062 C-32.62191628 28.12959376 -36.4190786 32.14357604 -40.1875 36.1875 C-40.8475 35.8575 -41.5075 35.5275 -42.1875 35.1875 C-41.70917725 34.71441406 -41.23085449 34.24132812 -40.73803711 33.75390625 C-38.5309466 31.56785594 -36.32796367 29.37770871 -34.125 27.1875 C-33.37283203 26.44371094 -32.62066406 25.69992187 -31.84570312 24.93359375 C-27.6223705 20.72854395 -23.56511831 16.44950572 -19.69750977 11.9140625 C-18.24619075 10.25460768 -16.83435136 8.65461814 -15.1875 7.1875 C-14.5275 7.1875 -13.8675 7.1875 -13.1875 7.1875 C-12.919375 6.589375 -12.65125 5.99125 -12.375 5.375 C-9.30551106 -0.27932173 -6.15090389 -0.20950677 0 0 Z " fill="#D5D8ED" transform="translate(216.1875,570.8125)"/>
<path d="M0 0 C9.15883801 13.73825702 13.03528582 35.7230063 12 52 C10.49745818 49.26699413 9.70494135 47.03169239 9.359375 43.9375 C9.21230103 42.75631592 9.21230103 42.75631592 9.06225586 41.55126953 C8.90768921 40.28839111 8.90768921 40.28839111 8.75 39 C7.14681058 27.1103177 3.82846423 15.82039325 -0.24609375 4.5546875 C-1 2 -1 2 0 0 Z " fill="#C9C8DE" transform="translate(566,289)"/>
<path d="M0 0 C0.33 0.66 0.66 1.32 1 2 C-0.23167962 4.56322516 -1.51698528 6.98099405 -2.9375 9.4375 C-3.35209473 10.16106689 -3.76668945 10.88463379 -4.19384766 11.63012695 C-10.63858926 22.70725728 -18.64502175 32.33955639 -27 42 C-27.99 41.67 -28.98 41.34 -30 41 C-29.00033203 39.9790625 -29.00033203 39.9790625 -27.98046875 38.9375 C-17.6693083 28.18065569 -9.53635653 16.12562896 -2.2421875 3.16015625 C-1 1 -1 1 0 0 Z " fill="#BFC1D9" transform="translate(559,433)"/>
<path d="M0 0 C0 3.63 0 7.26 0 11 C-2.64 11 -5.28 11 -8 11 C-8 7.7 -8 4.4 -8 1 C-4 0 -4 0 0 0 Z " fill="#0A1DA0" transform="translate(408,410)"/>
<path d="M0 0 C0.66 0.33 1.32 0.66 2 1 C1.25556641 1.72703125 1.25556641 1.72703125 0.49609375 2.46875 C-10.20527975 13.02798001 -19.40418974 24.67933862 -28 37 C-28.33 36.34 -28.66 35.68 -29 35 C-22.4251131 21.53129512 -10.65260686 10.28172306 0 0 Z " fill="#CACCF4" transform="translate(285,227)"/>
<path d="M0 0 C3.99348901 0.64285433 7.05021617 2.70549646 10.375 4.875 C10.98061768 5.26776123 11.58623535 5.66052246 12.21020508 6.06518555 C16.84903124 9.12765934 21.30415418 12.39577964 25.6875 15.8125 C26.27515137 16.26802246 26.86280273 16.72354492 27.46826172 17.19287109 C30.43122204 19.54884511 32.90995589 21.83169992 35 25 C31.0661385 25 30.51435129 23.84233851 27.75 21.125 C23.51504456 17.18854362 19.13693769 13.87067117 14.3125 10.6875 C13.69536133 10.27967285 13.07822266 9.8718457 12.44238281 9.45166016 C8.37924933 6.80834561 4.227243 4.37138022 0 2 C0 1.34 0 0.68 0 0 Z " fill="#BEC1E3" transform="translate(488,203)"/>
<path d="M0 0 C1.67542976 0.28604898 3.34385343 0.61781233 5 1 C4.33333333 7 3.66666667 13 3 19 C2.34 19 1.68 19 1 19 C-1.1310677 13.0063721 -1.47201787 7.34479831 -1 1 C-0.67 0.67 -0.34 0.34 0 0 Z " fill="#171C66" transform="translate(425,341)"/>
<path d="M0 0 C1.32 0 2.64 0 4 0 C5.32229189 2.64458379 5.09677194 4.67761301 5.0625 7.625 C5.05347656 8.62789063 5.04445313 9.63078125 5.03515625 10.6640625 C5.02355469 11.43492187 5.01195312 12.20578125 5 13 C1.34683329 11.75023244 0.21934164 11.32901247 -2 8 C-2.25 4.9375 -2.25 4.9375 -2 2 C-1.34 1.34 -0.68 0.68 0 0 Z " fill="#202A73" transform="translate(378,340)"/>
<path d="M0 0 C1.36009083 0.37292539 2.71803707 0.75372491 4.07421875 1.140625 C14.50046634 3.88589209 25.03566852 4.65430343 35.76171875 5.390625 C35.76171875 5.720625 35.76171875 6.050625 35.76171875 6.390625 C23.6881269 8.05096947 13.48687394 6.3550982 1.76171875 3.390625 C0.6013208 3.10179443 0.6013208 3.10179443 -0.58251953 2.80712891 C-2.4684369 2.33761795 -4.35345847 1.86451105 -6.23828125 1.390625 C-3.23828125 -0.609375 -3.23828125 -0.609375 0 0 Z " fill="#C2C3DE" transform="translate(358.23828125,521.609375)"/>
<path d="M0 0 C6.6 0 13.2 0 20 0 C20 0.66 20 1.32 20 2 C16.33865386 3.67451765 13.4576529 4.27236525 9.4375 4.25 C8.50808594 4.25515625 7.57867187 4.2603125 6.62109375 4.265625 C3.9445538 3.99438101 2.29561718 3.36116595 0 2 C0 1.34 0 0.68 0 0 Z " fill="#3944B9" transform="translate(394,481)"/>
<path d="M0 0 C0.33 0 0.66 0 1 0 C1 8.25 1 16.5 1 25 C-8 25 -8 25 -12 23 C-12 22.67 -12 22.34 -12 22 C-8.04 21.34 -4.08 20.68 0 20 C0 13.4 0 6.8 0 0 Z " fill="#323A90" transform="translate(390,394)"/>
<path d="M0 0 C4.55555556 0.55555556 4.55555556 0.55555556 6 2 C6.1875 4.4375 6.1875 4.4375 6 7 C5.34 7.66 4.68 8.32 4 9 C-0.55555556 8.44444444 -0.55555556 8.44444444 -2 7 C-2.1875 4.5625 -2.1875 4.5625 -2 2 C-1.34 1.34 -0.68 0.68 0 0 Z " fill="#E2E3EC" transform="translate(444,313)"/>
<path d="M0 0 C-2.36069916 2.36069916 -2.97713825 2.25515587 -6.1875 2.4375 C-9.58593319 2.72568713 -11.40956358 3.18359746 -14.625 4.625 C-18.588879 6.23991367 -20.88035116 5.92481913 -25 5 C-17.55290278 0.03526852 -8.75298759 -1.90282339 0 0 Z " fill="#B3B8F4" transform="translate(374,185)"/>
<path d="M0 0 C0.66 0.66 1.32 1.32 2 2 C1.46890625 2.90621094 0.9378125 3.81242187 0.390625 4.74609375 C-3.46009914 11.36839296 -7.06515737 17.90746364 -10 25 C-10.66 24.67 -11.32 24.34 -12 24 C-10.53398626 19.0751101 -8.4482205 14.79646907 -6 10.3125 C-5.64421875 9.64927734 -5.2884375 8.98605469 -4.921875 8.30273438 C-3.38103452 5.4481549 -1.80058312 2.70087468 0 0 Z " fill="#BBBEEA" transform="translate(255,263)"/>
<path d="M0 0 C0.66 0.33 1.32 0.66 2 1 C-0.80331466 3.91337551 -3.73189784 6.41523131 -6.9375 8.875 C-9.8980986 11.20180476 -12.51440421 13.38893923 -14.8125 16.375 C-17.105413 19.1264956 -18.60072992 20.02877998 -22 21 C-22 19 -22 19 -20.56640625 17.5546875 C-19.90511719 17.00039062 -19.24382812 16.44609375 -18.5625 15.875 C-15.44237703 13.22510833 -12.35888243 10.54708826 -9.3125 7.8125 C-6.27931787 5.10992423 -3.2138887 2.4881719 0 0 Z " fill="#5F79EE" transform="translate(173,99)"/>
<path d="M0 0 C0.99 0.33 1.98 0.66 3 1 C0.12758353 3.95905548 -2.86514384 6.64581851 -6.0625 9.25 C-6.91972656 9.95640625 -7.77695312 10.6628125 -8.66015625 11.390625 C-11 13 -11 13 -14 13 C-10.06515575 7.96220698 -5.72615472 3.02790271 0 0 Z " fill="#B6BCF5" transform="translate(300,214)"/>
<path d="M0 0 C0.92232422 0.00451172 1.84464844 0.00902344 2.79492188 0.01367188 C5.05085048 0.02536062 7.30663967 0.04174545 9.5625 0.0625 C9.5625 0.3925 9.5625 0.7225 9.5625 1.0625 C8.34433594 1.12308594 7.12617188 1.18367188 5.87109375 1.24609375 C4.24738723 1.33056403 2.62368978 1.41520872 1 1.5 C0.20013672 1.53931641 -0.59972656 1.57863281 -1.42382812 1.61914062 C-7.28737314 1.9302675 -12.99134958 2.5548084 -18.75 3.75 C-19.636875 3.853125 -20.52375 3.95625 -21.4375 4.0625 C-22.0975 3.4025 -22.7575 2.7425 -23.4375 2.0625 C-21.43883314 1.72126419 -19.43847458 1.3899322 -17.4375 1.0625 C-16.426875 0.8871875 -15.41625 0.711875 -14.375 0.53125 C-9.55745073 -0.04226777 -4.84525617 -0.04534797 0 0 Z " fill="#415CF2" transform="translate(299.4375,54.9375)"/>
<path d="M0 0 C2.1489362 3.22340429 3.34749944 6.24279217 4.6875 9.875 C5.14511719 11.08929688 5.60273437 12.30359375 6.07421875 13.5546875 C6.9906141 16.96507018 7.04072906 18.6822819 6 22 C4.45060065 19.10155466 3.40475307 16.28180148 2.5 13.125 C1.65600946 10.20548171 0.7731674 7.36486872 -0.25 4.5 C-1 2 -1 2 0 0 Z " fill="#B6B6D5" transform="translate(566,289)"/>
<path d="M0 0 C4.24211059 1.66397558 7.03622424 4.70471775 10.1875 7.875 C10.73341797 8.40480469 11.27933594 8.93460938 11.84179688 9.48046875 C14.60913343 12.24437614 16.28314457 14.15575291 17 18 C10.45448081 12.65671903 5.01537626 6.79794974 0 0 Z " fill="#D0D1E9" transform="translate(522,228)"/>
<path d="M0 0 C0.66 0.33 1.32 0.66 2 1 C-3.28 6.28 -8.56 11.56 -14 17 C-14 11.79027084 -9.49956486 8.58109594 -6 5 C-4.05399166 3.22905099 -2.08162714 1.61326103 0 0 Z " fill="#D6D5EC" transform="translate(361,282)"/>
<path d="M0 0 C-2.93150118 1.54718118 -5.8459389 2.73069977 -9 3.75 C-9.845625 4.03359375 -10.69125 4.3171875 -11.5625 4.609375 C-14.44328878 5.07103987 -15.5820659 4.54479123 -18 3 C-15.94237091 2.29805625 -13.87863969 1.61398303 -11.8125 0.9375 C-10.66394531 0.55464844 -9.51539063 0.17179688 -8.33203125 -0.22265625 C-5.02545492 -0.99406151 -3.20917686 -0.96093996 0 0 Z " fill="#AEB1D9" transform="translate(466,519)"/>
<path d="M0 0 C0.74362793 0.05236816 1.48725586 0.10473633 2.25341797 0.15869141 C3.05908203 0.21025391 3.86474609 0.26181641 4.69482422 0.31494141 C5.95746094 0.41162109 5.95746094 0.41162109 7.24560547 0.51025391 C8.09509766 0.56697266 8.94458984 0.62369141 9.81982422 0.68212891 C11.92073997 0.82376368 14.02077881 0.97829717 16.12060547 1.13525391 C16.12060547 1.46525391 16.12060547 1.79525391 16.12060547 2.13525391 C13.72519279 2.33110526 11.32967773 2.51717497 8.93310547 2.69775391 C7.92280273 2.78186523 7.92280273 2.78186523 6.89208984 2.86767578 C3.10347447 3.14489154 -0.19767247 3.10036551 -3.87939453 2.13525391 C-1.87939453 0.13525391 -1.87939453 0.13525391 0 0 Z " fill="#9C9ECD" transform="translate(377.87939453125,525.86474609375)"/>
<path d="M0 0 C-1 2 -1 2 -2.85546875 2.6328125 C-7.31497489 3.5740148 -11.41164496 4.23530026 -16 4 C-11.17353323 0.78235549 -5.80178176 -0.36261136 0 0 Z " fill="#C6C7E4" transform="translate(450,523)"/>
<path d="M0 0 C0 0.66 0 1.32 0 2 C-4.32734391 4.22923777 -7.28400182 3.92470553 -12 3 C-4.82142857 -1.78571429 -4.82142857 -1.78571429 0 0 Z " fill="#98A1F3" transform="translate(361,187)"/>
<path d="M0 0 C-1.95467752 1.33898399 -3.9133579 2.67129047 -5.875 4 C-6.96554687 4.7425 -8.05609375 5.485 -9.1796875 6.25 C-12 8 -12 8 -14 8 C-12.74539271 4.23617813 -11.47381388 3.74958162 -8.125 1.75 C-7.24070312 1.20859375 -6.35640625 0.6671875 -5.4453125 0.109375 C-3 -1 -3 -1 0 0 Z " fill="#CBCEF8" transform="translate(316,207)"/>
<path d="M0 0 C2.50356732 3.75535098 1.9608592 4.86889414 1.125 9.1875 C0.92132813 10.27417969 0.71765625 11.36085938 0.5078125 12.48046875 C0.34023437 13.31191406 0.17265625 14.14335937 0 15 C-2.50356732 11.24464902 -1.9608592 10.13110586 -1.125 5.8125 C-0.92132813 4.72582031 -0.71765625 3.63914062 -0.5078125 2.51953125 C-0.34023437 1.68808594 -0.17265625 0.85664063 0 0 Z " fill="#A6AAD6" transform="translate(234,310)"/>
<path d="M0 0 C0.86044922 0.54914063 0.86044922 0.54914063 1.73828125 1.109375 C-2.65423708 3.12993343 -6.41512798 4.51832735 -11.26171875 5.109375 C-10.01306275 2.61206301 -8.89607499 2.14862764 -6.44921875 0.859375 C-5.76214844 0.48296875 -5.07507813 0.1065625 -4.3671875 -0.28125 C-2.26171875 -0.890625 -2.26171875 -0.890625 0 0 Z " fill="#B5BBF7" transform="translate(325.26171875,200.890625)"/>
<path d="M0 0 C0.66 0.33 1.32 0.66 2 1 C-0.80627778 5.74908547 -3.25091453 8.19372222 -8 11 C-6.63629701 8.00779732 -5.05091917 5.70973471 -2.875 3.25 C-2.33617187 2.63640625 -1.79734375 2.0228125 -1.2421875 1.390625 C-0.62730469 0.70226562 -0.62730469 0.70226562 0 0 Z " fill="#677EEE" transform="translate(149,120)"/>
<path d="M0 0 C1.53690745 2.41040161 2.09752136 3.50082285 1.5390625 6.359375 C1.23742187 7.14828125 0.93578125 7.9371875 0.625 8.75 C0.32851562 9.54921875 0.03203125 10.3484375 -0.2734375 11.171875 C-0.51320312 11.77515625 -0.75296875 12.3784375 -1 13 C-1.33 13 -1.66 13 -2 13 C-1.85769192 11.58297487 -1.71099254 10.1663904 -1.5625 8.75 C-1.48128906 7.96109375 -1.40007812 7.1721875 -1.31640625 6.359375 C-1.02365007 4.17635361 -0.57935581 2.1226818 0 0 Z " fill="#BBBDE1" transform="translate(237,300)"/>
<path d="M0 0 C4.571279 0.54855348 8.67435795 1.41744803 13 3 C11.296875 4.1171875 11.296875 4.1171875 9 5 C6.640625 4.3203125 6.640625 4.3203125 4.25 3.125 C3.45078125 2.73570312 2.6515625 2.34640625 1.828125 1.9453125 C0.92320312 1.47738281 0.92320312 1.47738281 0 1 C0 0.67 0 0.34 0 0 Z " fill="#B8BCDC" transform="translate(327,512)"/>
<path d="M0 0 C3.80984844 2.77079887 4.06840752 6.62868145 5 11 C4.34 11 3.68 11 3 11 C0 4.5 0 4.5 0 0 Z " fill="#B8BAD4" transform="translate(238,409)"/>
<path d="M0 0 C0.94875 0.04125 1.8975 0.0825 2.875 0.125 C2.25625 0.41375 1.6375 0.7025 1 1 C-1.25825765 2.06220042 -1.25825765 2.06220042 -3.125 4.125 C-3.29187448 6.70854218 -3.29187448 6.70854218 -3.125 9.125 C-3.785 8.795 -4.445 8.465 -5.125 8.125 C-5.25 5.25 -5.25 5.25 -5.125 2.125 C-3.125 0.125 -3.125 0.125 0 0 Z " fill="#A4AAE8" transform="translate(341.125,230.875)"/>
<path d="M0 0 C2.40072955 2.88087546 4.47291037 5.56404834 6 9 C5.01 9 4.02 9 3 9 C0.50022457 5.66696609 0 4.26696398 0 0 Z " fill="#B6B8D7" transform="translate(255,444)"/>
<path d="M0 0 C1.88391785 3.26545761 2.49287967 6.28111761 3 10 C2.01 10.495 2.01 10.495 1 11 C-1.125 3.375 -1.125 3.375 0 0 Z " fill="#A5A8C7" transform="translate(236,399)"/>
<path d="M0 0 C2.79908133 2.79908133 2.72362983 5.13081763 3 9 C2.34 9.66 1.68 10.32 1 11 C-0.17571451 7.32589215 -0.07366746 3.83070817 0 0 Z " fill="#465EC8" transform="translate(95,276)"/>
<path d="M0 0 C0.33 0 0.66 0 1 0 C1 1.98 1 3.96 1 6 C-0.98 6.99 -0.98 6.99 -3 8 C-1.125 1.125 -1.125 1.125 0 0 Z " fill="#2F3C87" transform="translate(370,596)"/>
</svg>
