<svg width="33" height="32" viewBox="0 0 33 32" fill="none" xmlns="http://www.w3.org/2000/svg">
<path d="M23.4732 28.6932C23.2199 28.6932 22.9666 28.5999 22.7666 28.3999C22.3799 28.0132 22.3799 27.3732 22.7666 26.9866L27.4866 22.2666C27.8732 21.8799 28.5132 21.8799 28.8999 22.2666C29.2866 22.6532 29.2866 23.2932 28.8999 23.6799L24.1799 28.3999C23.9932 28.5866 23.7266 28.6932 23.4732 28.6932Z" fill="#242133"/>
<path d="M28.1932 28.6932C27.9399 28.6932 27.6866 28.5999 27.4866 28.3999L22.7666 23.6799C22.3799 23.2932 22.3799 22.6532 22.7666 22.2666C23.1532 21.8799 23.7932 21.8799 24.1799 22.2666L28.8999 26.9866C29.2866 27.3732 29.2866 28.0132 28.8999 28.3999C28.6999 28.5866 28.4466 28.6932 28.1932 28.6932Z" fill="#242133"/>
<path d="M9.83398 19C9.28732 19 8.83398 18.5467 8.83398 18V14C8.83398 13.4533 9.28732 13 9.83398 13C10.3807 13 10.834 13.4533 10.834 14V18C10.834 18.5467 10.3807 19 9.83398 19Z" fill="#242133"/>
<path d="M16.5 19C15.9533 19 15.5 18.5467 15.5 18V14C15.5 13.4533 15.9533 13 16.5 13C17.0467 13 17.5 13.4533 17.5 14V18C17.5 18.5467 17.0467 19 16.5 19Z" fill="#242133"/>
<path d="M23.166 19C22.6193 19 22.166 18.5467 22.166 18V14C22.166 13.4533 22.6193 13 23.166 13C23.7127 13 24.166 13.4533 24.166 14V18C24.166 18.5467 23.7127 19 23.166 19Z" fill="#242133"/>
<path d="M17.8327 30.3334H12.4993C5.25935 30.3334 2.16602 27.2401 2.16602 20.0001V12.0001C2.16602 4.76008 5.25935 1.66675 12.4993 1.66675H20.4993C27.7393 1.66675 30.8327 4.76008 30.8327 12.0001V17.3334C30.8327 17.8801 30.3794 18.3334 29.8327 18.3334C29.286 18.3334 28.8327 17.8801 28.8327 17.3334V12.0001C28.8327 5.85341 26.646 3.66675 20.4993 3.66675H12.4993C6.35268 3.66675 4.16602 5.85341 4.16602 12.0001V20.0001C4.16602 26.1467 6.35268 28.3334 12.4993 28.3334H17.8327C18.3793 28.3334 18.8327 28.7867 18.8327 29.3334C18.8327 29.8801 18.3793 30.3334 17.8327 30.3334Z" fill="#242133"/>
</svg>
