<svg width="12" height="12" viewBox="0 0 12 12" fill="none" xmlns="http://www.w3.org/2000/svg">
<g clip-path="url(#clip0_32857_3435)">
<path d="M5.99954 6C6.3951 6 6.78178 5.8827 7.11068 5.66294C7.43958 5.44318 7.69592 5.13082 7.8473 4.76537C7.99867 4.39991 8.03828 3.99778 7.96111 3.60982C7.88394 3.22186 7.69346 2.86549 7.41375 2.58579C7.13405 2.30608 6.77768 2.1156 6.38972 2.03843C6.00176 1.96126 5.59963 2.00087 5.23417 2.15224C4.86872 2.30362 4.55636 2.55996 4.3366 2.88886C4.11684 3.21776 3.99954 3.60444 3.99954 4C3.99954 4.53043 4.21025 5.03914 4.58533 5.41421C4.9604 5.78929 5.46911 6 5.99954 6ZM5.99954 3C6.19732 3 6.39066 3.05865 6.55511 3.16853C6.71956 3.27841 6.84773 3.43459 6.92342 3.61732C6.99911 3.80004 7.01891 4.00111 6.98033 4.19509C6.94174 4.38907 6.8465 4.56725 6.70665 4.70711C6.56679 4.84696 6.38861 4.9422 6.19463 4.98079C6.00065 5.01937 5.79958 4.99957 5.61686 4.92388C5.43413 4.84819 5.27795 4.72002 5.16807 4.55557C5.05819 4.39112 4.99954 4.19778 4.99954 4C4.99954 3.73478 5.1049 3.48043 5.29243 3.29289C5.47997 3.10536 5.73432 3 5.99954 3ZM10.3295 4.5785L9.97004 4.459C10.0347 3.89896 9.98031 3.33157 9.81034 2.79404C9.64037 2.25651 9.3587 1.76098 8.98379 1.33995C8.60888 0.91891 8.1492 0.58188 7.6349 0.350957C7.12061 0.120034 6.5633 0.000433741 5.99954 0C5.42842 0.000220485 4.86398 0.122847 4.34425 0.359618C3.82452 0.596388 3.36157 0.941802 2.9866 1.37259C2.61163 1.80337 2.33334 2.30952 2.17049 2.85693C2.00764 3.40435 1.96401 3.9803 2.04254 4.546C1.56406 4.63522 1.1216 4.86096 0.76854 5.196C0.524126 5.42837 0.329824 5.70828 0.197579 6.01852C0.0653332 6.32875 -0.00206097 6.66276 -0.000460428 7V9.0375C0.00059037 9.57817 0.176436 10.104 0.500835 10.5365C0.825234 10.9691 1.2808 11.2851 1.79954 11.4375L3.23454 11.8875C3.47557 11.9625 3.72661 12.0004 3.97904 12C4.20803 11.9997 4.43594 11.9684 4.65654 11.907L7.54654 11.052C7.804 10.9817 8.07558 10.9817 8.33304 11.052L9.52654 11.452C9.82069 11.5236 10.1273 11.5275 10.4231 11.4634C10.719 11.3993 10.9964 11.2688 11.2346 11.0819C11.4727 10.8949 11.6653 10.6564 11.7978 10.3842C11.9303 10.112 11.9993 9.81324 11.9995 9.5105V6.936C11.9984 6.4187 11.8373 5.91442 11.5383 5.49227C11.2394 5.07012 10.8171 4.75077 10.3295 4.578V4.5785ZM3.87854 1.881C4.15667 1.60174 4.48721 1.38016 4.85118 1.22897C5.21516 1.07777 5.60541 0.99994 5.99954 0.99994C6.39367 0.99994 6.78392 1.07777 7.1479 1.22897C7.51188 1.38016 7.84241 1.60174 8.12054 1.881C8.68162 2.44557 8.997 3.20891 8.99803 4.00487C8.99906 4.80083 8.68566 5.56498 8.12604 6.131L6.34954 7.8585C6.25682 7.94941 6.13214 8.00033 6.00229 8.00033C5.87244 8.00033 5.74776 7.94941 5.65504 7.8585L3.87854 6.1385C3.31628 5.57269 3.00069 4.80742 3.00069 4.00975C3.00069 3.21208 3.31628 2.44681 3.87854 1.881ZM10.9995 9.5105C10.9998 9.66194 10.9656 9.81145 10.8994 9.94766C10.8332 10.0839 10.7368 10.2032 10.6175 10.2965C10.5048 10.3871 10.3736 10.4518 10.2331 10.4859C10.0926 10.52 9.94624 10.5228 9.80454 10.494L8.63204 10.1C8.18854 9.97259 7.71851 9.96982 7.27354 10.092L4.38154 10.946C4.10368 11.0226 3.80962 11.0176 3.53454 10.9315L2.08754 10.4815C1.77437 10.3909 1.49902 10.2012 1.30284 9.94086C1.10666 9.68049 1.00023 9.36351 0.99954 9.0375V7C0.998416 6.79789 1.03864 6.59769 1.11775 6.4117C1.19686 6.22572 1.31317 6.05787 1.45954 5.9185C1.68867 5.70013 1.98055 5.55918 2.29404 5.5155C2.49559 6.01509 2.79573 6.46895 3.17654 6.85L4.96004 8.5765C5.23879 8.84945 5.6134 9.00232 6.00354 9.00232C6.39368 9.00232 6.76829 8.84945 7.04704 8.5765L8.82854 6.845C9.22741 6.44452 9.53643 5.96369 9.73504 5.4345L10.0035 5.5235C10.2947 5.62784 10.5466 5.81948 10.7249 6.07227C10.9031 6.32506 10.999 6.62669 10.9995 6.936V9.5105Z" fill="#242133"/>
</g>
<defs>
<clipPath id="clip0_32857_3435">
<rect width="12" height="12" fill="white"/>
</clipPath>
</defs>
</svg>
