<svg width="197" height="188" viewBox="0 0 197 188" fill="none" xmlns="http://www.w3.org/2000/svg">
<g style="mix-blend-mode:luminosity">
<path d="M12.7785 98.2725C13.0948 87.7729 14.1433 53.007 39.6056 27.8515C71.9883 -4.141 135.092 -11.9293 169.669 22.3428C207.036 59.3801 195.459 130.048 174.22 139.232C163.564 143.84 152.633 132.036 140.447 138.992C127.186 146.562 133.495 164.324 122.003 176.598C105.411 194.319 60.216 191.518 34.5761 167.256C11.3611 145.29 12.3219 113.438 12.7792 98.2725H12.7785Z" fill="url(#paint0_linear_34820_5489)"/>
<g style="mix-blend-mode:multiply" opacity="0.2">
<path d="M125.638 136.223L98.619 43.3891C98.0777 41.5282 96.1299 40.4586 94.2683 41L20.9037 62.3527C19.0429 62.8941 17.9733 64.8419 18.5146 66.7034L45.5332 159.537C46.0746 161.398 48.0224 162.468 49.884 161.926L123.249 140.574C125.109 140.032 126.179 138.084 125.638 136.223Z" fill="url(#paint1_linear_34820_5489)"/>
</g>
<path d="M126.047 135.004L52.6828 156.357C50.8219 156.898 48.8741 155.828 48.332 153.968L21.3135 61.1331C20.7721 59.2723 21.8417 57.3245 23.7025 56.7824L97.0671 35.4297C98.928 34.8883 100.876 35.9579 101.418 37.8188L128.436 130.653C128.978 132.513 127.908 134.461 126.047 135.003V135.004Z" fill="white"/>
<path d="M99.6741 51.8431L99.479 51.1716L30.1152 71.3597L30.4908 72.6507L32.0959 78.1668L32.4714 79.4578L34.0766 84.9739L34.4521 86.2648L36.0573 91.7809L36.4328 93.0719L38.0379 98.588L38.4135 99.879L40.0186 105.395L40.3941 106.686L41.9993 112.202L42.3748 113.493L111.739 93.305L111.685 93.1223L99.6704 51.8416L99.6741 51.8431ZM76.9018 79.894L71.3857 81.4991L69.7806 75.983L75.2967 74.3779L76.9018 79.894ZM76.5876 74.0024L82.1037 72.3972L83.7089 77.9133L78.1928 79.5184L76.5876 74.0024ZM70.0947 81.8754L64.5787 83.4805L62.9735 77.9644L68.4896 76.3593L70.0947 81.8754ZM63.2877 83.8568L57.7716 85.4619L56.1665 79.9458L61.6825 78.3407L63.2877 83.8568ZM63.6632 85.1477L65.2684 90.6638L59.7523 92.269L58.1471 86.7529L63.6632 85.1477ZM64.9542 84.7722L70.4703 83.1671L72.0754 88.6832L66.5593 90.2883L64.9542 84.7722ZM71.7613 82.7908L77.2773 81.1857L78.8825 86.7017L73.3664 88.3069L71.7613 82.7908ZM78.569 80.8094L84.0851 79.2043L85.6903 84.7203L80.1742 86.3255L78.569 80.8094ZM85.3761 78.828L90.8922 77.2229L92.4973 82.7389L86.9812 84.3441L85.3761 78.828ZM85.0006 77.537L83.3954 72.0209L88.9115 70.4158L90.5166 75.9319L85.0006 77.537ZM83.0192 70.73L81.414 65.2139L86.9301 63.6087L88.5352 69.1248L83.0192 70.73ZM81.7282 71.1055L76.2121 72.7106L74.607 67.1946L80.123 65.5894L81.7282 71.1055ZM74.9211 73.0869L69.4051 74.692L67.7999 69.176L73.316 67.5708L74.9211 73.0869ZM68.1133 75.0683L62.5973 76.6734L60.9921 71.1574L66.5082 69.5522L68.1133 75.0683ZM61.3063 77.0497L55.7902 78.6548L54.1851 73.1388L59.7011 71.5336L61.3063 77.0497ZM54.4992 79.0304L48.9831 80.6355L47.378 75.1194L52.8941 73.5143L54.4992 79.0304ZM54.8748 80.3214L56.4799 85.8374L50.9638 87.4426L49.3587 81.9265L54.8748 80.3214ZM56.8562 87.1292L58.4613 92.6452L52.9452 94.2504L51.3401 88.7343L56.8562 87.1292ZM58.8368 93.9362L60.442 99.4523L54.9259 101.057L53.3208 95.5414L58.8368 93.9362ZM60.1278 93.5607L65.6439 91.9555L67.249 97.4716L61.733 99.0768L60.1278 93.5607ZM66.9356 91.5793L72.4517 89.9741L74.0568 95.4902L68.5407 97.0954L66.9356 91.5793ZM73.7427 89.5979L79.2587 87.9927L80.8639 93.5088L75.3478 95.1139L73.7427 89.5979ZM80.5504 87.6165L86.0665 86.0113L87.6717 91.5274L82.1556 93.1325L80.5504 87.6165ZM87.3575 85.6358L92.8736 84.0307L94.4787 89.5467L88.9626 91.1519L87.3575 85.6358ZM94.1646 83.6544L99.6806 82.0492L101.286 87.5653L95.7697 89.1705L94.1646 83.6544ZM93.789 82.3634L92.1839 76.8473L97.7 75.2422L99.3051 80.7583L93.789 82.3634ZM91.8076 75.5564L90.2025 70.0403L95.7186 68.4351L97.3237 73.9512L91.8076 75.5564ZM89.8262 68.7486L88.2211 63.2325L93.7372 61.6273L95.3423 67.1434L89.8262 68.7486ZM87.8456 61.9415L86.2404 56.4254L91.7565 54.8203L93.3616 60.3364L87.8456 61.9415ZM86.5546 62.317L81.0385 63.9222L79.4334 58.4061L84.9494 56.801L86.5546 62.317ZM79.7468 64.2984L74.2307 65.9036L72.6256 60.3875L78.1416 58.7824L79.7468 64.2984ZM72.9397 66.2798L67.4236 67.885L65.8185 62.3689L71.3346 60.7638L72.9397 66.2798ZM66.1319 68.2612L60.6159 69.8664L59.0107 64.3503L64.5268 62.7452L66.1319 68.2612ZM59.3249 70.2419L53.8088 71.8471L52.2037 66.331L57.7197 64.7258L59.3249 70.2419ZM52.5178 72.2233L47.0017 73.8285L45.3966 68.3124L50.9127 66.7072L52.5178 72.2233ZM45.71 74.2047L40.1939 75.8099L38.5888 70.2938L44.1049 68.6887L45.71 74.2047ZM46.0863 75.4957L47.6914 81.0118L42.1754 82.6169L40.5702 77.1009L46.0863 75.4957ZM48.067 82.3028L49.6721 87.8188L44.156 89.424L42.5509 83.9079L48.067 82.3028ZM50.0484 89.1098L51.6535 94.6259L46.1374 96.231L44.5323 90.715L50.0484 89.1098ZM52.0298 95.9176L53.6349 101.434L48.1188 103.039L46.5137 97.5228L52.0298 95.9176ZM54.0112 102.725L55.6163 108.241L50.1002 109.846L48.4951 104.33L54.0112 102.725ZM55.3022 102.349L60.8182 100.744L62.4234 106.26L56.9073 107.865L55.3022 102.349ZM62.1092 100.368L67.6253 98.7626L69.2304 104.279L63.7144 105.884L62.1092 100.368ZM68.917 98.3863L74.4331 96.7812L76.0382 102.297L70.5221 103.902L68.917 98.3863ZM75.7241 96.4057L81.2401 94.8005L82.8453 100.317L77.3292 101.922L75.7241 96.4057ZM82.5311 94.4243L88.0472 92.8191L89.6523 98.3352L84.1363 99.9403L82.5311 94.4243ZM89.3389 92.4429L94.855 90.8377L96.4601 96.3538L90.9441 97.9589L89.3389 92.4429ZM96.146 90.4615L101.662 88.8563L103.267 94.3724L97.7511 95.9775L96.146 90.4615ZM102.953 88.4808L108.469 86.8756L110.074 92.3917L104.558 93.9968L102.953 88.4808ZM102.577 87.1898L100.972 81.6737L106.488 80.0686L108.094 85.5847L102.577 87.1898ZM100.596 80.382L98.991 74.8659L104.507 73.2608L106.112 78.7769L100.596 80.382ZM98.6147 73.5749L97.0095 68.0589L102.526 66.4537L104.131 71.9698L98.6147 73.5749ZM96.634 66.7679L95.0289 61.2518L100.545 59.6467L102.15 65.1627L96.634 66.7679ZM94.6526 59.9601L93.0475 54.444L98.5635 52.8389L100.169 58.355L94.6526 59.9601ZM31.781 72.2752L37.2971 70.6701L38.9022 76.1861L33.3862 77.7913L31.781 72.2752ZM33.7624 79.0823L39.2785 77.4771L40.8836 82.9932L35.3676 84.5983L33.7624 79.0823ZM35.7438 85.8893L41.2599 84.2842L42.865 89.8003L37.349 91.4054L35.7438 85.8893ZM37.7252 92.6971L43.2413 91.092L44.8464 96.608L39.3304 98.2132L37.7252 92.6971ZM39.7059 99.5042L45.222 97.899L46.8271 103.415L41.311 105.02L39.7059 99.5042ZM41.6873 106.311L47.2034 104.706L48.8085 110.222L43.2924 111.827L41.6873 106.311Z" fill="url(#paint2_linear_34820_5489)"/>
<path d="M47.7244 104.933C47.4869 105.002 47.2224 104.978 46.9908 104.845C46.5393 104.586 46.3837 104.009 46.6431 103.558L51.7924 94.5961C51.9137 94.3849 52.1124 94.2286 52.3462 94.1606L58.8405 92.2706L63.2322 83.8934C63.3498 83.6691 63.5529 83.5018 63.7955 83.4288C64.0403 83.3696 64.3004 83.3835 64.5217 83.5055L72.2092 87.735L74.8291 73.3822C74.8839 73.0834 75.079 72.8291 75.3544 72.6991C75.6269 72.569 75.9499 72.58 76.2158 72.7276L84.1042 77.1149L88.6054 69.1111L93.369 60.3219C93.6174 59.8645 94.1895 59.6936 94.6468 59.942C95.1042 60.1904 95.2744 60.7624 95.0267 61.2198L90.2566 70.0221L85.2885 78.8566C85.0335 79.3089 84.4614 79.4703 84.0085 79.2183L76.4496 75.0144L73.8311 89.3613C73.7763 89.6594 73.582 89.9136 73.308 90.0437C73.0348 90.1737 72.7148 90.165 72.4488 90.0181L64.4567 85.6213L60.3259 93.5024C60.2068 93.7296 60 93.8983 59.7545 93.9699L53.239 95.8666L48.2789 104.499C48.1525 104.719 47.9508 104.868 47.7251 104.934L47.7244 104.933Z" fill="url(#paint3_linear_34820_5489)"/>
<path d="M49.095 104.803C49.5721 103.934 49.2545 102.842 48.3854 102.365C47.5164 101.888 46.4251 102.206 45.948 103.075C45.4708 103.944 45.7885 105.035 46.6575 105.512C47.5265 105.989 48.6178 105.672 49.095 104.803Z" fill="#0089D6"/>
<path d="M48.3046 103.718C48.431 104.151 48.1819 104.604 47.7486 104.73C47.3154 104.857 46.8617 104.607 46.736 104.174C46.6096 103.741 46.8587 103.287 47.292 103.162C47.7252 103.035 48.179 103.284 48.3046 103.718Z" fill="white"/>
<path d="M54.2063 96.2831C54.6835 95.4141 54.3658 94.3228 53.4968 93.8456C52.6277 93.3685 51.5364 93.6861 51.0593 94.5552C50.5821 95.4242 50.8998 96.5155 51.7688 96.9926C52.6379 97.4698 53.7291 97.1521 54.2063 96.2831Z" fill="#0089D6"/>
<path d="M53.4169 95.198C53.5433 95.6313 53.2942 96.085 52.8609 96.2106C52.4277 96.337 51.974 96.0879 51.8483 95.6546C51.7219 95.2214 51.9711 94.7677 52.4043 94.642C52.8376 94.5156 53.2913 94.7648 53.4169 95.198Z" fill="white"/>
<path d="M61.1165 94.2675C61.5936 93.3984 61.276 92.3072 60.4069 91.83C59.5379 91.3528 58.4466 91.6705 57.9694 92.5395C57.4923 93.4086 57.81 94.4999 58.679 94.977C59.548 95.4542 60.6393 95.1365 61.1165 94.2675Z" fill="#0089D6"/>
<path d="M60.3271 93.1821C60.4535 93.6154 60.2043 94.0691 59.7711 94.1947C59.3378 94.3211 58.8841 94.072 58.7585 93.6387C58.6321 93.2055 58.8812 92.7518 59.3145 92.6261C59.7477 92.5005 60.2014 92.7489 60.3271 93.1821Z" fill="white"/>
<path d="M65.7444 85.6542C66.2216 84.7852 65.9039 83.6939 65.0349 83.2167C64.1658 82.7395 63.0745 83.0572 62.5974 83.9262C62.1202 84.7953 62.4379 85.8866 63.3069 86.3637C64.1759 86.8409 65.2672 86.5232 65.7444 85.6542Z" fill="#0089D6"/>
<path d="M64.956 84.5691C65.0824 85.0023 64.8332 85.4561 64.4 85.5817C63.9667 85.7081 63.513 85.459 63.3874 85.0257C63.261 84.5925 63.5101 84.1388 63.9434 84.0131C64.3766 83.8867 64.8303 84.1358 64.956 84.5691Z" fill="white"/>
<path d="M74.595 90.3925C75.0721 89.5234 74.7545 88.4322 73.8854 87.955C73.0164 87.4778 71.9251 87.7955 71.448 88.6645C70.9708 89.5336 71.2885 90.6249 72.1575 91.102C73.0265 91.5792 74.1178 91.2615 74.595 90.3925Z" fill="#0089D6"/>
<path d="M73.8066 89.3074C73.933 89.7406 73.6838 90.1943 73.2506 90.32C72.8173 90.4464 72.3636 90.1973 72.238 89.764C72.1116 89.3308 72.3607 88.8771 72.794 88.7514C73.2272 88.625 73.6809 88.8741 73.8066 89.3074Z" fill="white"/>
<path d="M77.4358 74.7362C77.913 73.8672 77.5953 72.7759 76.7263 72.2987C75.8572 71.8216 74.7659 72.1392 74.2888 73.0083C73.8116 73.8773 74.1293 74.9686 74.9983 75.4458C75.8673 75.9229 76.9586 75.6052 77.4358 74.7362Z" fill="#0089D6"/>
<path d="M76.6484 73.6511C76.7748 74.0844 76.5256 74.5381 76.0924 74.6637C75.6591 74.7901 75.2054 74.541 75.0798 74.1078C74.9534 73.6745 75.2025 73.2208 75.6358 73.0951C76.069 72.9687 76.5227 73.2179 76.6484 73.6511Z" fill="white"/>
<path d="M86.1702 79.2167C86.6473 78.3477 86.3297 77.2564 85.4606 76.7792C84.5916 76.302 83.5003 76.6197 83.0232 77.4887C82.546 78.3578 82.8637 79.4491 83.7327 79.9262C84.6017 80.4034 85.693 80.0857 86.1702 79.2167Z" fill="#0089D6"/>
<path d="M85.3827 78.1316C85.5091 78.5648 85.26 79.0186 84.8268 79.1442C84.3935 79.2706 83.9398 79.0215 83.8141 78.5882C83.6877 78.155 83.9369 77.7013 84.3701 77.5756C84.8034 77.4492 85.2571 77.6983 85.3827 78.1316Z" fill="white"/>
<path d="M90.6893 70.9395C91.4114 70.2602 91.4461 69.1241 90.7668 68.402C90.0875 67.6799 88.9515 67.6452 88.2294 68.3245C87.5073 69.0038 87.4725 70.1398 88.1518 70.8619C88.8311 71.5841 89.9672 71.6188 90.6893 70.9395Z" fill="#0089D6"/>
<path d="M90.2441 69.4128C90.3705 69.8461 90.1213 70.2998 89.6881 70.4255C89.2548 70.5519 88.8011 70.3027 88.6755 69.8695C88.5491 69.4362 88.7982 68.9825 89.2315 68.8569C89.6647 68.7305 90.1184 68.9796 90.2441 69.4128Z" fill="white"/>
<path d="M95.7874 61.6503C96.2645 60.7813 95.9468 59.69 95.0778 59.2128C94.2088 58.7356 93.1175 59.0533 92.6403 59.9223C92.1632 60.7914 92.4808 61.8827 93.3499 62.3598C94.2189 62.837 95.3102 62.5193 95.7874 61.6503Z" fill="#0089D6"/>
<path d="M95.0019 60.5652C95.1283 60.9984 94.8791 61.4522 94.4459 61.5778C94.0126 61.7042 93.5589 61.4551 93.4333 61.0218C93.3069 60.5886 93.556 60.1349 93.9893 60.0092C94.4225 59.8828 94.8762 60.1319 95.0019 60.5652Z" fill="white"/>
<path d="M50.5177 60.5463L30.5897 66.3466C29.6056 66.633 28.5754 66.0675 28.2883 65.0826C28.0019 64.0985 28.5674 63.0683 29.5522 62.7812L49.4802 56.9809C50.4644 56.6945 51.4945 57.26 51.7817 58.2449C52.0681 59.229 51.5026 60.2591 50.5177 60.5463Z" fill="#52D1BD"/>
<path d="M66.591 115.773L46.6629 121.573C45.6788 121.859 44.6486 121.294 44.3615 120.309C44.0751 119.325 44.6406 118.295 45.6255 118.008L65.5535 112.207C66.5376 111.921 67.5678 112.486 67.8549 113.471C68.1413 114.455 67.5758 115.485 66.591 115.773Z" fill="url(#paint4_linear_34820_5489)"/>
<path d="M114.846 110.616L58.0731 127.14C57.089 127.426 56.0588 126.861 55.7717 125.876C55.4853 124.892 56.0508 123.861 57.0356 123.574L113.809 107.051C114.793 106.765 115.823 107.33 116.11 108.315C116.397 109.299 115.831 110.329 114.846 110.616Z" fill="url(#paint5_linear_34820_5489)"/>
<path d="M117.232 118.812L51.4325 137.962C50.4483 138.249 49.4182 137.683 49.1311 136.698C48.8447 135.714 49.4101 134.684 50.395 134.397L116.194 115.246C117.178 114.96 118.208 115.525 118.496 116.51C118.782 117.494 118.216 118.525 117.232 118.812Z" fill="url(#paint6_linear_34820_5489)"/>
<path d="M119.616 126.999L53.8172 146.15C52.8331 146.436 51.8029 145.871 51.5158 144.886C51.2294 143.902 51.7949 142.872 52.7798 142.584L118.579 123.434C119.563 123.147 120.593 123.713 120.88 124.698C121.167 125.682 120.601 126.712 119.616 126.999Z" fill="url(#paint7_linear_34820_5489)"/>
<g style="mix-blend-mode:multiply" opacity="0.2">
<path d="M159.078 29.1821C159.005 27.2453 157.376 25.7344 155.439 25.8075L79.0839 28.6809C77.1471 28.754 75.6362 30.3833 75.7085 32.3201L79.3448 128.938C79.4178 130.875 81.0471 132.385 82.9839 132.312L159.339 129.439C161.276 129.366 162.787 127.737 162.714 125.8L159.077 29.1829L159.078 29.1821Z" fill="url(#paint8_linear_34820_5489)"/>
</g>
<path d="M162.141 125.942L85.7857 128.815C83.8489 128.888 82.2196 127.377 82.1466 125.441L78.5104 28.8238C78.4373 26.8869 79.9482 25.2577 81.885 25.1846L158.24 22.3111C160.177 22.2381 161.806 23.749 161.879 25.6858L165.515 122.303C165.588 124.239 164.078 125.869 162.141 125.942Z" fill="white"/>
<path d="M140.571 61.098C136.948 54.0432 129.469 49.3308 121.036 49.6479C118.28 49.7516 115.666 50.3829 113.29 51.4415C105.658 54.8381 100.458 62.6322 100.79 71.4777C101.118 80.1975 106.733 87.4948 114.428 90.3953C116.969 91.3538 119.739 91.8324 122.62 91.7242C124.334 91.66 125.994 91.3904 127.576 90.9425C127.586 90.9396 127.596 90.9366 127.606 90.9337C136.712 88.3335 143.239 79.7686 142.868 69.8945C142.748 66.7273 141.931 63.7479 140.572 61.098H140.571ZM126.239 86.1439C126.232 86.1468 126.224 86.1497 126.217 86.1512C125.009 86.4931 123.742 86.6991 122.432 86.7481C120.233 86.8306 118.12 86.4653 116.179 85.734C110.304 83.5195 106.018 77.9487 105.767 71.2906C105.513 64.5376 109.482 58.5883 115.309 55.9939C117.124 55.1859 119.12 54.703 121.223 54.624C127.663 54.3815 133.373 57.9805 136.139 63.3665C137.177 65.3895 137.8 67.6646 137.891 70.0815C138.175 77.6214 133.193 84.1603 126.24 86.1439H126.239Z" fill="url(#paint9_linear_34820_5489)"/>
<path d="M140.572 61.098L136.138 63.3665C133.373 57.9805 127.663 54.3815 121.223 54.624C119.12 54.703 117.123 55.1859 115.309 55.9939L113.29 51.4415C115.667 50.3829 118.281 49.7509 121.036 49.6479C129.469 49.3308 136.949 54.0432 140.572 61.098Z" fill="#0089D6"/>
<path d="M142.867 69.8942C143.239 79.7683 136.712 88.3332 127.606 90.9334C127.596 90.9363 127.586 90.9393 127.576 90.9422L126.217 86.1509C126.224 86.1494 126.231 86.1465 126.239 86.1436C133.192 84.16 138.175 77.6218 137.89 70.0812C137.799 67.6643 137.176 65.3892 136.138 63.3662L140.571 61.0977C141.93 63.7476 142.747 66.7262 142.867 69.8942H142.867Z" fill="#52D1BD"/>
<path d="M127.606 90.9309C127.596 90.9338 127.586 90.9368 127.576 90.9397C125.994 91.3875 124.334 91.6571 122.619 91.7214C119.739 91.8296 116.97 91.351 114.428 90.3925L116.178 85.7305C118.119 86.4625 120.232 86.8271 122.432 86.7446C123.741 86.6956 125.008 86.4896 126.216 86.1476C126.223 86.1462 126.231 86.1433 126.238 86.1403L127.604 90.9302L127.606 90.9309Z" fill="url(#paint10_linear_34820_5489)"/>
<path d="M130.01 78.2778C129.664 78.6504 129.3 78.9945 128.916 79.3043C124.683 82.7966 118.42 82.7125 114.275 78.8988C114.264 78.8922 114.253 78.8812 114.241 78.871C110.967 75.8339 109.929 71.2888 111.203 67.2968C111.681 65.7829 112.497 64.3466 113.648 63.1023C114.28 62.4207 114.978 61.8369 115.721 61.3489C118.023 59.8387 120.774 59.2637 123.42 59.6458C125.589 59.9527 127.688 60.9054 129.417 62.5091C133.935 66.7006 134.201 73.759 130.01 78.2778Z" fill="url(#paint11_linear_34820_5489)"/>
<path d="M109.812 35.2504L89.072 36.0307C88.0477 36.0694 87.1856 35.2702 87.1469 34.2458C87.1081 33.2215 87.9074 32.3594 88.9317 32.3207L109.672 31.5404C110.696 31.5017 111.559 32.301 111.597 33.3253C111.636 34.3496 110.837 35.2117 109.812 35.2504Z" fill="url(#paint12_linear_34820_5489)"/>
<path d="M152.223 41.5395L89.3298 43.9067C88.3055 43.9454 87.4434 43.1461 87.4047 42.1218C87.3659 41.0975 88.1652 40.2354 89.1895 40.1966L152.083 37.8295C153.107 37.7908 153.969 38.59 154.008 39.6143C154.047 40.6387 153.248 41.5008 152.223 41.5395Z" fill="url(#paint13_linear_34820_5489)"/>
<path d="M123.42 59.6466L121.829 70.6868L111.203 67.2968C111.682 65.7829 112.498 64.3466 113.648 63.1023C114.28 62.4207 114.978 61.8369 115.722 61.3489C118.023 59.8387 120.774 59.2637 123.42 59.6458L123.42 59.6466Z" fill="#52D1BD"/>
<path d="M130.01 78.2796C129.665 78.6522 129.3 78.9964 128.917 79.3061C126.78 76.7008 121.829 70.6886 121.829 70.6886L123.42 59.6484C125.589 59.9553 127.688 60.908 129.416 62.5117C133.935 66.7032 134.201 73.7616 130.01 78.2804L130.01 78.2796Z" fill="#0089D6"/>
<path d="M99.457 97.4292L89.5088 97.8044L90.3494 120.092L100.298 119.717L99.457 97.4292Z" fill="url(#paint14_linear_34820_5489)"/>
<path d="M113.962 105.914L104.014 106.289L104.514 119.557L114.462 119.182L113.962 105.914Z" fill="url(#paint15_linear_34820_5489)"/>
<path d="M128.02 102.613L118.072 102.988L118.677 119.022L128.625 118.647L128.02 102.613Z" fill="url(#paint16_linear_34820_5489)"/>
<path d="M142.466 109.558L132.518 109.934L132.84 118.489L142.788 118.114L142.466 109.558Z" fill="url(#paint17_linear_34820_5489)"/>
<path d="M156.245 98.7967L146.297 99.1719L147.005 117.958L156.954 117.583L156.245 98.7967Z" fill="url(#paint18_linear_34820_5489)"/>
<g style="mix-blend-mode:multiply" opacity="0.2">
<path d="M155.65 91.4306L151.906 94.832L156.451 99.8332L160.194 96.4317L155.65 91.4306Z" fill="url(#paint19_linear_34820_5489)"/>
<path d="M130.163 67.1422C122.7 73.9274 122.147 85.4819 128.932 92.9443C135.717 100.412 147.266 100.966 154.734 94.1805C162.201 87.3954 162.755 75.8409 155.97 68.3784C149.185 60.9109 137.63 60.3571 130.163 67.1422ZM153.524 70.6024C159.083 76.7139 158.627 86.1775 152.51 91.7359C146.393 97.2944 136.935 96.8392 131.376 90.727C125.818 84.6103 126.269 75.1468 132.385 69.589C138.502 64.0306 147.966 64.4865 153.524 70.6031V70.6024Z" fill="url(#paint20_linear_34820_5489)"/>
<path d="M177.007 115.882L174.209 118.425C173.324 119.229 171.954 119.164 171.15 118.279L154.659 100.131L160.663 94.6758L177.154 112.823C177.958 113.709 177.892 115.079 177.008 115.883L177.007 115.882Z" fill="url(#paint21_linear_34820_5489)"/>
</g>
<g style="mix-blend-mode:multiply" opacity="0.2">
<path d="M39.5911 44.7638L16.0159 39.5451C13.9227 39.0818 11.831 40.4152 11.3671 42.5084L10.8841 44.6892L10.486 44.6008C10.1579 44.5285 9.8306 44.7375 9.75827 45.0648L8.93342 48.7909C8.86109 49.1189 9.06931 49.4462 9.39735 49.5186L9.79553 49.607L9.5895 50.537L9.19132 50.4486C8.86328 50.3763 8.53597 50.5852 8.46364 50.9126L7.63878 54.6386C7.56645 54.9667 7.77467 55.294 8.10272 55.3663L8.5009 55.4547L1.24525 88.2334C0.782041 90.3266 2.1154 92.4183 4.20859 92.8822L27.7838 98.101C29.877 98.5642 31.9687 97.2308 32.4326 95.1376L42.5545 49.4126C43.0177 47.3194 41.6843 45.2277 39.5911 44.7638Z" fill="url(#paint22_linear_34820_5489)"/>
</g>
<path d="M10.2824 41.5502L9.48627 41.374C9.1573 41.3012 8.8316 41.5089 8.75879 41.8378L7.93401 45.5643C7.8612 45.8933 8.06886 46.219 8.39782 46.2918L9.19391 46.468C9.52288 46.5408 9.84858 46.3332 9.92138 46.0042L10.7462 42.2777C10.819 41.9487 10.6113 41.623 10.2824 41.5502Z" fill="url(#paint23_linear_34820_5489)"/>
<path d="M8.98841 47.4018L8.19232 47.2256C7.86336 47.1528 7.53766 47.3604 7.46485 47.6894L6.64007 51.4159C6.56726 51.7449 6.77491 52.0706 7.10387 52.1434L7.89997 52.3196C8.22893 52.3924 8.55463 52.1847 8.62744 51.8558L9.45222 48.1293C9.52503 47.8003 9.31738 47.4746 8.98841 47.4018Z" fill="url(#paint24_linear_34820_5489)"/>
<path d="M26.7818 94.8744L3.20663 89.6557C1.11345 89.1925 -0.219912 87.1007 0.243293 85.0068L10.3651 39.2818C10.8283 37.1886 12.92 35.8553 15.014 36.3185L38.5892 41.5372C40.6824 42.0004 42.0157 44.0921 41.5525 46.1861L31.4307 91.9111C30.9675 94.0042 28.8758 95.3376 26.7818 94.8744Z" fill="url(#paint25_linear_34820_5489)"/>
<path d="M30.6674 91.7436L40.7877 46.0183C41.1595 44.3384 40.0991 42.6752 38.4192 42.3033L14.844 37.0855C13.1641 36.7137 11.5009 37.7741 11.129 39.4539L1.00874 85.1793C0.636932 86.8591 1.69734 88.5224 3.37722 88.8942L26.9525 94.112C28.6324 94.4838 30.2956 93.4234 30.6674 91.7436Z" fill="white"/>
<path d="M26.0045 47.3924L13.9079 44.7118C13.1115 44.535 12.6045 43.7394 12.7813 42.943C12.9581 42.1467 13.7537 41.6396 14.5501 41.8164L26.6467 44.497C27.4431 44.6738 27.9501 45.4695 27.7733 46.2658C27.5965 47.0622 26.8009 47.5692 26.0045 47.3924Z" fill="#52D1BD"/>
<path d="M35.3271 55.4116L17.707 51.5065C17.0363 51.3582 16.6096 50.6883 16.758 50.0176C16.9063 49.3469 17.5762 48.9202 18.2469 49.0685L35.867 52.9736C36.5377 53.1219 36.9643 53.7919 36.816 54.4626C36.6677 55.1333 35.9977 55.5599 35.3271 55.4116Z" fill="url(#paint26_linear_34820_5489)"/>
<path d="M34.2795 60.1407L11.0762 54.9987C10.4055 54.8504 9.97879 54.1804 10.1271 53.5098C10.2754 52.8391 10.9454 52.4124 11.6161 52.5607L34.8194 57.7027C35.4901 57.851 35.9168 58.521 35.7685 59.1917C35.6202 59.8624 34.9502 60.289 34.2795 60.1407Z" fill="url(#paint27_linear_34820_5489)"/>
<path d="M33.2316 64.8712L10.0283 59.7292C9.35761 59.5809 8.93094 58.9109 9.07925 58.2402C9.22756 57.5695 9.89753 57.1429 10.5682 57.2912L33.7716 62.4332C34.4423 62.5815 34.8689 63.2515 34.7206 63.9221C34.5723 64.5928 33.9023 65.0195 33.2316 64.8712Z" fill="url(#paint28_linear_34820_5489)"/>
<path d="M32.1828 69.6017L8.97948 64.4597C8.30878 64.3114 7.88211 63.6414 8.03042 62.9707C8.17873 62.3 8.8487 61.8733 9.5194 62.0216L32.7227 67.1636C33.3934 67.312 33.8201 67.9819 33.6718 68.6526C33.5235 69.3233 32.8535 69.75 32.1828 69.6017Z" fill="url(#paint29_linear_34820_5489)"/>
<path d="M25.1038 72.992L7.93163 69.1862C7.26093 69.0379 6.83426 68.3679 6.98257 67.6973C7.13088 67.0266 7.80085 66.5999 8.47155 66.7482L25.6437 70.5539C26.3144 70.7022 26.7411 71.3722 26.5928 72.0429C26.4445 72.7136 25.7745 73.1403 25.1038 72.992Z" fill="url(#paint30_linear_34820_5489)"/>
<path d="M30.0861 79.0587L6.8828 73.9167C6.2121 73.7684 5.78543 73.0984 5.93374 72.4277C6.08205 71.757 6.75202 71.3304 7.42272 71.4787L30.626 76.6207C31.2967 76.769 31.7234 77.439 31.5751 78.1096C31.4268 78.7803 30.7568 79.207 30.0861 79.0587Z" fill="url(#paint31_linear_34820_5489)"/>
<path d="M29.0383 83.7931L5.83495 78.6511C5.16425 78.5028 4.73758 77.8328 4.88589 77.1621C5.0342 76.4914 5.70417 76.0647 6.37487 76.213L29.5782 81.355C30.2489 81.5034 30.6756 82.1733 30.5273 82.844C30.3789 83.5147 29.709 83.9414 29.0383 83.7931Z" fill="url(#paint32_linear_34820_5489)"/>
<path d="M25.5142 91.0189L5.97191 86.6878C5.63656 86.6133 5.42323 86.278 5.49702 85.9426C5.57154 85.6073 5.90689 85.3939 6.24224 85.4677L25.7845 89.7988C26.1198 89.8733 26.3332 90.2086 26.2594 90.544C26.1849 90.8793 25.8495 91.0927 25.5142 91.0189Z" fill="#52D1BD"/>
<path opacity="0.2" d="M154.5 88.5521C160.787 82.2648 160.787 72.0711 154.5 65.7838C148.213 59.4965 138.019 59.4965 131.732 65.7838C125.445 72.0711 125.445 82.2648 131.732 88.5521C138.019 94.8394 148.213 94.8394 154.5 88.5521Z" fill="url(#paint33_linear_34820_5489)"/>
<path opacity="0.6" d="M155.07 78.8365C155.037 78.8387 155.003 78.838 154.969 78.835C154.573 78.8044 154.277 78.4573 154.308 78.0613C154.331 77.7705 154.343 77.4768 154.344 77.1795C154.353 70.9891 149.323 65.9449 143.133 65.9362C142.119 65.9333 141.111 66.0684 140.141 66.3344C139.757 66.4374 139.362 66.2138 139.256 65.8302C139.151 65.4467 139.377 65.0514 139.76 64.9455C140.853 64.6467 141.989 64.4925 143.135 64.4962C150.12 64.5064 155.794 70.1971 155.784 77.1817C155.784 77.5156 155.77 77.8458 155.745 78.1738C155.716 78.5369 155.423 78.8153 155.07 78.8365H155.07Z" fill="white"/>
<path d="M156.316 87.9345L152.572 91.3359L157.117 96.3371L160.86 92.9356L156.316 87.9345Z" fill="url(#paint34_linear_34820_5489)"/>
<path d="M130.829 63.6462C123.367 70.4313 122.813 81.9858 129.598 89.4483C136.383 96.9158 147.932 97.4696 155.4 90.6844C162.867 83.8993 163.421 72.3448 156.636 64.8823C149.851 57.4148 138.296 56.861 130.829 63.6462ZM154.191 67.1063C159.749 73.2178 159.293 82.6814 153.177 88.2398C147.06 93.7983 137.602 93.3431 132.043 87.2309C126.485 81.1142 126.936 71.6507 133.052 66.093C139.169 60.5345 148.632 60.9904 154.191 67.107V67.1063Z" fill="url(#paint35_linear_34820_5489)"/>
<path d="M177.674 112.386L174.876 114.929C173.991 115.733 172.621 115.667 171.817 114.783L155.326 96.6351L161.33 91.1797L177.821 109.327C178.625 110.213 178.559 111.583 177.675 112.387L177.674 112.386Z" fill="url(#paint36_linear_34820_5489)"/>
<g style="mix-blend-mode:multiply" opacity="0.2">
<path d="M119.16 129.327C112.607 129.881 107.606 134.01 107.989 138.549C108.087 139.702 108.524 140.77 109.228 141.714L98.5578 150.419C96.9322 150.014 95.1298 149.86 93.2493 150.019C86.6957 150.574 81.6947 154.702 82.0783 159.241C82.4626 163.779 88.0861 167.009 94.6396 166.456C101.193 165.902 106.194 161.772 105.811 157.234C105.61 154.859 103.972 152.843 101.518 151.539L111.235 143.61C113.562 145.212 116.912 146.071 120.55 145.763C127.103 145.209 132.104 141.08 131.721 136.542C131.336 132.003 125.713 128.773 119.159 129.328L119.16 129.327Z" fill="url(#paint37_linear_34820_5489)"/>
</g>
<path d="M123.268 135.088C122.702 135.559 121.86 135.482 121.389 134.916C120.168 133.449 117.664 135.267 117.638 135.286L85.143 162.346C84.5767 162.818 83.7351 162.74 83.2638 162.174C82.7926 161.608 82.8693 160.766 83.4355 160.295L115.994 133.186C117.626 131.98 121.19 130.505 123.441 133.208C123.912 133.774 123.835 134.616 123.269 135.087L123.268 135.088Z" fill="url(#paint38_linear_34820_5489)"/>
<path d="M90.9645 161.987C91.5307 161.516 91.6075 160.675 91.1362 160.108C89.9146 158.641 92.1569 156.508 92.1795 156.487L124.678 129.43C125.245 128.958 125.321 128.117 124.85 127.551C124.379 126.985 123.537 126.907 122.971 127.379L90.4129 154.489C88.9313 155.875 86.8351 159.113 89.0854 161.817C89.5567 162.383 90.3983 162.459 90.9645 161.988V161.987Z" fill="url(#paint39_linear_34820_5489)"/>
<path opacity="0.28" d="M98.9749 161.987C102.862 158.1 102.862 151.798 98.9749 147.911C95.088 144.024 88.7861 144.024 84.8992 147.911C81.0123 151.798 81.0123 158.1 84.8992 161.987C88.7861 165.874 95.088 165.874 98.9749 161.987Z" fill="#F2F2F2"/>
<path opacity="0.28" d="M123.356 141.686C127.243 137.799 127.243 131.497 123.356 127.611C119.469 123.724 113.167 123.724 109.28 127.611C105.393 131.497 105.393 137.799 109.28 141.686C113.167 145.573 119.469 145.573 123.356 141.686Z" fill="#F2F2F2"/>
<path d="M108.917 125.766C104.91 129.102 103.738 134.604 105.672 139.164C102.196 139.593 99.3519 141.96 98.3013 145.301C94.1668 142.573 88.5499 142.724 84.5367 146.065C79.6343 150.147 78.9731 157.458 83.0492 162.353C87.1311 167.255 94.4357 167.922 99.3373 163.841C100.964 162.486 102.125 160.779 102.801 158.908C102.97 158.443 103.115 157.964 103.222 157.481C103.342 156.93 103.424 156.375 103.463 155.81C103.676 152.923 102.823 149.952 100.825 147.552C100.745 147.457 100.66 147.354 100.573 147.264C100.617 146.996 100.666 146.736 100.727 146.476C101.07 145.136 101.769 143.987 102.76 143.162C103.752 142.336 105.008 141.857 106.388 141.762C106.654 141.749 106.927 141.741 107.196 141.759C107.27 141.861 107.349 141.957 107.429 142.052C109.421 144.445 112.189 145.822 115.066 146.136C115.628 146.2 116.189 146.219 116.753 146.202C117.247 146.183 117.751 146.134 118.238 146.053C120.201 145.727 122.09 144.895 123.717 143.541C128.619 139.459 129.286 132.154 125.204 127.253C121.128 122.357 113.818 121.683 108.916 125.765L108.917 125.766ZM100.674 156.605C100.313 158.562 99.284 160.413 97.6299 161.791C93.8556 164.933 88.2431 164.42 85.1007 160.646C81.9642 156.879 82.4713 151.26 86.2449 148.117C89.6568 145.277 94.5884 145.43 97.8213 148.284L97.8272 148.29C98.161 148.58 98.4781 148.906 98.7748 149.261C98.9457 149.467 99.1094 149.677 99.254 149.893C100.209 151.262 100.717 152.819 100.807 154.399C100.853 155.136 100.811 155.878 100.674 156.604V156.605ZM122.01 141.491C120.355 142.869 118.348 143.544 116.358 143.545C115.619 143.547 114.882 143.454 114.166 143.275C112.627 142.901 111.188 142.119 110.015 140.932C109.83 140.751 109.652 140.551 109.481 140.346C109.185 139.99 108.922 139.619 108.698 139.238L108.692 139.232C106.471 135.535 107.213 130.657 110.625 127.817C114.4 124.674 120.018 125.194 123.154 128.961C126.297 132.735 125.784 138.348 122.01 141.49V141.491Z" fill="url(#paint40_linear_34820_5489)"/>
<path d="M52.5178 24.9555C56.9713 24.9555 60.5815 21.3453 60.5815 16.8918C60.5815 12.4384 56.9713 8.82812 52.5178 8.82812C48.0643 8.82812 44.4541 12.4384 44.4541 16.8918C44.4541 21.3453 48.0643 24.9555 52.5178 24.9555Z" fill="#52D1BD"/>
<path d="M159.215 170.606C162.364 170.606 164.917 168.054 164.917 164.905C164.917 161.756 162.364 159.203 159.215 159.203C156.066 159.203 153.514 161.756 153.514 164.905C153.514 168.054 156.066 170.606 159.215 170.606Z" fill="#52D1BD"/>
<path d="M12.3454 168.577C14.3963 166.526 14.3963 163.201 12.3454 161.15C10.2945 159.099 6.9694 159.099 4.91853 161.15C2.86765 163.201 2.86764 166.526 4.91852 168.577C6.9694 170.628 10.2945 170.628 12.3454 168.577Z" fill="#52D1BD"/>
<path d="M28.528 134.65C30.3244 134.65 31.7807 133.194 31.7807 131.397C31.7807 129.601 30.3244 128.145 28.528 128.145C26.7317 128.145 25.2754 129.601 25.2754 131.397C25.2754 133.194 26.7317 134.65 28.528 134.65Z" fill="url(#paint41_linear_34820_5489)"/>
<path d="M191.791 74.2083C194.584 74.2083 196.848 71.9441 196.848 69.151C196.848 66.358 194.584 64.0938 191.791 64.0938C188.998 64.0938 186.733 66.358 186.733 69.151C186.733 71.9441 188.998 74.2083 191.791 74.2083Z" fill="url(#paint42_linear_34820_5489)"/>
</g>
<defs>
<linearGradient id="paint0_linear_34820_5489" x1="94.9415" y1="151.361" x2="130.121" y2="-58.0888" gradientUnits="userSpaceOnUse">
<stop stop-color="#C2DEFF"/>
<stop offset="0.55" stop-color="#E6F1FF"/>
<stop offset="1" stop-color="white"/>
</linearGradient>
<linearGradient id="paint1_linear_34820_5489" x1="72.0761" y1="186.362" x2="72.0761" y2="46.5154" gradientUnits="userSpaceOnUse">
<stop stop-color="#00B5FF"/>
<stop offset="0.04" stop-color="#03B7FF"/>
<stop offset="0.69" stop-color="#44DBFF"/>
<stop offset="1" stop-color="#5EEAFF"/>
</linearGradient>
<linearGradient id="paint2_linear_34820_5489" x1="67.1606" y1="101.347" x2="75.8603" y2="31.033" gradientUnits="userSpaceOnUse">
<stop stop-color="#C2DEFF"/>
<stop offset="0.55" stop-color="#E6F1FF"/>
<stop offset="1" stop-color="white"/>
</linearGradient>
<linearGradient id="paint3_linear_34820_5489" x1="70.8277" y1="120.015" x2="70.8277" y2="57.9207" gradientUnits="userSpaceOnUse">
<stop stop-color="#FF9024"/>
<stop offset="0.39" stop-color="#FFA329"/>
<stop offset="1" stop-color="#FFBC2F"/>
</linearGradient>
<linearGradient id="paint4_linear_34820_5489" x1="55.0173" y1="119.793" x2="55.725" y2="108.94" gradientUnits="userSpaceOnUse">
<stop stop-color="#C2DEFF"/>
<stop offset="0.55" stop-color="#E6F1FF"/>
<stop offset="1" stop-color="white"/>
</linearGradient>
<linearGradient id="paint5_linear_34820_5489" x1="83.1499" y1="123.27" x2="84.4031" y2="100.155" gradientUnits="userSpaceOnUse">
<stop stop-color="#C2DEFF"/>
<stop offset="0.55" stop-color="#E6F1FF"/>
<stop offset="1" stop-color="white"/>
</linearGradient>
<linearGradient id="paint6_linear_34820_5489" x1="80.6058" y1="133.581" x2="81.9979" y2="107.463" gradientUnits="userSpaceOnUse">
<stop stop-color="#C2DEFF"/>
<stop offset="0.55" stop-color="#E6F1FF"/>
<stop offset="1" stop-color="white"/>
</linearGradient>
<linearGradient id="paint7_linear_34820_5489" x1="82.9905" y1="141.768" x2="84.3826" y2="115.65" gradientUnits="userSpaceOnUse">
<stop stop-color="#C2DEFF"/>
<stop offset="0.55" stop-color="#E6F1FF"/>
<stop offset="1" stop-color="white"/>
</linearGradient>
<linearGradient id="paint8_linear_34820_5489" x1="119.211" y1="153.664" x2="119.211" y2="30.7751" gradientUnits="userSpaceOnUse">
<stop stop-color="#00B5FF"/>
<stop offset="0.04" stop-color="#03B7FF"/>
<stop offset="0.69" stop-color="#44DBFF"/>
<stop offset="1" stop-color="#5EEAFF"/>
</linearGradient>
<linearGradient id="paint9_linear_34820_5489" x1="119.886" y1="83.5332" x2="127.502" y2="36.5333" gradientUnits="userSpaceOnUse">
<stop stop-color="#C2DEFF"/>
<stop offset="0.55" stop-color="#E6F1FF"/>
<stop offset="1" stop-color="white"/>
</linearGradient>
<linearGradient id="paint10_linear_34820_5489" x1="121.016" y1="93.7381" x2="121.016" y2="85.4767" gradientUnits="userSpaceOnUse">
<stop stop-color="#FF9024"/>
<stop offset="0.39" stop-color="#FFA329"/>
<stop offset="1" stop-color="#FFBC2F"/>
</linearGradient>
<linearGradient id="paint11_linear_34820_5489" x1="120.802" y1="77.4958" x2="124.838" y2="52.5896" gradientUnits="userSpaceOnUse">
<stop stop-color="#C2DEFF"/>
<stop offset="0.55" stop-color="#E6F1FF"/>
<stop offset="1" stop-color="white"/>
</linearGradient>
<linearGradient id="paint12_linear_34820_5489" x1="99.3714" y1="37.5294" x2="99.3714" y2="31.3492" gradientUnits="userSpaceOnUse">
<stop stop-color="#FF9024"/>
<stop offset="0.39" stop-color="#FFA329"/>
<stop offset="1" stop-color="#FFBC2F"/>
</linearGradient>
<linearGradient id="paint13_linear_34820_5489" x1="117.633" y1="42.7231" x2="117.736" y2="35.76" gradientUnits="userSpaceOnUse">
<stop stop-color="#C2DEFF"/>
<stop offset="0.55" stop-color="#E6F1FF"/>
<stop offset="1" stop-color="white"/>
</linearGradient>
<linearGradient id="paint14_linear_34820_5489" x1="95.6034" y1="127.332" x2="94.4471" y2="96.6752" gradientUnits="userSpaceOnUse">
<stop stop-color="#FF9024"/>
<stop offset="0.39" stop-color="#FFA329"/>
<stop offset="1" stop-color="#FFBC2F"/>
</linearGradient>
<linearGradient id="paint15_linear_34820_5489" x1="108.932" y1="116.801" x2="111.522" y2="102.162" gradientUnits="userSpaceOnUse">
<stop stop-color="#C2DEFF"/>
<stop offset="0.55" stop-color="#E6F1FF"/>
<stop offset="1" stop-color="white"/>
</linearGradient>
<linearGradient id="paint16_linear_34820_5489" x1="123.852" y1="124.178" x2="123.021" y2="102.123" gradientUnits="userSpaceOnUse">
<stop stop-color="#FF9024"/>
<stop offset="0.39" stop-color="#FFA329"/>
<stop offset="1" stop-color="#FFBC2F"/>
</linearGradient>
<linearGradient id="paint17_linear_34820_5489" x1="137.292" y1="116.652" x2="138.27" y2="106.987" gradientUnits="userSpaceOnUse">
<stop stop-color="#C2DEFF"/>
<stop offset="0.55" stop-color="#E6F1FF"/>
<stop offset="1" stop-color="white"/>
</linearGradient>
<linearGradient id="paint18_linear_34820_5489" x1="152.215" y1="124.032" x2="151.241" y2="98.1906" gradientUnits="userSpaceOnUse">
<stop stop-color="#FF9024"/>
<stop offset="0.39" stop-color="#FFA329"/>
<stop offset="1" stop-color="#FFBC2F"/>
</linearGradient>
<linearGradient id="paint19_linear_34820_5489" x1="159.233" y1="99.1349" x2="153.99" y2="93.3647" gradientUnits="userSpaceOnUse">
<stop stop-color="#00B5FF"/>
<stop offset="0.04" stop-color="#03B7FF"/>
<stop offset="0.69" stop-color="#44DBFF"/>
<stop offset="1" stop-color="#5EEAFF"/>
</linearGradient>
<linearGradient id="paint20_linear_34820_5489" x1="142.451" y1="106.251" x2="142.451" y2="64.0993" gradientUnits="userSpaceOnUse">
<stop stop-color="#00B5FF"/>
<stop offset="0.04" stop-color="#03B7FF"/>
<stop offset="0.69" stop-color="#44DBFF"/>
<stop offset="1" stop-color="#5EEAFF"/>
</linearGradient>
<linearGradient id="paint21_linear_34820_5489" x1="166.188" y1="123.861" x2="166.188" y2="95.8103" gradientUnits="userSpaceOnUse">
<stop stop-color="#00B5FF"/>
<stop offset="0.04" stop-color="#03B7FF"/>
<stop offset="0.69" stop-color="#44DBFF"/>
<stop offset="1" stop-color="#5EEAFF"/>
</linearGradient>
<linearGradient id="paint22_linear_34820_5489" x1="21.8999" y1="109.967" x2="21.8999" y2="42.1941" gradientUnits="userSpaceOnUse">
<stop stop-color="#00B5FF"/>
<stop offset="0.04" stop-color="#03B7FF"/>
<stop offset="0.69" stop-color="#44DBFF"/>
<stop offset="1" stop-color="#5EEAFF"/>
</linearGradient>
<linearGradient id="paint23_linear_34820_5489" x1="8.5777" y1="47.3656" x2="9.83352" y2="41.6916" gradientUnits="userSpaceOnUse">
<stop stop-color="#00B5FF"/>
<stop offset="0.04" stop-color="#03B7FF"/>
<stop offset="0.69" stop-color="#44DBFF"/>
<stop offset="1" stop-color="#5EEAFF"/>
</linearGradient>
<linearGradient id="paint24_linear_34820_5489" x1="7.28375" y1="53.2172" x2="8.53958" y2="47.5432" gradientUnits="userSpaceOnUse">
<stop stop-color="#00B5FF"/>
<stop offset="0.04" stop-color="#03B7FF"/>
<stop offset="0.69" stop-color="#44DBFF"/>
<stop offset="1" stop-color="#5EEAFF"/>
</linearGradient>
<linearGradient id="paint25_linear_34820_5489" x1="20.8979" y1="106.74" x2="20.8979" y2="38.9676" gradientUnits="userSpaceOnUse">
<stop stop-color="#00B5FF"/>
<stop offset="0.04" stop-color="#03B7FF"/>
<stop offset="0.69" stop-color="#44DBFF"/>
<stop offset="1" stop-color="#5EEAFF"/>
</linearGradient>
<linearGradient id="paint26_linear_34820_5489" x1="25.8587" y1="54.1934" x2="26.2359" y2="46.8792" gradientUnits="userSpaceOnUse">
<stop stop-color="#C2DEFF"/>
<stop offset="0.55" stop-color="#E6F1FF"/>
<stop offset="1" stop-color="white"/>
</linearGradient>
<linearGradient id="paint27_linear_34820_5489" x1="21.7619" y1="58.6814" x2="22.1824" y2="49.9511" gradientUnits="userSpaceOnUse">
<stop stop-color="#C2DEFF"/>
<stop offset="0.55" stop-color="#E6F1FF"/>
<stop offset="1" stop-color="white"/>
</linearGradient>
<linearGradient id="paint28_linear_34820_5489" x1="20.714" y1="63.4119" x2="21.1345" y2="54.6816" gradientUnits="userSpaceOnUse">
<stop stop-color="#C2DEFF"/>
<stop offset="0.55" stop-color="#E6F1FF"/>
<stop offset="1" stop-color="white"/>
</linearGradient>
<linearGradient id="paint29_linear_34820_5489" x1="19.6652" y1="68.1424" x2="20.0857" y2="59.412" gradientUnits="userSpaceOnUse">
<stop stop-color="#C2DEFF"/>
<stop offset="0.55" stop-color="#E6F1FF"/>
<stop offset="1" stop-color="white"/>
</linearGradient>
<linearGradient id="paint30_linear_34820_5489" x1="15.8801" y1="71.7931" x2="16.254" y2="64.5927" gradientUnits="userSpaceOnUse">
<stop stop-color="#C2DEFF"/>
<stop offset="0.55" stop-color="#E6F1FF"/>
<stop offset="1" stop-color="white"/>
</linearGradient>
<linearGradient id="paint31_linear_34820_5489" x1="17.5685" y1="77.5994" x2="17.989" y2="68.8691" gradientUnits="userSpaceOnUse">
<stop stop-color="#C2DEFF"/>
<stop offset="0.55" stop-color="#E6F1FF"/>
<stop offset="1" stop-color="white"/>
</linearGradient>
<linearGradient id="paint32_linear_34820_5489" x1="16.5207" y1="82.3338" x2="16.9412" y2="73.6035" gradientUnits="userSpaceOnUse">
<stop stop-color="#C2DEFF"/>
<stop offset="0.55" stop-color="#E6F1FF"/>
<stop offset="1" stop-color="white"/>
</linearGradient>
<linearGradient id="paint33_linear_34820_5489" x1="159.064" y1="93.1158" x2="132.794" y2="66.8463" gradientUnits="userSpaceOnUse">
<stop stop-color="#00B5FF"/>
<stop offset="0.04" stop-color="#03B7FF"/>
<stop offset="0.69" stop-color="#44DBFF"/>
<stop offset="1" stop-color="#5EEAFF"/>
</linearGradient>
<linearGradient id="paint34_linear_34820_5489" x1="159.899" y1="95.6388" x2="154.656" y2="89.8686" gradientUnits="userSpaceOnUse">
<stop stop-color="#00B5FF"/>
<stop offset="0.04" stop-color="#03B7FF"/>
<stop offset="0.69" stop-color="#44DBFF"/>
<stop offset="1" stop-color="#5EEAFF"/>
</linearGradient>
<linearGradient id="paint35_linear_34820_5489" x1="143.117" y1="102.755" x2="143.117" y2="60.6032" gradientUnits="userSpaceOnUse">
<stop stop-color="#00B5FF"/>
<stop offset="0.04" stop-color="#03B7FF"/>
<stop offset="0.69" stop-color="#44DBFF"/>
<stop offset="1" stop-color="#5EEAFF"/>
</linearGradient>
<linearGradient id="paint36_linear_34820_5489" x1="166.855" y1="120.365" x2="166.855" y2="92.3142" gradientUnits="userSpaceOnUse">
<stop stop-color="#00B5FF"/>
<stop offset="0.04" stop-color="#03B7FF"/>
<stop offset="0.69" stop-color="#44DBFF"/>
<stop offset="1" stop-color="#5EEAFF"/>
</linearGradient>
<linearGradient id="paint37_linear_34820_5489" x1="106.9" y1="173.984" x2="106.9" y2="131.004" gradientUnits="userSpaceOnUse">
<stop stop-color="#00B5FF"/>
<stop offset="0.04" stop-color="#03B7FF"/>
<stop offset="0.69" stop-color="#44DBFF"/>
<stop offset="1" stop-color="#5EEAFF"/>
</linearGradient>
<linearGradient id="paint38_linear_34820_5489" x1="103.352" y1="168.863" x2="103.352" y2="133.129" gradientUnits="userSpaceOnUse">
<stop stop-color="#00B5FF"/>
<stop offset="0.04" stop-color="#03B7FF"/>
<stop offset="0.69" stop-color="#44DBFF"/>
<stop offset="1" stop-color="#5EEAFF"/>
</linearGradient>
<linearGradient id="paint39_linear_34820_5489" x1="106.628" y1="169.358" x2="106.628" y2="128.714" gradientUnits="userSpaceOnUse">
<stop stop-color="#00B5FF"/>
<stop offset="0.04" stop-color="#03B7FF"/>
<stop offset="0.69" stop-color="#44DBFF"/>
<stop offset="1" stop-color="#5EEAFF"/>
</linearGradient>
<linearGradient id="paint40_linear_34820_5489" x1="104.128" y1="175.217" x2="104.128" y2="125.12" gradientUnits="userSpaceOnUse">
<stop stop-color="#00B5FF"/>
<stop offset="0.04" stop-color="#03B7FF"/>
<stop offset="0.69" stop-color="#44DBFF"/>
<stop offset="1" stop-color="#5EEAFF"/>
</linearGradient>
<linearGradient id="paint41_linear_34820_5489" x1="28.5279" y1="136.818" x2="28.5279" y2="127.87" gradientUnits="userSpaceOnUse">
<stop stop-color="#FF9024"/>
<stop offset="0.39" stop-color="#FFA329"/>
<stop offset="1" stop-color="#FFBC2F"/>
</linearGradient>
<linearGradient id="paint42_linear_34820_5489" x1="191.79" y1="77.5791" x2="191.79" y2="63.6664" gradientUnits="userSpaceOnUse">
<stop stop-color="#FF9024"/>
<stop offset="0.39" stop-color="#FFA329"/>
<stop offset="1" stop-color="#FFBC2F"/>
</linearGradient>
</defs>
</svg>
