<svg width="20" height="21" viewBox="0 0 20 21" fill="none" xmlns="http://www.w3.org/2000/svg">
<g clip-path="url(#clip0_33050_4572)">
<mask id="path-1-inside-1_33050_4572" fill="white">
<path d="M19.3923 8.34904C18.64 7.11714 17.6911 6.01675 16.5831 5.09154L18.9165 2.75821C19.0683 2.60104 19.1523 2.39054 19.1504 2.17204C19.1485 1.95354 19.0608 1.74453 18.9063 1.59003C18.7518 1.43552 18.5428 1.34788 18.3243 1.34598C18.1058 1.34408 17.8953 1.42808 17.7381 1.57987L15.2006 4.12071C13.6276 3.18639 11.8293 2.69943 9.9998 2.71237C4.84063 2.71237 1.90063 6.24404 0.607299 8.34904C0.207739 8.9953 -0.00390625 9.74008 -0.00390625 10.4999C-0.00390625 11.2597 0.207739 12.0045 0.607299 12.6507C1.3596 13.8826 2.30854 14.983 3.41646 15.9082L1.08313 18.2415C1.00354 18.3184 0.940055 18.4104 0.896381 18.512C0.852707 18.6137 0.829718 18.7231 0.828757 18.8337C0.827795 18.9444 0.84888 19.0541 0.890781 19.1565C0.932681 19.2589 0.994559 19.352 1.0728 19.4302C1.15105 19.5084 1.24409 19.5703 1.3465 19.6122C1.44892 19.6541 1.55865 19.6752 1.6693 19.6742C1.77995 19.6733 1.8893 19.6503 1.99097 19.6066C2.09264 19.563 2.18459 19.4995 2.26147 19.4199L4.8048 16.8765C6.37585 17.8107 8.17202 18.2985 9.9998 18.2874C15.159 18.2874 18.099 14.7557 19.3923 12.6507C19.7919 12.0045 20.0035 11.2597 20.0035 10.4999C20.0035 9.74008 19.7919 8.9953 19.3923 8.34904ZM2.0273 11.7782C1.78991 11.3941 1.66417 10.9514 1.66417 10.4999C1.66417 10.0483 1.78991 9.60567 2.0273 9.22154C3.13897 7.41654 5.65147 4.37904 9.9998 4.37904C11.3834 4.37129 12.7475 4.70474 13.9715 5.34987L12.294 7.02737C11.4939 6.49621 10.5347 6.2582 9.57916 6.35375C8.6236 6.44929 7.73052 6.87249 7.05147 7.55154C6.37241 8.2306 5.94921 9.12367 5.85367 10.0792C5.75813 11.0348 5.99613 11.994 6.5273 12.794L4.6023 14.719C3.58155 13.8938 2.7105 12.899 2.0273 11.7782ZM12.4998 10.4999C12.4998 11.1629 12.2364 11.7988 11.7676 12.2676C11.2987 12.7365 10.6628 12.9999 9.9998 12.9999C9.62856 12.9984 9.26246 12.913 8.92897 12.7499L12.2498 9.42904C12.4129 9.76254 12.4984 10.1286 12.4998 10.4999ZM7.4998 10.4999C7.4998 9.83683 7.76319 9.20095 8.23203 8.73211C8.70087 8.26327 9.33676 7.99987 9.9998 7.99987C10.371 8.00131 10.7371 8.08678 11.0706 8.24987L7.7498 11.5707C7.58671 11.2372 7.50124 10.8711 7.4998 10.4999ZM17.9723 11.7782C16.8606 13.5832 14.3481 16.6207 9.9998 16.6207C8.61624 16.6285 7.2521 16.295 6.02813 15.6499L7.70563 13.9724C8.50569 14.5035 9.46488 14.7415 10.4204 14.646C11.376 14.5505 12.2691 14.1273 12.9481 13.4482C13.6272 12.7692 14.0504 11.8761 14.1459 10.9205C14.2415 9.96495 14.0035 9.00576 13.4723 8.20571L15.3973 6.28071C16.418 7.10594 17.2891 8.10075 17.9723 9.22154C18.2097 9.60567 18.3354 10.0483 18.3354 10.4999C18.3354 10.9514 18.2097 11.3941 17.9723 11.7782Z"/>
</mask>
<path d="M19.3923 8.34904C18.64 7.11714 17.6911 6.01675 16.5831 5.09154L18.9165 2.75821C19.0683 2.60104 19.1523 2.39054 19.1504 2.17204C19.1485 1.95354 19.0608 1.74453 18.9063 1.59003C18.7518 1.43552 18.5428 1.34788 18.3243 1.34598C18.1058 1.34408 17.8953 1.42808 17.7381 1.57987L15.2006 4.12071C13.6276 3.18639 11.8293 2.69943 9.9998 2.71237C4.84063 2.71237 1.90063 6.24404 0.607299 8.34904C0.207739 8.9953 -0.00390625 9.74008 -0.00390625 10.4999C-0.00390625 11.2597 0.207739 12.0045 0.607299 12.6507C1.3596 13.8826 2.30854 14.983 3.41646 15.9082L1.08313 18.2415C1.00354 18.3184 0.940055 18.4104 0.896381 18.512C0.852707 18.6137 0.829718 18.7231 0.828757 18.8337C0.827795 18.9444 0.84888 19.0541 0.890781 19.1565C0.932681 19.2589 0.994559 19.352 1.0728 19.4302C1.15105 19.5084 1.24409 19.5703 1.3465 19.6122C1.44892 19.6541 1.55865 19.6752 1.6693 19.6742C1.77995 19.6733 1.8893 19.6503 1.99097 19.6066C2.09264 19.563 2.18459 19.4995 2.26147 19.4199L4.8048 16.8765C6.37585 17.8107 8.17202 18.2985 9.9998 18.2874C15.159 18.2874 18.099 14.7557 19.3923 12.6507C19.7919 12.0045 20.0035 11.2597 20.0035 10.4999C20.0035 9.74008 19.7919 8.9953 19.3923 8.34904ZM2.0273 11.7782C1.78991 11.3941 1.66417 10.9514 1.66417 10.4999C1.66417 10.0483 1.78991 9.60567 2.0273 9.22154C3.13897 7.41654 5.65147 4.37904 9.9998 4.37904C11.3834 4.37129 12.7475 4.70474 13.9715 5.34987L12.294 7.02737C11.4939 6.49621 10.5347 6.2582 9.57916 6.35375C8.6236 6.44929 7.73052 6.87249 7.05147 7.55154C6.37241 8.2306 5.94921 9.12367 5.85367 10.0792C5.75813 11.0348 5.99613 11.994 6.5273 12.794L4.6023 14.719C3.58155 13.8938 2.7105 12.899 2.0273 11.7782ZM12.4998 10.4999C12.4998 11.1629 12.2364 11.7988 11.7676 12.2676C11.2987 12.7365 10.6628 12.9999 9.9998 12.9999C9.62856 12.9984 9.26246 12.913 8.92897 12.7499L12.2498 9.42904C12.4129 9.76254 12.4984 10.1286 12.4998 10.4999ZM7.4998 10.4999C7.4998 9.83683 7.76319 9.20095 8.23203 8.73211C8.70087 8.26327 9.33676 7.99987 9.9998 7.99987C10.371 8.00131 10.7371 8.08678 11.0706 8.24987L7.7498 11.5707C7.58671 11.2372 7.50124 10.8711 7.4998 10.4999ZM17.9723 11.7782C16.8606 13.5832 14.3481 16.6207 9.9998 16.6207C8.61624 16.6285 7.2521 16.295 6.02813 15.6499L7.70563 13.9724C8.50569 14.5035 9.46488 14.7415 10.4204 14.646C11.376 14.5505 12.2691 14.1273 12.9481 13.4482C13.6272 12.7692 14.0504 11.8761 14.1459 10.9205C14.2415 9.96495 14.0035 9.00576 13.4723 8.20571L15.3973 6.28071C16.418 7.10594 17.2891 8.10075 17.9723 9.22154C18.2097 9.60567 18.3354 10.0483 18.3354 10.4999C18.3354 10.9514 18.2097 11.3941 17.9723 11.7782Z" fill="#242133"/>
<path d="M16.5831 5.09154L1.49819 -9.99341L-15.0032 6.50798L2.90894 21.4661L16.5831 5.09154ZM18.9165 2.75821L34.0014 17.8432L34.1325 17.7121L34.2613 17.5787L18.9165 2.75821ZM17.7381 1.57987L2.91761 -13.7649L2.77923 -13.6313L2.64329 -13.4952L17.7381 1.57987ZM15.2006 4.12071L4.30618 22.4625L18.5712 30.9355L30.2955 19.1957L15.2006 4.12071ZM9.9998 2.71237V24.0457H10.0753L10.1508 24.0452L9.9998 2.71237ZM0.607299 8.34904L18.7526 19.5677L18.7683 19.5424L18.7839 19.5169L0.607299 8.34904ZM0.607299 12.6507L18.8141 1.53212L18.7835 1.48198L18.7526 1.43202L0.607299 12.6507ZM3.41646 15.9082L18.5014 30.9931L35.0028 14.4918L17.0907 -0.466397L3.41646 15.9082ZM1.08313 18.2415L15.9037 33.5864L16.037 33.4576L16.1681 33.3265L1.08313 18.2415ZM2.26147 19.4199L-12.8235 4.33493L-12.9546 4.46601L-13.0834 4.59936L2.26147 19.4199ZM4.8048 16.8765L15.7079 -1.4601L1.44966 -9.93822L-10.2801 1.7916L4.8048 16.8765ZM9.9998 18.2874V-3.04596H9.93486L9.86993 -3.04557L9.9998 18.2874ZM19.3923 12.6507L1.24699 1.43202L1.2313 1.45739L1.21569 1.48281L19.3923 12.6507ZM2.0273 9.22154L20.1749 20.4365L20.1834 20.4227L20.192 20.4088L2.0273 9.22154ZM9.9998 4.37904V25.7124H10.0596L10.1193 25.712L9.9998 4.37904ZM13.9715 5.34987L29.0564 20.4348L49.5197 -0.0285099L23.9187 -13.5224L13.9715 5.34987ZM12.294 7.02737L0.494303 24.8004L15.0363 34.4549L27.3789 22.1123L12.294 7.02737ZM6.5273 12.794L21.6122 27.879L33.9549 15.5364L24.3003 0.994378L6.5273 12.794ZM4.6023 14.719L-8.80994 31.3089L6.11562 43.3756L19.6872 29.804L4.6023 14.719ZM9.9998 12.9999L9.91721 34.333L9.9585 34.3332H9.9998V12.9999ZM8.92897 12.7499L-6.15598 -2.33507L-27.2808 18.7897L-0.443134 31.9143L8.92897 12.7499ZM12.2498 9.42904L31.4142 0.0569413L18.2896 -26.7807L-2.83515 -5.6559L12.2498 9.42904ZM7.4998 10.4999H-13.8335V10.5412L-13.8334 10.5825L7.4998 10.4999ZM9.9998 7.99987L10.0824 -13.3333L10.0411 -13.3335H9.9998V7.99987ZM11.0706 8.24987L26.1556 23.3348L47.2804 2.21004L20.4427 -10.9145L11.0706 8.24987ZM7.7498 11.5707L-11.4146 20.9428L1.70996 47.7804L22.8347 26.6557L7.7498 11.5707ZM9.9998 16.6207V-4.71263H9.94004L9.88028 -4.71229L9.9998 16.6207ZM6.02813 15.6499L-9.05682 0.564935L-29.5201 21.0283L-3.91915 34.5221L6.02813 15.6499ZM7.70563 13.9724L19.5053 -3.80062L4.9633 -13.4552L-7.37932 -1.11257L7.70563 13.9724ZM13.4723 8.20571L-1.61265 -6.87924L-13.9553 5.46338L-4.30069 20.0054L13.4723 8.20571ZM15.3973 6.28071L28.8095 -10.3091L13.884 -22.3759L0.312353 -8.80424L15.3973 6.28071ZM17.9723 9.22154L-0.243554 20.3253L-0.209596 20.381L-0.175297 20.4365L17.9723 9.22154ZM37.5991 -2.76955C35.633 -5.98913 33.1529 -8.86501 30.2573 -11.2831L2.90894 21.4661C2.22922 20.8985 1.64703 20.2234 1.18548 19.4676L37.5991 -2.76955ZM31.6681 20.1765L34.0014 17.8432L3.83152 -12.3267L1.49819 -9.99341L31.6681 20.1765ZM34.2613 17.5787C38.2991 13.398 40.5334 7.79869 40.4829 1.98667L-2.18217 2.35741C-2.22888 -3.01761 -0.162595 -8.19596 3.57165 -12.0623L34.2613 17.5787ZM40.4829 1.98667C40.4324 -3.82541 38.1011 -9.38507 33.9913 -13.4949L3.82137 16.675C0.0205326 12.8741 -2.13546 7.73249 -2.18217 2.35741L40.4829 1.98667ZM33.9913 -13.4949C29.8814 -17.6048 24.3217 -19.936 18.5097 -19.9865L18.1389 22.6785C12.7639 22.6318 7.62224 20.4758 3.82137 16.675L33.9913 -13.4949ZM18.5097 -19.9865C12.6976 -20.0371 7.0983 -17.8028 2.91761 -13.7649L32.5587 16.9247C28.6923 20.6589 23.514 22.7252 18.1389 22.6785L18.5097 -19.9865ZM2.64329 -13.4952L0.105788 -10.9543L30.2955 19.1957L32.833 16.6549L2.64329 -13.4952ZM26.0951 -14.2211C21.1814 -17.1397 15.5638 -18.6609 9.84884 -18.6204L10.1508 24.0452C8.09479 24.0597 6.07389 23.5125 4.30618 22.4625L26.0951 -14.2211ZM9.9998 -18.621C-6.29018 -18.621 -14.8507 -7.2436 -17.5693 -2.81886L18.7839 19.5169C18.5362 19.9202 17.9018 20.8805 16.5817 21.8619C15.0083 23.0316 12.6622 24.0457 9.9998 24.0457V-18.621ZM-17.538 -2.86965C-20.0217 1.14746 -21.3372 5.77699 -21.3372 10.4999H21.3294C21.3294 13.7032 20.4371 16.8431 18.7526 19.5677L-17.538 -2.86965ZM-21.3372 10.4999C-21.3372 15.2228 -20.0217 19.8523 -17.538 23.8694L18.7526 1.43202C20.4371 4.15661 21.3294 7.29658 21.3294 10.4999H-21.3372ZM-17.5995 23.7693C-15.6334 26.9889 -13.1533 29.8648 -10.2577 32.2828L17.0907 -0.466397C17.7704 0.101236 18.3526 0.776341 18.8141 1.53212L-17.5995 23.7693ZM-11.6685 0.823266L-14.0018 3.1566L16.1681 33.3265L18.5014 30.9931L-11.6685 0.823266ZM-13.7374 2.89673C-15.8545 4.94149 -17.5432 7.38745 -18.705 10.0919L20.4977 26.9321C19.4233 29.4333 17.8616 31.6953 15.9037 33.5864L-13.7374 2.89673ZM-18.705 10.0919C-19.8667 12.7963 -20.4782 15.7051 -20.5038 18.6483L22.1613 19.0191C22.1376 21.7411 21.5721 24.4311 20.4977 26.9321L-18.705 10.0919ZM-20.5038 18.6483C-20.5293 21.5916 -19.9685 24.5105 -18.8539 27.2347L20.6355 11.0783C21.6663 13.5977 22.1849 16.2971 22.1613 19.0191L-20.5038 18.6483ZM-18.8539 27.2347C-17.7393 29.959 -16.0934 32.4339 -14.0121 34.5151L16.1577 4.34526C18.0825 6.27 19.6047 8.55885 20.6355 11.0783L-18.8539 27.2347ZM-14.0121 34.5151C-11.9309 36.5964 -9.45599 38.2423 -6.7317 39.3569L9.42471 -0.132489C11.9442 0.898304 14.233 2.42052 16.1577 4.34526L-14.0121 34.5151ZM-6.7317 39.3569C-4.00747 40.4715 -1.08858 41.0324 1.85467 41.0068L1.48393 -1.65828C4.20588 -1.68193 6.90531 -1.16326 9.42471 -0.132489L-6.7317 39.3569ZM1.85467 41.0068C4.79806 40.9812 7.70676 40.3697 10.4111 39.208L-6.42914 0.00527561C-3.92816 -1.06907 -1.23816 -1.63462 1.48393 -1.65828L1.85467 41.0068ZM10.4111 39.208C13.1154 38.0463 15.5614 36.3576 17.6063 34.2404L-13.0834 4.59936C-11.1922 2.64132 -8.93012 1.07962 -6.42914 0.00527561L10.4111 39.208ZM17.3464 34.5048L19.8897 31.9615L-10.2801 1.7916L-12.8235 4.33493L17.3464 34.5048ZM-6.09835 35.2132C-1.19071 38.1313 4.42012 39.6551 10.1297 39.6203L9.86993 -3.04557C11.9239 -3.05807 13.9424 -2.5099 15.7079 -1.4601L-6.09835 35.2132ZM9.9998 39.6207C26.2898 39.6207 34.8503 28.2433 37.5689 23.8186L1.21569 1.48281C1.46343 1.0796 2.0978 0.119261 3.41785 -0.862103C4.99132 -2.03187 7.33737 -3.04596 9.9998 -3.04596V39.6207ZM37.5376 23.8694C40.0213 19.8523 41.3368 15.2228 41.3368 10.4999H-1.32983C-1.32983 7.29658 -0.43754 4.15661 1.24699 1.43202L37.5376 23.8694ZM41.3368 10.4999C41.3368 5.77698 40.0213 1.14745 37.5376 -2.86965L1.24699 19.5677C-0.43754 16.8431 -1.32983 13.7032 -1.32983 10.4999H41.3368ZM20.1749 0.563219C22.0201 3.54911 22.9975 6.98982 22.9975 10.4999H-19.6692C-19.6692 14.913 -18.4403 19.239 -16.1203 22.9932L20.1749 0.563219ZM22.9975 10.4999C22.9975 14.0099 22.0201 17.4506 20.1749 20.4365L-16.1203 -1.99345C-18.4403 1.7607 -19.6692 6.0867 -19.6692 10.4999H22.9975ZM20.192 20.4088C19.8836 20.9095 19.1275 22.042 17.6167 23.1774C15.8568 24.5001 13.1741 25.7124 9.9998 25.7124V-16.9543C-5.61085 -16.9543 -13.7222 -5.88718 -16.1374 -1.96576L20.192 20.4088ZM10.1193 25.712C7.99603 25.7239 5.90255 25.2122 4.02418 24.2221L23.9187 -13.5224C19.5924 -15.8027 14.7707 -16.9814 9.88028 -16.954L10.1193 25.712ZM-1.11348 -9.73507L-2.79098 -8.05757L27.3789 22.1123L29.0564 20.4348L-1.11348 -9.73507ZM24.0936 -10.7456C19.1907 -14.0007 13.3126 -15.4592 7.45674 -14.8737L11.7016 27.5812C7.75682 27.9757 3.7971 26.9931 0.494303 24.8004L24.0936 -10.7456ZM7.45674 -14.8737C1.60086 -14.2883 -3.8721 -11.6948 -8.03348 -7.5334L22.1364 22.6365C19.3331 25.4398 15.6463 27.1868 11.7016 27.5812L7.45674 -14.8737ZM-8.03348 -7.5334C-12.1949 -3.37203 -14.7883 2.10093 -15.3738 7.95681L27.0812 12.2017C26.6867 16.1464 24.9397 19.8332 22.1364 22.6365L-8.03348 -7.5334ZM-15.3738 7.95681C-15.9593 13.8127 -14.5008 19.6908 -11.2457 24.5937L24.3003 0.994378C26.493 4.29717 27.4756 8.2569 27.0812 12.2017L-15.3738 7.95681ZM-8.55765 -2.2909L-10.4826 -0.365905L19.6872 29.804L21.6122 27.879L-8.55765 -2.2909ZM18.0145 -1.87081C18.898 -1.15658 19.6519 -0.29559 20.2432 0.67443L-16.1886 22.882C-14.2309 26.0936 -11.7349 28.9442 -8.80994 31.3089L18.0145 -1.87081ZM-8.83354 10.4999C-8.83354 5.50497 -6.84932 0.714638 -3.31738 -2.8173L26.8525 27.3526C31.3221 22.883 33.8331 16.8209 33.8331 10.4999H-8.83354ZM-3.31738 -2.8173C0.214563 -6.34925 5.0049 -8.33346 9.9998 -8.33346V34.3332C16.3208 34.3332 22.3829 31.8222 26.8525 27.3526L-3.31738 -2.8173ZM10.0824 -8.3333C12.9317 -8.32227 15.7415 -7.66628 18.3011 -6.41454L-0.443134 31.9143C2.78347 33.4922 6.32545 34.3191 9.91721 34.333L10.0824 -8.3333ZM24.0139 27.8348L27.3347 24.514L-2.83515 -5.6559L-6.15598 -2.33507L24.0139 27.8348ZM-6.91462 18.8011C-8.16636 16.2415 -8.82234 13.4317 -8.83338 10.5825L33.833 10.4173C33.8191 6.82553 32.9921 3.28354 31.4142 0.0569413L-6.91462 18.8011ZM28.8331 10.4999C28.8331 15.4948 26.8489 20.2851 23.317 23.8171L-6.85291 -6.35284C-11.3225 -1.88321 -13.8335 4.17889 -13.8335 10.4999H28.8331ZM23.317 23.8171C19.785 27.349 14.9947 29.3332 9.9998 29.3332V-13.3335C3.67882 -13.3335 -2.38328 -10.8225 -6.85291 -6.35284L23.317 23.8171ZM9.91721 29.333C7.06795 29.322 4.25815 28.666 1.69853 27.4143L20.4427 -10.9145C17.2161 -12.4925 13.6741 -13.3194 10.0824 -13.3333L9.91721 29.333ZM-4.01431 -6.83507L-7.33515 -3.51424L22.8347 26.6557L26.1556 23.3348L-4.01431 -6.83507ZM26.9142 2.19861C28.166 4.75821 28.8219 7.56801 28.833 10.4173L-13.8334 10.5825C-13.8195 14.1742 -12.9925 17.7162 -11.4146 20.9428L26.9142 2.19861ZM-0.192381 0.590911C0.115986 0.0902202 0.872115 -1.04222 2.38289 -2.17764C4.14283 -3.50033 6.82551 -4.71263 9.9998 -4.71263V37.954C25.6105 37.954 33.7218 26.8869 36.137 22.9655L-0.192381 0.590911ZM9.88028 -4.71229C12.0036 -4.72419 14.097 -4.21246 15.9754 -3.2224L-3.91915 34.5221C0.407165 36.8025 5.22891 37.9811 10.1193 37.9537L9.88028 -4.71229ZM21.1131 30.7348L22.7906 29.0573L-7.37932 -1.11257L-9.05682 0.564935L21.1131 30.7348ZM-4.09403 31.7454C0.808888 35.0005 6.68699 36.459 12.5429 35.8735L8.29802 -6.58149C12.2428 -6.97591 16.2025 -5.99338 19.5053 -3.80062L-4.09403 31.7454ZM12.5429 35.8735C18.3987 35.288 23.8717 32.6945 28.0331 28.5331L-2.13681 -1.63674C0.666466 -4.44002 4.35328 -6.18708 8.29802 -6.58149L12.5429 35.8735ZM28.0331 28.5331C32.1945 24.3718 34.7879 18.8988 35.3734 13.0429L-7.08157 8.79809C-6.68715 4.85335 -4.9401 1.16654 -2.13681 -1.63674L28.0331 28.5331ZM35.3734 13.0429C35.9589 7.18707 34.5004 1.30896 31.2453 -3.59396L-4.30069 20.0054C-6.49346 16.7026 -7.47598 12.7428 -7.08157 8.79809L35.3734 13.0429ZM28.5572 23.2907L30.4822 21.3657L0.312353 -8.80424L-1.61265 -6.87924L28.5572 23.2907ZM1.98506 22.8706C1.10163 22.1563 0.347743 21.2953 -0.243554 20.3253L36.1881 -1.88224C34.2305 -5.09385 31.7345 -7.94445 28.8095 -10.3091L1.98506 22.8706ZM-0.175297 20.4365C-2.02055 17.4506 -2.99791 14.0099 -2.99791 10.4999H39.6688C39.6688 6.08671 38.4399 1.76071 36.1199 -1.99345L-0.175297 20.4365ZM-2.99791 10.4999C-2.99791 6.98984 -2.02055 3.54912 -0.175297 0.563219L36.1199 22.9932C38.4399 19.239 39.6688 14.913 39.6688 10.4999H-2.99791Z" fill="#494C5D" mask="url(#path-1-inside-1_33050_4572)"/>
</g>
<defs>
<clipPath id="clip0_33050_4572">
<rect width="20" height="20" fill="white" transform="translate(0 0.5)"/>
</clipPath>
</defs>
</svg>
