<svg width="17" height="16" viewBox="0 0 17 16" fill="none" xmlns="http://www.w3.org/2000/svg">
<path d="M14.8906 6.80137H9.69063V1.60137C9.69063 0.945367 9.14663 0.401367 8.49062 0.401367C7.83463 0.401367 7.29063 0.945367 7.29063 1.60137V6.80137H2.09063C1.43463 6.80137 0.890625 7.34537 0.890625 8.00137C0.890625 8.65737 1.43463 9.20137 2.09063 9.20137H7.29063V14.4014C7.29063 15.0574 7.83463 15.6014 8.49062 15.6014C9.14663 15.6014 9.69063 15.0574 9.69063 14.4014V9.20137H14.8906C15.5466 9.20137 16.0906 8.65737 16.0906 8.00137C16.0906 7.34537 15.5466 6.80137 14.8906 6.80137Z" fill="white"/>
</svg>
