<svg width="12" height="13" viewBox="0 0 12 13" fill="none" xmlns="http://www.w3.org/2000/svg">
<g clip-path="url(#clip0_33029_4303)">
<path d="M11.5001 6.05496C11.3675 6.05496 11.2404 6.00228 11.1466 5.90851C11.0528 5.81474 11.0001 5.68757 11.0001 5.55496C10.9991 4.49442 10.5773 3.47762 9.8274 2.7277C9.07749 1.97778 8.06069 1.55602 7.00015 1.55496C6.86754 1.55496 6.74036 1.50228 6.64659 1.40851C6.55283 1.31474 6.50015 1.18757 6.50015 1.05496C6.50015 0.922349 6.55283 0.795172 6.64659 0.701404C6.74036 0.607635 6.86754 0.554957 7.00015 0.554957C8.32578 0.556413 9.59671 1.08366 10.5341 2.02103C11.4714 2.9584 11.9987 4.22932 12.0001 5.55496C12.0001 5.68757 11.9475 5.81474 11.8537 5.90851C11.7599 6.00228 11.6328 6.05496 11.5001 6.05496ZM10.0001 5.55496C10.0001 4.75931 9.68408 3.99625 9.12147 3.43364C8.55886 2.87103 7.7958 2.55496 7.00015 2.55496C6.86754 2.55496 6.74036 2.60764 6.64659 2.7014C6.55283 2.79517 6.50015 2.92235 6.50015 3.05496C6.50015 3.18757 6.55283 3.31474 6.64659 3.40851C6.74036 3.50228 6.86754 3.55496 7.00015 3.55496C7.53058 3.55496 8.03929 3.76567 8.41436 4.14074C8.78943 4.51582 9.00015 5.02452 9.00015 5.55496C9.00015 5.68757 9.05283 5.81474 9.14659 5.90851C9.24036 6.00228 9.36754 6.05496 9.50015 6.05496C9.63276 6.05496 9.75993 6.00228 9.8537 5.90851C9.94747 5.81474 10.0001 5.68757 10.0001 5.55496ZM11.0916 11.637L11.5466 11.1125C11.8363 10.8219 11.9989 10.4284 11.9989 10.0182C11.9989 9.60799 11.8363 9.2145 11.5466 8.92396C11.5311 8.90846 10.3281 7.98296 10.3281 7.98296C10.0394 7.70812 9.65591 7.55509 9.2573 7.55565C8.85868 7.5562 8.4756 7.71031 8.18765 7.98596L7.23465 8.78896C6.45674 8.46701 5.75009 7.99455 5.15529 7.39872C4.56049 6.80289 4.08926 6.09542 3.76865 5.31696L4.56865 4.36696C4.84451 4.07904 4.9988 3.6959 4.99945 3.29716C5.0001 2.89842 4.84706 2.51477 4.57215 2.22596C4.57215 2.22596 3.64565 1.02446 3.63015 1.00896C3.34487 0.721831 2.95809 0.558468 2.55336 0.554164C2.14863 0.549861 1.75846 0.704962 1.46715 0.985957L0.892148 1.48596C-2.50485 5.42696 4.81015 12.6855 8.88115 12.555C9.29224 12.5573 9.69964 12.4773 10.0793 12.3197C10.459 12.162 10.8032 11.9299 11.0916 11.637V11.637Z" fill="#242133"/>
</g>
<defs>
<clipPath id="clip0_33029_4303">
<rect width="12" height="12" fill="white" transform="translate(0 0.555176)"/>
</clipPath>
</defs>
</svg>
