<svg width="91" height="84" viewBox="0 0 91 84" fill="none" xmlns="http://www.w3.org/2000/svg">
<path d="M9.747 78.6134C11.4669 78.6134 12.8612 77.2191 12.8612 75.4992C12.8612 73.7793 11.4669 72.385 9.747 72.385C8.02708 72.385 6.63281 73.7793 6.63281 75.4992C6.63281 77.2191 8.02708 78.6134 9.747 78.6134Z" fill="#34B715"/>
<path d="M19.5734 84C20.7044 84 21.6214 83.0831 21.6214 81.952C21.6214 80.821 20.7044 79.9041 19.5734 79.9041C18.4423 79.9041 17.5254 80.821 17.5254 81.952C17.5254 83.0831 18.4423 84 19.5734 84Z" fill="#34B715"/>
<path d="M3.40701 19.0543C5.16191 19.0543 6.58453 17.6316 6.58453 15.8767C6.58453 14.1218 5.16191 12.6992 3.40701 12.6992C1.65212 12.6992 0.229492 14.1218 0.229492 15.8767C0.229492 17.6316 1.65212 19.0543 3.40701 19.0543Z" fill="#34B715"/>
<path d="M10.6489 10.0964C11.8151 10.0964 12.7606 9.15095 12.7606 7.98467C12.7606 6.81838 11.8151 5.87292 10.6489 5.87292C9.48257 5.87292 8.53711 6.81838 8.53711 7.98467C8.53711 9.15095 9.48257 10.0964 10.6489 10.0964Z" fill="#34B715"/>
<path d="M87.675 17.6938C89.0747 17.6938 90.2093 16.5591 90.2093 15.1595C90.2093 13.7598 89.0747 12.6251 87.675 12.6251C86.2753 12.6251 85.1406 13.7598 85.1406 15.1595C85.1406 16.5591 86.2753 17.6938 87.675 17.6938Z" fill="#34B715"/>
<path d="M84.1172 7.41306C85.482 6.04834 85.4819 3.83569 84.1172 2.47097C82.7525 1.10625 80.5399 1.10625 79.1751 2.47097C77.8104 3.83569 77.8104 6.04834 79.1751 7.41306C80.5399 8.77778 82.7525 8.77778 84.1172 7.41306Z" fill="#34B715"/>
<path d="M86.059 70.5606C86.7862 69.8333 86.7862 68.6542 86.059 67.9269C85.3317 67.1996 84.1525 67.1996 83.4253 67.9269C82.698 68.6542 82.698 69.8333 83.4253 70.5606C84.1525 71.2879 85.3317 71.2879 86.059 70.5606Z" fill="#34B715"/>
<path d="M75.0378 81.1461C76.1624 80.0215 76.1624 78.198 75.0378 77.0734C73.9131 75.9487 72.0897 75.9487 70.9651 77.0734C69.8404 78.198 69.8404 80.0215 70.9651 81.1461C72.0897 82.2707 73.9131 82.2707 75.0378 81.1461Z" fill="#34B715"/>
<path d="M89.2224 62.1311C90.0772 61.2763 90.0772 59.8904 89.2224 59.0356C88.3676 58.1808 86.9817 58.1808 86.1269 59.0356C85.2721 59.8904 85.2721 61.2763 86.1269 62.1311C86.9817 62.9859 88.3676 62.9859 89.2224 62.1311Z" fill="#34B715"/>
<path d="M45.6376 80.5464C67.7693 80.5464 85.7107 62.605 85.7107 40.4733C85.7107 18.3415 67.7693 0.400146 45.6376 0.400146C23.5058 0.400146 5.56445 18.3415 5.56445 40.4733C5.56445 62.605 23.5058 80.5464 45.6376 80.5464Z" fill="#34B715"/>
<path d="M45.6369 72.3845C63.2611 72.3845 77.5482 58.0974 77.5482 40.4732C77.5482 22.8491 63.2611 8.56189 45.6369 8.56189C28.0128 8.56189 13.7256 22.8491 13.7256 40.4732C13.7256 58.0974 28.0128 72.3845 45.6369 72.3845Z" fill="white"/>
<path d="M61.8556 29.7628C61.0713 28.9786 60.0076 28.538 58.8984 28.538C57.7893 28.538 56.7255 28.9786 55.9412 29.7628L41.1306 44.5735L36.3656 39.8067C34.7545 38.1956 32.1292 38.0969 30.4741 39.6633C30.0677 40.0472 29.7425 40.5088 29.5175 41.0206C29.2926 41.5324 29.1725 42.0842 29.1645 42.6432C29.1565 43.2022 29.2606 43.7572 29.4707 44.2753C29.6809 44.7933 29.9928 45.264 30.388 45.6595L37.6757 52.9459C38.1294 53.3997 38.6681 53.7596 39.261 54.0052C39.8539 54.2508 40.4893 54.3772 41.1311 54.3772C41.7728 54.3772 42.4082 54.2508 43.0011 54.0052C43.594 53.7596 44.1327 53.3997 44.5864 52.9459L47.0454 50.4869L61.856 35.6763C62.64 34.892 63.0803 33.8284 63.0802 32.7195C63.0802 31.6106 62.6397 30.547 61.8556 29.7628Z" fill="#34B715"/>
</svg>
