<svg width="16" height="16" viewBox="0 0 16 16" fill="none" xmlns="http://www.w3.org/2000/svg">
<path d="M15.3846 4.56427H0.615385C0.278974 4.56427 0 4.28529 0 3.94888C0 3.61247 0.278974 3.3335 0.615385 3.3335H15.3846C15.721 3.3335 16 3.61247 16 3.94888C16 4.28529 15.721 4.56427 15.3846 4.56427Z" fill="#242133"/>
<path d="M12.9235 8.6668H3.0773C2.74089 8.6668 2.46191 8.38783 2.46191 8.05142C2.46191 7.71501 2.74089 7.43604 3.0773 7.43604H12.9235C13.2599 7.43604 13.5388 7.71501 13.5388 8.05142C13.5388 8.38783 13.2599 8.6668 12.9235 8.6668Z" fill="#242133"/>
<path d="M9.6406 12.7693H6.35855C6.02214 12.7693 5.74316 12.4904 5.74316 12.154C5.74316 11.8175 6.02214 11.5386 6.35855 11.5386H9.6406C9.97701 11.5386 10.256 11.8175 10.256 12.154C10.256 12.4904 9.97701 12.7693 9.6406 12.7693Z" fill="#242133"/>
</svg>
