<svg width="81" height="80" viewBox="0 0 81 80" fill="none" xmlns="http://www.w3.org/2000/svg">
<g clip-path="url(#clip0_32770_976)">
<path d="M78.0812 20.2906C75.9828 12.5594 67.9422 4.51875 60.2109 2.42031C55.4719 1.2375 49.1203 0.0203125 40.5 0C31.8812 0.021875 25.5297 1.2375 20.7906 2.42031C13.0594 4.52031 5.01875 12.5594 2.92031 20.2906C1.7375 25.0297 0.521875 31.3812 0.5 40C0.521875 48.6203 1.7375 54.9719 2.92031 59.7109C5.01875 67.4422 13.0594 75.4812 20.7906 77.5812C25.5297 78.7641 31.8844 79.9797 40.5 80.0016C49.1203 79.9797 55.4719 78.7641 60.2109 77.5812C67.9422 75.4812 75.9828 67.4422 78.0812 59.7109C79.2641 54.9719 80.4797 48.6172 80.5016 40C80.4797 31.3812 79.2641 25.0297 78.0812 20.2906Z" fill="#EEF8FF"/>
<path d="M17.5846 32.3047C19.3315 30.4141 21.5018 28.1562 24.1659 25.4641C28.3846 21.2047 31.5315 18.1906 33.8784 16.1109C35.8284 14.375 38.1737 13.4969 40.5003 13.4922C42.8237 13.4922 45.169 14.3813 47.119 16.1109C49.4628 18.1906 52.6159 21.2047 56.8315 25.4641C59.4956 28.1562 61.6659 30.4141 63.4128 32.3047L63.5518 39.7172C63.5659 40.675 63.569 41.8547 63.5596 42.9156C63.5503 43.7844 63.5341 44.6177 63.5112 45.4156C63.4281 48.9076 63.1548 52.3925 62.6924 55.8547C61.9581 60.9266 57.6924 65.2984 52.7581 66.0109C51.3674 66.2062 49.7393 66.3859 47.8346 66.525C47.8346 66.525 44.2299 66.5391 40.5003 66.5391C36.7706 66.5391 33.1659 66.525 33.1659 66.525C31.2612 66.3859 29.6331 66.2125 28.2424 66.0109C23.3128 65.3016 19.0393 60.9375 18.3128 55.8578C17.8504 52.3956 17.5771 48.9107 17.494 45.4187C17.4711 44.6187 17.4549 43.7854 17.4456 42.9187C17.4362 41.8578 17.4456 40.6781 17.4456 39.7203L17.5846 32.3047Z" fill="#0E72ED"/>
<path d="M67.0844 26.8224V26.8037C67.0845 26.5216 66.9867 26.2483 66.8078 26.0302C66.7339 25.9375 66.6573 25.8469 66.5781 25.7584C66.1609 25.2896 65.6672 24.7693 65.0797 24.174C64.0719 23.149 62.7828 21.9146 61.1547 20.4162C58.575 18.0427 56.6047 16.3209 55.1797 15.1318C53.9891 14.1412 52.6672 13.6099 51.4297 13.5802C44.1505 13.4177 36.8708 13.4177 29.5906 13.5802C28.3484 13.6099 27.0266 14.1412 25.8406 15.1318C24.4156 16.3209 22.4453 18.0427 19.8656 20.4162C18.2375 21.9146 16.9484 23.149 15.9406 24.174C15.3547 24.7693 14.8609 25.2943 14.4437 25.7584C14.3625 25.8469 14.2859 25.9375 14.2141 26.0302C14.0352 26.2483 13.9374 26.5216 13.9375 26.8037V26.8568C14.0117 28.3068 14.1651 29.7517 14.3969 31.1849C14.7547 33.6709 17.375 35.8224 19.8328 35.9365C21.2391 35.9974 22.3469 35.3724 23.0109 34.3396C23.2875 33.9084 23.9594 33.9256 24.3672 34.3771C25.3484 35.4599 26.7109 36.1818 28.1172 36.2193C28.7648 36.2381 29.4066 36.0934 29.9834 35.7984C30.5602 35.5035 31.0533 35.0678 31.4172 34.5318C31.7297 34.0881 32.3969 34.0959 32.7719 34.5506C33.675 35.6443 34.9734 36.3521 36.3781 36.3646C37.0534 36.3638 37.7189 36.2036 38.3205 35.8971C38.9222 35.5905 39.443 35.1463 39.8406 34.6006C39.9195 34.4951 40.0218 34.4096 40.1395 34.3506C40.2573 34.2917 40.3871 34.261 40.5187 34.261C40.6504 34.261 40.7802 34.2917 40.8979 34.3506C41.0157 34.4096 41.118 34.4951 41.1969 34.6006C41.5943 35.1464 42.1151 35.5906 42.7169 35.8969C43.3186 36.2032 43.9842 36.3629 44.6594 36.3631C46.0562 36.3521 47.3484 35.6474 48.2531 34.5677C48.6266 34.1193 49.2922 34.1099 49.6016 34.549C49.9676 35.0842 50.4628 35.5183 51.0413 35.8111C51.6199 36.1039 52.2629 36.2459 52.9109 36.224C54.3172 36.1865 55.6766 35.4646 56.6609 34.3818C57.0687 33.9302 57.7406 33.9131 58.0172 34.3443C58.6797 35.3771 59.7891 36.0021 61.1953 35.9412C63.6531 35.8271 66.2734 33.6756 66.6312 31.1896C66.8612 29.7672 67.0136 28.3333 67.0875 26.8943C67.0828 26.8756 67.0844 26.8459 67.0844 26.8224Z" fill="url(#paint0_linear_32770_976)"/>
<path d="M49.7192 48.6066C46.6208 51.7973 43.4348 55.1379 40.3145 58.4363C40.0613 58.7056 39.7555 58.9201 39.416 59.0666C39.0766 59.213 38.7108 59.2884 38.3411 59.2879H38.3286C37.9597 59.2843 37.5952 59.2073 37.2564 59.0614C36.9176 58.9155 36.6112 58.7035 36.3552 58.4379C34.6833 56.7082 33.0005 54.9816 31.3286 53.2816C31.074 53.0291 30.8731 52.7276 30.7382 52.3953C30.6032 52.063 30.537 51.7068 30.5434 51.3482C30.5498 50.9896 30.6288 50.6361 30.7756 50.3088C30.9223 49.9816 31.1338 49.6874 31.3973 49.4441C31.9195 48.9314 32.6232 48.646 33.355 48.6501C34.0868 48.6542 34.7872 48.9475 35.3036 49.466C36.2973 50.4827 37.2947 51.5072 38.2958 52.5395C40.7755 49.9363 43.2661 47.3145 45.6911 44.7676C46.7208 43.6832 48.4427 43.6957 49.563 44.7676C50.6833 45.8395 50.7645 47.5363 49.7192 48.6066Z" fill="url(#paint1_linear_32770_976)"/>
<path d="M14.2078 26.035C14.0313 26.254 13.9358 26.5272 13.9375 26.8085V26.8616C14.0102 28.3112 14.1635 29.7556 14.3969 31.1882C14.7547 33.6725 17.3656 35.8225 19.8297 35.9366C21.236 35.9975 22.3438 35.3725 23.0063 34.3397C23.2828 33.91 23.9547 33.9272 24.361 34.3788C25.3438 35.46 26.7047 36.1819 28.111 36.2194C28.7601 36.2401 29.404 36.0963 29.9826 35.8012C30.5613 35.5062 31.0558 35.0695 31.4203 34.5319C31.7328 34.0866 32.4016 34.096 32.7766 34.5507C33.6781 35.6444 34.975 36.3507 36.3797 36.3632C37.0546 36.3623 37.7197 36.2022 38.321 35.8959C38.9224 35.5897 39.443 35.1459 39.8406 34.6007C39.9195 34.4952 40.0219 34.4097 40.1396 34.3507C40.2573 34.2918 40.3871 34.2611 40.5188 34.2611C40.6504 34.2611 40.7803 34.2918 40.898 34.3507C41.0157 34.4097 41.118 34.4952 41.1969 34.6007C41.5943 35.146 42.115 35.5897 42.7164 35.8957C43.3178 36.2017 43.983 36.3614 44.6578 36.3616C46.0547 36.3507 47.3453 35.646 48.2516 34.5678C48.625 34.1178 49.2906 34.11 49.5985 34.5475C49.9642 35.0827 50.4591 35.5168 51.0374 35.8097C51.6156 36.1025 52.2585 36.2445 52.9063 36.2225C54.3125 36.185 55.6703 35.4632 56.6563 34.3819C57.0641 33.9303 57.736 33.9132 58.0125 34.3428C58.675 35.3757 59.7828 36.0007 61.1891 35.9397C63.6453 35.8257 66.2641 33.6757 66.6219 31.1913C66.8467 29.7691 66.9938 28.3357 67.0625 26.8975C67.0625 26.8741 67.0625 26.8507 67.0625 26.8272V26.8085C67.0626 26.5264 66.9649 26.2531 66.786 26.035H14.2078Z" fill="url(#paint2_linear_32770_976)"/>
</g>
<defs>
<linearGradient id="paint0_linear_32770_976" x1="55.2719" y1="43.9037" x2="25.7313" y2="14.3631" gradientUnits="userSpaceOnUse">
<stop stop-color="#FE7838"/>
<stop offset="0.54" stop-color="#FE7636"/>
<stop offset="1" stop-color="#FFAD8A"/>
</linearGradient>
<linearGradient id="paint1_linear_32770_976" x1="45.0567" y1="53.6973" x2="36.0989" y2="44.7395" gradientUnits="userSpaceOnUse">
<stop stop-color="#E0DCFF"/>
<stop offset="0.57" stop-color="white"/>
<stop offset="1" stop-color="white"/>
</linearGradient>
<linearGradient id="paint2_linear_32770_976" x1="50.1219" y1="38.8225" x2="20.661" y2="9.3616" gradientUnits="userSpaceOnUse">
<stop stop-color="#FE7838"/>
<stop offset="0.54" stop-color="#FE7636"/>
<stop offset="1" stop-color="#FFAD8A"/>
</linearGradient>
<clipPath id="clip0_32770_976">
<rect width="80" height="80" fill="white" transform="translate(0.5)"/>
</clipPath>
</defs>
</svg>
