<svg width="20" height="20" viewBox="0 0 20 20" fill="none" xmlns="http://www.w3.org/2000/svg">
<g clip-path="url(#clip0_33806_1125)">
<path d="M19.7561 18.5783L14.782 13.6041C16.1375 11.9463 16.804 9.83087 16.6435 7.69543C16.4831 5.55999 15.508 3.5679 13.92 2.13123C12.3319 0.694554 10.2525 -0.0767949 8.11168 -0.0232684C5.97088 0.0302581 3.93256 0.904564 2.41832 2.41881C0.904076 3.93305 0.0297698 5.97137 -0.0237567 8.11216C-0.0772832 10.253 0.694065 12.3324 2.13074 13.9205C3.56742 15.5085 5.5595 16.4836 7.69494 16.644C9.83038 16.8044 11.9458 16.138 13.6036 14.7825L18.5778 19.7566C18.735 19.9084 18.9455 19.9924 19.164 19.9905C19.3825 19.9886 19.5915 19.901 19.746 19.7465C19.9005 19.592 19.9881 19.383 19.99 19.1645C19.9919 18.946 19.9079 18.7355 19.7561 18.5783ZM8.33364 15.0008C7.0151 15.0008 5.72617 14.6098 4.62984 13.8773C3.53351 13.1447 2.67903 12.1035 2.17444 10.8854C1.66986 9.66718 1.53784 8.32673 1.79507 7.03353C2.05231 5.74032 2.68724 4.55243 3.61959 3.62008C4.55195 2.68773 5.73983 2.05279 7.03304 1.79556C8.32625 1.53832 9.66669 1.67035 10.8849 2.17493C12.103 2.67952 13.1442 3.534 13.8768 4.63033C14.6093 5.72665 15.0003 7.01559 15.0003 8.33413C14.9983 10.1016 14.2953 11.7962 13.0455 13.046C11.7957 14.2958 10.1011 14.9988 8.33364 15.0008Z" fill="#242133"/>
</g>
<defs>
<clipPath id="clip0_33806_1125">
<rect width="20" height="20" fill="white"/>
</clipPath>
</defs>
</svg>
