<svg width="20" height="20" viewBox="0 0 20 20" fill="none" xmlns="http://www.w3.org/2000/svg">
<path fill-rule="evenodd" clip-rule="evenodd" d="M10.6061 14.5555L14.4771 18.4264C14.855 18.8044 15.4676 18.8044 15.8456 18.4264L19.7165 14.5555C20.0945 14.1775 20.0945 13.5649 19.7165 13.1869C19.3386 12.809 18.726 12.809 18.348 13.1869L16.1291 15.4058V2.25827C16.1291 1.72381 15.6958 1.29053 15.1613 1.29053C14.6269 1.29053 14.1936 1.72381 14.1936 2.25827V15.4058L11.9746 13.1869C11.5967 12.809 10.984 12.809 10.6061 13.1869C10.2281 13.5649 10.2281 14.1775 10.6061 14.5555ZM5.52301 1.57397C5.14509 1.19605 4.53234 1.19605 4.15442 1.57397L0.283442 5.44495C-0.0944808 5.82287 -0.0944808 6.43562 0.283442 6.81354C0.661366 7.19147 1.27412 7.19147 1.65204 6.81354L3.87097 4.59461V17.7422C3.87097 18.2766 4.30425 18.7099 4.83872 18.7099C5.37318 18.7099 5.80646 18.2766 5.80646 17.7422V4.59461L8.02543 6.81354C8.40337 7.19147 9.01601 7.19147 9.39395 6.81354C9.77188 6.43562 9.77188 5.82287 9.39395 5.44495L5.52301 1.57397Z" fill="#242133"/>
</svg>
