<svg width="24" height="24" viewBox="0 0 24 24" fill="none" xmlns="http://www.w3.org/2000/svg">
<g clip-path="url(#clip0_35368_5222)">
<path d="M20.1297 6.1287C19.5949 6.1287 19.1613 6.56224 19.1613 7.09704V17.9326C19.1613 20.2139 17.3119 22.0633 15.0306 22.0633H8.06839C5.78704 22.0633 3.93765 20.2139 3.93765 17.9326V7.09704C3.93765 6.56224 3.50411 6.1287 2.96931 6.1287C2.43451 6.1287 2.00098 6.56224 2.00098 7.09704V17.9326C2.03459 21.2934 4.76868 24.0002 8.12968 24H15.0919C18.429 23.9668 21.1261 21.2697 21.1593 17.9326V7.09704C21.1598 6.82924 21.0494 6.57318 20.8544 6.38971C20.6593 6.20624 20.3969 6.11175 20.1297 6.1287Z" fill="#FF424F"/>
<path fill-rule="evenodd" clip-rule="evenodd" d="M20.1297 4.38815H2.96931C2.43451 4.38815 2.00098 3.95461 2.00098 3.41982C2.00098 2.88502 2.43451 2.45148 2.96931 2.45148H6.21752L7.6639 0.882533C8.21679 0.320422 8.97146 0.00266704 9.75991 2.24912e-10H13.3391C14.116 -9.61779e-06 14.8612 0.308629 15.4106 0.858018L16.8815 2.45148H20.1297C20.6645 2.45148 21.098 2.88502 21.098 3.41982C21.098 3.95461 20.6645 4.38815 20.1297 4.38815ZM13.3391 1.93667H9.75991C9.51487 1.93676 9.27874 2.02858 9.09801 2.19408L8.86512 2.43922H14.2339L14.001 2.19408C13.8216 2.02647 13.5846 1.9343 13.3391 1.93667Z" fill="#FF424F"/>
<path d="M6.95297 8.32278V12C6.95297 12.5077 7.36455 12.9193 7.87227 12.9193C8.37999 12.9193 8.79158 12.5077 8.79158 12V8.32278C8.79158 7.81506 8.37999 7.40347 7.87227 7.40347C7.36455 7.40347 6.95297 7.81506 6.95297 8.32278Z" fill="#FF424F"/>
<path d="M10.6302 8.32278V18.1287C10.6302 18.6364 11.0418 19.048 11.5495 19.048C12.0572 19.048 12.4688 18.6364 12.4688 18.1287V8.32278C12.4688 7.81506 12.0572 7.40347 11.5495 7.40347C11.0418 7.40347 10.6302 7.81506 10.6302 8.32278Z" fill="#FF424F"/>
<path d="M14.3074 8.32278V12C14.3074 12.5077 14.719 12.9193 15.2267 12.9193C15.7344 12.9193 16.146 12.5077 16.146 12V8.32278C16.146 7.81506 15.7344 7.40347 15.2267 7.40347C14.719 7.40347 14.3074 7.81506 14.3074 8.32278Z" fill="#FF424F"/>
</g>
<defs>
<clipPath id="clip0_35368_5222">
<rect width="24" height="24" fill="white"/>
</clipPath>
</defs>
</svg>
