<svg width="32" height="32" viewBox="0 0 32 32" fill="none" xmlns="http://www.w3.org/2000/svg">
<rect width="32" height="32" rx="16" fill="#F0F2F5"/>
<g clip-path="url(#clip0_34927_2174)">
<path d="M23.0357 17.1078L21.769 12.5505C21.3977 11.2154 20.5908 10.0427 19.4766 9.21881C18.3623 8.39494 17.0046 7.96716 15.6193 8.00348C14.234 8.0398 12.9006 8.53813 11.8311 9.41927C10.7615 10.3004 10.0171 11.5138 9.71634 12.8665L8.73568 17.2765C8.62735 17.7638 8.62986 18.2692 8.74301 18.7554C8.85615 19.2416 9.07705 19.6961 9.3894 20.0855C9.70174 20.4749 10.0976 20.7892 10.5476 21.0051C10.9977 21.2211 11.4905 21.3332 11.9897 21.3332H12.7323C12.8854 22.0867 13.2942 22.7642 13.8895 23.2508C14.4848 23.7374 15.2301 24.0032 15.999 24.0032C16.7679 24.0032 17.5132 23.7374 18.1085 23.2508C18.7039 22.7642 19.1127 22.0867 19.2657 21.3332H19.8243C20.3382 21.3332 20.8451 21.2144 21.3055 20.9861C21.7659 20.7578 22.1672 20.4262 22.4782 20.0171C22.7892 19.608 23.0014 19.1325 23.0982 18.6279C23.195 18.1232 23.1739 17.603 23.0363 17.1078H23.0357ZM15.999 22.6665C15.5868 22.6648 15.1853 22.5358 14.8492 22.2971C14.5132 22.0584 14.2591 21.7218 14.1217 21.3332H17.8763C17.739 21.7218 17.4849 22.0584 17.1488 22.2971C16.8128 22.5358 16.4112 22.6648 15.999 22.6665ZM21.4163 19.2098C21.2306 19.4563 20.9899 19.656 20.7134 19.7931C20.4369 19.9303 20.1323 20.0011 19.8237 19.9998H11.9897C11.6902 19.9998 11.3946 19.9325 11.1246 19.8029C10.8546 19.6733 10.6171 19.4847 10.4298 19.2511C10.2424 19.0175 10.1099 18.7448 10.0421 18.4531C9.97419 18.1614 9.97269 17.8582 10.0377 17.5658L11.0177 13.1552C11.2539 12.0926 11.8385 11.1396 12.6786 10.4475C13.5187 9.75536 14.5661 9.36395 15.6542 9.33544C16.7423 9.30694 17.8087 9.64298 18.6839 10.2901C19.5591 10.9373 20.1928 11.8585 20.4843 12.9072L21.751 17.4645C21.8347 17.7614 21.848 18.0738 21.7899 18.3767C21.7319 18.6797 21.6039 18.9649 21.4163 19.2098Z" fill="#6F767E"/>
</g>
<defs>
<clipPath id="clip0_34927_2174">
<rect width="16" height="16" fill="white" transform="translate(8 8)"/>
</clipPath>
</defs>
</svg>
