<svg width="99" height="124" viewBox="0 0 99 124" fill="none" xmlns="http://www.w3.org/2000/svg">
<g clip-path="url(#clip0_32770_960)">
<path d="M87.0812 20.2906C84.9828 12.5594 76.9422 4.51875 69.2109 2.42031C64.4719 1.2375 58.1203 0.0203125 49.5 0C40.8812 0.021875 34.5297 1.2375 29.7906 2.42031C22.0594 4.52031 14.0187 12.5594 11.9203 20.2906C10.7375 25.0297 9.52187 31.3812 9.5 40C9.52187 48.6203 10.7375 54.9719 11.9203 59.7109C14.0187 67.4422 22.0594 75.4812 29.7906 77.5812C34.5297 78.7641 40.8844 79.9797 49.5 80.0016C58.1203 79.9797 64.4719 78.7641 69.2109 77.5812C76.9422 75.4812 84.9828 67.4422 87.0812 59.7109C88.2641 54.9719 89.4797 48.6172 89.5016 40C89.4797 31.3812 88.2641 25.0297 87.0812 20.2906Z" fill="#EEF8FF"/>
<path d="M26.5846 32.3047C28.3315 30.4141 30.5018 28.1563 33.1659 25.4641C37.3846 21.2047 40.5315 18.1907 42.8784 16.111C44.8284 14.3751 47.1737 13.4969 49.5003 13.4922C51.8237 13.4922 54.169 14.3813 56.119 16.111C58.4628 18.1907 61.6159 21.2047 65.8315 25.4641C68.4956 28.1563 70.6659 30.4141 72.4128 32.3047L72.5518 39.7172C72.5659 40.6751 72.569 41.8547 72.5596 42.9157C72.5503 43.7844 72.5341 44.6178 72.5112 45.4157C72.4281 48.9077 72.1548 52.3925 71.6924 55.8547C70.9581 60.9266 66.6924 65.2985 61.7581 66.011C60.3674 66.2063 58.7393 66.386 56.8346 66.5251C56.8346 66.5251 53.2299 66.5391 49.5003 66.5391C45.7706 66.5391 42.1659 66.5251 42.1659 66.5251C40.2612 66.386 38.6331 66.2126 37.2424 66.011C32.3128 65.3016 28.0393 60.9376 27.3128 55.8579C26.8504 52.3956 26.5771 48.9108 26.494 45.4188C26.4711 44.6188 26.4549 43.7855 26.4456 42.9188C26.4362 41.8579 26.4456 40.6782 26.4456 39.7204L26.5846 32.3047Z" fill="#0E72ED"/>
<path d="M76.0844 26.8224V26.8036C76.0845 26.5216 75.9867 26.2482 75.8078 26.0302C75.7339 25.9375 75.6573 25.8469 75.5781 25.7583C75.1609 25.2896 74.6672 24.7693 74.0797 24.1739C73.0719 23.1489 71.7828 21.9146 70.1547 20.4161C67.575 18.0427 65.6047 16.3208 64.1797 15.1317C62.9891 14.1411 61.6672 13.6099 60.4297 13.5802C53.1505 13.4177 45.8708 13.4177 38.5906 13.5802C37.3484 13.6099 36.0266 14.1411 34.8406 15.1317C33.4156 16.3208 31.4453 18.0427 28.8656 20.4161C27.2375 21.9146 25.9484 23.1489 24.9406 24.1739C24.3547 24.7693 23.8609 25.2943 23.4437 25.7583C23.3625 25.8469 23.2859 25.9375 23.2141 26.0302C23.0352 26.2482 22.9374 26.5216 22.9375 26.8036V26.8568C23.0117 28.3067 23.1651 29.7516 23.3969 31.1849C23.7547 33.6708 26.375 35.8224 28.8328 35.9364C30.2391 35.9974 31.3469 35.3724 32.0109 34.3396C32.2875 33.9083 32.9594 33.9255 33.3672 34.3771C34.3484 35.4599 35.7109 36.1817 37.1172 36.2192C37.7648 36.2381 38.4066 36.0933 38.9834 35.7984C39.5602 35.5034 40.0533 35.0678 40.4172 34.5317C40.7297 34.088 41.3969 34.0958 41.7719 34.5505C42.675 35.6442 43.9734 36.3521 45.3781 36.3646C46.0534 36.3637 46.7189 36.2035 47.3205 35.897C47.9222 35.5905 48.443 35.1463 48.8406 34.6005C48.9195 34.4951 49.0218 34.4095 49.1395 34.3506C49.2573 34.2916 49.3871 34.2609 49.5187 34.2609C49.6504 34.2609 49.7802 34.2916 49.8979 34.3506C50.0157 34.4095 50.118 34.4951 50.1969 34.6005C50.5943 35.1463 51.1151 35.5905 51.7169 35.8968C52.3186 36.2031 52.9842 36.3628 53.6594 36.363C55.0562 36.3521 56.3484 35.6474 57.2531 34.5677C57.6266 34.1192 58.2922 34.1099 58.6016 34.5489C58.9676 35.0841 59.4628 35.5182 60.0413 35.811C60.6199 36.1038 61.2629 36.2459 61.9109 36.2239C63.3172 36.1864 64.6766 35.4646 65.6609 34.3817C66.0687 33.9302 66.7406 33.913 67.0172 34.3442C67.6797 35.3771 68.7891 36.0021 70.1953 35.9411C72.6531 35.8271 75.2734 33.6755 75.6312 31.1896C75.8612 29.7671 76.0136 28.3332 76.0875 26.8942C76.0828 26.8755 76.0844 26.8458 76.0844 26.8224Z" fill="url(#paint0_linear_32770_960)"/>
<path d="M58.7192 48.6068C55.6208 51.7974 52.4348 55.138 49.3145 58.4365C49.0613 58.7057 48.7555 58.9202 48.416 59.0667C48.0766 59.2131 47.7108 59.2885 47.3411 59.288H47.3286C46.9597 59.2845 46.5952 59.2075 46.2564 59.0615C45.9176 58.9156 45.6112 58.7036 45.3552 58.438C43.6833 56.7083 42.0005 54.9818 40.3286 53.2818C40.074 53.0292 39.8731 52.7277 39.7382 52.3954C39.6032 52.0631 39.537 51.7069 39.5434 51.3483C39.5498 50.9897 39.6288 50.6362 39.7756 50.3089C39.9223 49.9817 40.1338 49.6876 40.3973 49.4443C40.9195 48.9315 41.6232 48.6461 42.355 48.6502C43.0868 48.6543 43.7872 48.9476 44.3036 49.4661C45.2973 50.4828 46.2947 51.5073 47.2958 52.5396C49.7755 49.9365 52.2661 47.3146 54.6911 44.7677C55.7208 43.6833 57.4427 43.6958 58.563 44.7677C59.6833 45.8396 59.7645 47.5365 58.7192 48.6068Z" fill="url(#paint1_linear_32770_960)"/>
<path d="M23.2078 26.0349C23.0313 26.2539 22.9358 26.5271 22.9375 26.8084V26.8615C23.0102 28.3111 23.1635 29.7555 23.3969 31.188C23.7547 33.6724 26.3656 35.8224 28.8297 35.9365C30.236 35.9974 31.3438 35.3724 32.0063 34.3396C32.2828 33.9099 32.9547 33.9271 33.361 34.3787C34.3438 35.4599 35.7047 36.1818 37.111 36.2193C37.7601 36.24 38.404 36.0961 38.9826 35.8011C39.5613 35.506 40.0558 35.0694 40.4203 34.5318C40.7328 34.0865 41.4016 34.0958 41.7766 34.5505C42.6781 35.6443 43.975 36.3505 45.3797 36.363C46.0546 36.3621 46.7197 36.2021 47.321 35.8958C47.9224 35.5896 48.443 35.1458 48.8406 34.6005C48.9195 34.4951 49.0219 34.4095 49.1396 34.3506C49.2573 34.2916 49.3871 34.261 49.5188 34.261C49.6504 34.261 49.7803 34.2916 49.898 34.3506C50.0157 34.4095 50.118 34.4951 50.1969 34.6005C50.5943 35.1459 51.115 35.5896 51.7164 35.8956C52.3178 36.2016 52.983 36.3612 53.6578 36.3615C55.0547 36.3505 56.3453 35.6459 57.2516 34.5677C57.625 34.1177 58.2906 34.1099 58.5985 34.5474C58.9642 35.0826 59.4591 35.5167 60.0374 35.8095C60.6156 36.1023 61.2585 36.2444 61.9063 36.2224C63.3125 36.1849 64.6703 35.463 65.6563 34.3818C66.0641 33.9302 66.736 33.913 67.0125 34.3427C67.675 35.3755 68.7828 36.0005 70.1891 35.9396C72.6453 35.8255 75.2641 33.6755 75.6219 31.1912C75.8467 29.769 75.9938 28.3356 76.0625 26.8974C76.0625 26.874 76.0625 26.8505 76.0625 26.8271V26.8084C76.0626 26.5263 75.9649 26.253 75.786 26.0349H23.2078Z" fill="url(#paint2_linear_32770_960)"/>
</g>
<rect y="88" width="99" height="24" rx="8" fill="#ECF4FF"/>
<path d="M14.0977 96.4688L15.8027 99.5098L17.5137 96.4688H19.3652L16.834 100.699L19.4297 105H17.5605L15.8027 101.9L14.0508 105H12.1758L14.7715 100.699L12.2402 96.4688H14.0977ZM22.5176 103.365L24.2168 96.4688H25.1367L25.1953 97.9219L23.3789 105H22.4062L22.5176 103.365ZM21.4453 96.4688L22.8398 103.342V105H21.7793L19.8457 96.4688H21.4453ZM26.959 103.312L28.3301 96.4688H29.9355L28.002 105H26.9414L26.959 103.312ZM25.5762 96.4688L27.2754 103.389L27.375 105H26.4023L24.5918 97.916L24.6621 96.4688H25.5762ZM33.498 105.117C33.0176 105.117 32.5859 105.039 32.2031 104.883C31.8203 104.727 31.4941 104.51 31.2246 104.232C30.959 103.951 30.7539 103.625 30.6094 103.254C30.4688 102.879 30.3984 102.477 30.3984 102.047V101.812C30.3984 101.324 30.4688 100.881 30.6094 100.482C30.75 100.08 30.9492 99.7344 31.207 99.4453C31.4648 99.1562 31.7734 98.9336 32.1328 98.7773C32.4922 98.6211 32.8887 98.543 33.3223 98.543C33.7715 98.543 34.168 98.6191 34.5117 98.7715C34.8555 98.9199 35.1426 99.1309 35.373 99.4043C35.6035 99.6777 35.7773 100.006 35.8945 100.389C36.0117 100.768 36.0703 101.188 36.0703 101.648V102.299H31.1016V101.232H34.5469V101.115C34.5391 100.869 34.4922 100.645 34.4062 100.441C34.3203 100.234 34.1875 100.07 34.0078 99.9492C33.8281 99.8242 33.5957 99.7617 33.3105 99.7617C33.0801 99.7617 32.8789 99.8125 32.707 99.9141C32.5391 100.012 32.3984 100.152 32.2852 100.336C32.1758 100.516 32.0938 100.73 32.0391 100.98C31.9844 101.23 31.957 101.508 31.957 101.812V102.047C31.957 102.312 31.9922 102.559 32.0625 102.785C32.1367 103.012 32.2441 103.209 32.3848 103.377C32.5293 103.541 32.7012 103.67 32.9004 103.764C33.1035 103.854 33.334 103.898 33.5918 103.898C33.916 103.898 34.209 103.836 34.4707 103.711C34.7363 103.582 34.9668 103.393 35.1621 103.143L35.9414 103.951C35.8086 104.146 35.6289 104.334 35.4023 104.514C35.1797 104.693 34.9102 104.84 34.5938 104.953C34.2773 105.062 33.9121 105.117 33.498 105.117ZM37.1016 96H38.6543V103.6L38.502 105H37.1016V96ZM42.7324 101.766V101.889C42.7324 102.361 42.6797 102.795 42.5742 103.189C42.4727 103.584 42.3184 103.926 42.1113 104.215C41.9043 104.5 41.6465 104.723 41.3379 104.883C41.0332 105.039 40.6758 105.117 40.2656 105.117C39.875 105.117 39.5352 105.041 39.2461 104.889C38.9609 104.736 38.7207 104.521 38.5254 104.244C38.3301 103.963 38.1738 103.633 38.0566 103.254C37.9395 102.871 37.8516 102.453 37.793 102V101.666C37.8516 101.209 37.9395 100.791 38.0566 100.412C38.1738 100.033 38.3301 99.7031 38.5254 99.4219C38.7207 99.1406 38.9609 98.9238 39.2461 98.7715C39.5312 98.6191 39.8672 98.543 40.2539 98.543C40.668 98.543 41.0293 98.623 41.3379 98.7832C41.6504 98.9395 41.9082 99.1621 42.1113 99.4512C42.3184 99.7363 42.4727 100.076 42.5742 100.471C42.6797 100.861 42.7324 101.293 42.7324 101.766ZM41.1797 101.889V101.766C41.1797 101.496 41.1582 101.242 41.1152 101.004C41.0723 100.762 41.002 100.549 40.9043 100.365C40.8066 100.182 40.6738 100.037 40.5059 99.9316C40.3379 99.8262 40.127 99.7734 39.873 99.7734C39.6309 99.7734 39.4238 99.8145 39.252 99.8965C39.084 99.9785 38.9434 100.092 38.8301 100.236C38.7207 100.381 38.6348 100.551 38.5723 100.746C38.5137 100.941 38.4746 101.152 38.4551 101.379V102.293C38.4824 102.594 38.5469 102.865 38.6484 103.107C38.75 103.346 38.9004 103.535 39.0996 103.676C39.3027 103.816 39.5645 103.887 39.8848 103.887C40.1348 103.887 40.3438 103.838 40.5117 103.74C40.6797 103.639 40.8125 103.498 40.9102 103.318C41.0078 103.135 41.0762 102.922 41.1152 102.68C41.1582 102.438 41.1797 102.174 41.1797 101.889ZM51.5391 103.799L53.8125 105.604L52.7812 106.5L50.543 104.707L51.5391 103.799ZM53.8535 100.518V100.957C53.8535 101.602 53.7676 102.182 53.5957 102.697C53.4238 103.209 53.1777 103.645 52.8574 104.004C52.541 104.363 52.1641 104.639 51.7266 104.83C51.2891 105.021 50.8047 105.117 50.2734 105.117C49.7461 105.117 49.2617 105.021 48.8203 104.83C48.3828 104.639 48.0039 104.363 47.6836 104.004C47.3633 103.645 47.1152 103.209 46.9395 102.697C46.7637 102.182 46.6758 101.602 46.6758 100.957V100.518C46.6758 99.8691 46.7617 99.2891 46.9336 98.7773C47.1094 98.2656 47.3555 97.8301 47.6719 97.4707C47.9922 97.1074 48.3711 96.8301 48.8086 96.6387C49.25 96.4473 49.7344 96.3516 50.2617 96.3516C50.793 96.3516 51.2773 96.4473 51.7148 96.6387C52.1562 96.8301 52.5352 97.1074 52.8516 97.4707C53.1719 97.8301 53.418 98.2656 53.5898 98.7773C53.7656 99.2891 53.8535 99.8691 53.8535 100.518ZM52.2246 100.957V100.506C52.2246 100.041 52.1816 99.6328 52.0957 99.2812C52.0098 98.9258 51.8809 98.627 51.709 98.3848C51.541 98.1426 51.3359 97.9609 51.0938 97.8398C50.8516 97.7148 50.5742 97.6523 50.2617 97.6523C49.9531 97.6523 49.6777 97.7148 49.4355 97.8398C49.1934 97.9609 48.9883 98.1426 48.8203 98.3848C48.6523 98.627 48.5234 98.9258 48.4336 99.2812C48.3477 99.6328 48.3047 100.041 48.3047 100.506V100.957C48.3047 101.418 48.3477 101.826 48.4336 102.182C48.5234 102.537 48.6523 102.838 48.8203 103.084C48.9922 103.326 49.1992 103.51 49.4414 103.635C49.6875 103.76 49.9648 103.822 50.2734 103.822C50.5859 103.822 50.8633 103.76 51.1055 103.635C51.3477 103.51 51.5508 103.326 51.7148 103.084C51.8828 102.838 52.0098 102.537 52.0957 102.182C52.1816 101.826 52.2246 101.418 52.2246 100.957ZM58.8926 103.494V98.6602H60.4512V105H58.9863L58.8926 103.494ZM59.0918 102.182L59.5723 102.17C59.5723 102.596 59.5254 102.988 59.4316 103.348C59.3379 103.707 59.1914 104.02 58.9922 104.285C58.7969 104.547 58.5488 104.752 58.248 104.9C57.9473 105.045 57.5918 105.117 57.1816 105.117C56.8691 105.117 56.584 105.074 56.3262 104.988C56.0684 104.898 55.8457 104.76 55.6582 104.572C55.4746 104.381 55.332 104.137 55.2305 103.84C55.1289 103.539 55.0781 103.178 55.0781 102.756V98.6602H56.625V102.768C56.625 102.979 56.6484 103.154 56.6953 103.295C56.7461 103.436 56.8145 103.551 56.9004 103.641C56.9902 103.727 57.0938 103.789 57.2109 103.828C57.332 103.863 57.4609 103.881 57.5977 103.881C57.9727 103.881 58.2676 103.807 58.4824 103.658C58.7012 103.506 58.8574 103.303 58.9512 103.049C59.0449 102.791 59.0918 102.502 59.0918 102.182ZM65.3145 103.652V100.729C65.3145 100.514 65.2773 100.328 65.2031 100.172C65.1289 100.016 65.0156 99.8945 64.8633 99.8086C64.7109 99.7227 64.5176 99.6797 64.2832 99.6797C64.0762 99.6797 63.8945 99.7148 63.7383 99.7852C63.5859 99.8555 63.4688 99.9551 63.3867 100.084C63.3047 100.209 63.2637 100.354 63.2637 100.518H61.7109C61.7109 100.256 61.7734 100.008 61.8984 99.7734C62.0234 99.5352 62.2012 99.3242 62.4316 99.1406C62.666 98.9531 62.9453 98.8066 63.2695 98.7012C63.5977 98.5957 63.9648 98.543 64.3711 98.543C64.8516 98.543 65.2793 98.625 65.6543 98.7891C66.0332 98.9492 66.3301 99.1914 66.5449 99.5156C66.7637 99.8398 66.873 100.248 66.873 100.74V103.506C66.873 103.822 66.8926 104.094 66.9316 104.32C66.9746 104.543 67.0371 104.736 67.1191 104.9V105H65.543C65.4688 104.84 65.4121 104.637 65.373 104.391C65.334 104.141 65.3145 103.895 65.3145 103.652ZM65.5312 101.139L65.543 102.059H64.5645C64.3223 102.059 64.1094 102.084 63.9258 102.135C63.7422 102.182 63.5918 102.252 63.4746 102.346C63.3574 102.436 63.2695 102.545 63.2109 102.674C63.1523 102.799 63.123 102.941 63.123 103.102C63.123 103.258 63.1582 103.398 63.2285 103.523C63.3027 103.648 63.4082 103.748 63.5449 103.822C63.6855 103.893 63.8496 103.928 64.0371 103.928C64.3105 103.928 64.5488 103.873 64.752 103.764C64.9551 103.65 65.1133 103.514 65.2266 103.354C65.3398 103.193 65.4004 103.041 65.4082 102.896L65.8535 103.564C65.7988 103.725 65.7168 103.895 65.6074 104.074C65.498 104.254 65.3574 104.422 65.1855 104.578C65.0137 104.734 64.8066 104.863 64.5645 104.965C64.3223 105.066 64.041 105.117 63.7207 105.117C63.3105 105.117 62.9434 105.035 62.6191 104.871C62.2949 104.707 62.0391 104.482 61.8516 104.197C61.6641 103.912 61.5703 103.588 61.5703 103.225C61.5703 102.889 61.6328 102.592 61.7578 102.334C61.8828 102.076 62.0684 101.859 62.3145 101.684C62.5605 101.504 62.8652 101.369 63.2285 101.279C63.5957 101.186 64.0156 101.139 64.4883 101.139H65.5312ZM64.9746 97.5996H63.8145L63.7441 96.791C63.9395 96.7793 64.0977 96.7598 64.2188 96.7324C64.3398 96.7012 64.4277 96.6582 64.4824 96.6035C64.541 96.5449 64.5703 96.4727 64.5703 96.3867C64.5703 96.3086 64.5469 96.2422 64.5 96.1875C64.457 96.1328 64.3965 96.0898 64.3184 96.0586C64.2402 96.0273 64.1465 96.0059 64.0371 95.9941C63.9316 95.9785 63.8164 95.9707 63.6914 95.9707L63.7324 95.2266C64.084 95.2266 64.3926 95.2539 64.6582 95.3086C64.9238 95.3594 65.1445 95.4355 65.3203 95.5371C65.5 95.6348 65.6348 95.7539 65.7246 95.8945C65.8184 96.0312 65.8652 96.1855 65.8652 96.3574C65.8652 96.6309 65.7715 96.834 65.584 96.9668C65.4004 97.0996 65.1973 97.1816 64.9746 97.2129V97.5996ZM69.7852 100.014V105H68.2383V98.6602H69.6914L69.7852 100.014ZM69.5391 101.602H69.082C69.0859 101.141 69.1484 100.723 69.2695 100.348C69.3906 99.9727 69.5605 99.6504 69.7793 99.3809C70.002 99.1113 70.2656 98.9043 70.5703 98.7598C70.875 98.6152 71.2148 98.543 71.5898 98.543C71.8945 98.543 72.1699 98.5859 72.416 98.6719C72.6621 98.7578 72.873 98.8945 73.0488 99.082C73.2285 99.2695 73.3652 99.5156 73.459 99.8203C73.5566 100.121 73.6055 100.492 73.6055 100.934V105H72.0469V100.922C72.0469 100.633 72.0039 100.404 71.918 100.236C71.8359 100.068 71.7148 99.9492 71.5547 99.8789C71.3984 99.8086 71.2051 99.7734 70.9746 99.7734C70.7363 99.7734 70.5273 99.8223 70.3477 99.9199C70.1719 100.014 70.0234 100.145 69.9023 100.312C69.7852 100.48 69.6953 100.674 69.6328 100.893C69.5703 101.111 69.5391 101.348 69.5391 101.602ZM79.5996 96V105H78.0469V96H79.5996ZM82.9336 104.297L84.6328 98.6602H86.291L83.748 105.961C83.6895 106.117 83.6133 106.287 83.5195 106.471C83.4297 106.654 83.3086 106.828 83.1562 106.992C83.0039 107.16 82.8125 107.297 82.582 107.402C82.3555 107.508 82.0801 107.561 81.7559 107.561C81.6152 107.561 81.4902 107.551 81.3809 107.531C81.2715 107.512 81.1562 107.486 81.0352 107.455V106.295C81.0742 106.299 81.1191 106.301 81.1699 106.301C81.2246 106.305 81.2715 106.307 81.3105 106.307C81.5371 106.307 81.7246 106.279 81.873 106.225C82.0215 106.174 82.1406 106.09 82.2305 105.973C82.3242 105.859 82.4023 105.711 82.4648 105.527L82.9336 104.297ZM82.0957 98.6602L83.5312 103.33L83.7832 104.965L82.7168 105.158L80.4258 98.6602H82.0957ZM82.6582 97.7812L83.8066 96H85.5176L83.918 97.7812H82.6582Z" fill="#1170FF"/>
<defs>
<linearGradient id="paint0_linear_32770_960" x1="64.2719" y1="43.9036" x2="34.7313" y2="14.363" gradientUnits="userSpaceOnUse">
<stop stop-color="#FE7838"/>
<stop offset="0.54" stop-color="#FE7636"/>
<stop offset="1" stop-color="#FFAD8A"/>
</linearGradient>
<linearGradient id="paint1_linear_32770_960" x1="54.0567" y1="53.6974" x2="45.0989" y2="44.7396" gradientUnits="userSpaceOnUse">
<stop stop-color="#E0DCFF"/>
<stop offset="0.57" stop-color="white"/>
<stop offset="1" stop-color="white"/>
</linearGradient>
<linearGradient id="paint2_linear_32770_960" x1="59.1219" y1="38.8224" x2="29.661" y2="9.36148" gradientUnits="userSpaceOnUse">
<stop stop-color="#FE7838"/>
<stop offset="0.54" stop-color="#FE7636"/>
<stop offset="1" stop-color="#FFAD8A"/>
</linearGradient>
<clipPath id="clip0_32770_960">
<rect width="80" height="80" fill="white" transform="translate(9.5)"/>
</clipPath>
</defs>
</svg>
