<svg width="121" height="36" viewBox="0 0 121 36" fill="none" xmlns="http://www.w3.org/2000/svg">
<path d="M37.8721 3.79688L28.396 20.2794L34.5658 31.0225L35.2743 32.2587L29.6359 35.5258L28.8093 34.1425L21.6357 21.6334L32.647 2.38409L34.0345 0L39.0825 1.76599L37.8721 3.79688Z" fill="#004C73"/>
<path d="M18.0912 13.2454L13.2793 21.6338L14.2831 23.3704L8.37891 24.5183L8.52651 24.2828L14.3716 14.6876L10.7701 8.33003L9.82542 6.65234L18.2979 7.47647L19.1245 8.9187L19.8625 10.1843L18.0912 13.2454Z" fill="#004C73"/>
<path d="M32.6556 2.38409L21.6444 21.6334L28.8179 34.1425L29.6445 35.5258V35.5552H21.2902L14.4413 23.6348L14.2937 23.3699L13.29 21.6334L18.1019 13.2449L19.8732 10.1839L25.6887 0H34.0431L32.6556 2.38409Z" fill="#3CBDFF"/>
<path d="M14.3747 14.6873L8.52964 24.2826L8.38204 24.518H0.5L6.49271 14.6873L1.94652 6.6521H9.82855L10.7732 8.32979L14.3747 14.6873Z" fill="#3CBDFF"/>
<path d="M74.1547 11.5082C72.658 15.3229 70.7684 18.9726 68.5162 22.3985C66.0014 26.2514 63.1884 29.9024 60.1028 33.3182H55.6747L54.6119 25.6655C53.9035 26.9312 53.1654 28.2262 52.4274 29.4918C51.6894 30.7575 50.9219 32.0525 50.1543 33.3182H44.3387L40.6191 13.6274V13.5685L40.2649 11.7437L40.2354 11.5082H46.7299L48.8849 27.2844C49.4163 26.4014 49.9182 25.5184 50.42 24.6354C50.9219 23.7524 51.3942 22.8694 51.8665 21.9864L49.8591 11.5082H55.468L56.2356 18.1012C56.767 16.9828 57.2983 15.8937 57.8002 14.7753C58.302 13.6568 58.8039 12.5678 59.2762 11.5082H64.4719C63.7043 13.4802 62.9073 15.2756 62.0807 16.9533C61.2034 18.6781 60.2072 20.3402 59.0991 21.9275L59.8076 25.7833C60.6932 24.6059 61.4903 23.5758 62.1693 22.6045C62.8482 21.6332 63.4386 20.7502 63.97 19.8966C64.5014 19.0431 64.9737 18.219 65.4165 17.3654C65.8593 16.5118 66.2726 15.6288 66.7155 14.687C67.1583 13.7451 67.6011 12.6855 68.0734 11.4788H74.1547V11.5082Z" fill="#3CBDFF"/>
<path d="M91.1571 11.8913C89.7589 11.3788 88.2775 11.1293 86.788 11.1554C83.0389 11.1253 79.4226 12.538 76.6919 15.0995C75.4182 16.3075 74.3864 17.7458 73.6513 19.3378C72.9109 20.9639 72.538 22.7324 72.559 24.5181C72.5311 26.1756 72.9166 27.814 73.6808 29.2862C74.4 30.6554 75.5093 31.7818 76.8691 32.5239C78.3967 33.3227 80.1042 33.7179 81.8285 33.6718C83.3257 33.674 84.8127 33.4253 86.2271 32.936C87.6586 32.4471 89.0111 31.7531 90.242 30.8756C91.4205 30.0638 92.4326 29.0348 93.2236 27.844L87.9098 26.1663C87.3953 26.9945 86.6728 27.6742 85.8138 28.1384C84.9548 28.6085 83.9893 28.8516 83.0094 28.8447C82.2502 28.8675 81.4979 28.6952 80.8248 28.3444C80.2524 28.0402 79.8114 27.5376 79.585 26.9316C79.3106 26.2389 79.1801 25.498 79.2012 24.7535V24.4592C80.1163 24.4886 80.9724 24.5181 81.7695 24.5181C86.109 24.5181 89.4154 23.9 91.5999 22.6638C93.7844 21.4276 94.9062 19.6616 94.9062 17.307C94.945 16.1005 94.5931 14.9136 93.9025 13.9221C93.2169 12.9815 92.2588 12.2728 91.1571 11.8913ZM87.8508 19.3378C87.4375 19.7205 86.729 19.9854 85.7548 20.162C84.456 20.3619 83.1425 20.4506 81.8285 20.4269C81.2677 20.4269 80.7068 20.4269 80.1163 20.3974C80.3705 19.7727 80.6975 19.18 81.0905 18.6314C81.6242 17.8556 82.3189 17.2032 83.1275 16.7183C83.9029 16.2535 84.791 16.0092 85.6958 16.0119C86.188 16.0058 86.6775 16.0854 87.1423 16.2474C87.5167 16.3776 87.8519 16.6004 88.1165 16.8949C88.3548 17.1961 88.4802 17.5709 88.4707 17.9545C88.4785 18.2167 88.4268 18.4773 88.3194 18.7169C88.2121 18.9564 88.0519 19.1687 87.8508 19.3378Z" fill="#3CBDFF"/>
<path d="M119.644 15.481C119.145 14.2281 118.307 13.1378 117.223 12.3317C116.072 11.5373 114.695 11.1347 113.297 11.1838C111.839 11.1862 110.406 11.5612 109.134 12.2728C107.818 12.9705 106.677 13.9567 105.798 15.1573L108.426 2.64819H101.695L95.1709 33.3175H101.075L101.843 29.7267C102.215 30.9341 102.985 31.9812 104.027 32.6994C105.06 33.4058 106.359 33.759 107.953 33.759C109.572 33.766 111.17 33.3929 112.618 32.67C114.131 31.9385 115.493 30.9301 116.632 29.6973C117.831 28.4148 118.791 26.9298 119.466 25.3117C120.158 23.6102 120.508 21.7905 120.5 19.9549C120.506 18.4225 120.216 16.9033 119.644 15.481ZM112.883 23.8695C112.573 24.6661 112.112 25.3956 111.525 26.0181C110.971 26.6221 110.31 27.1208 109.577 27.4898C108.872 27.846 108.094 28.0372 107.304 28.049C106.733 28.0607 106.167 27.9398 105.651 27.6958C105.165 27.4636 104.74 27.1208 104.411 26.6951C104.062 26.2258 103.802 25.6972 103.643 25.1351L104.647 20.573C105.056 19.8765 105.563 19.2422 106.153 18.6893C106.708 18.1504 107.346 17.7033 108.042 17.3648C108.634 17.0531 109.291 16.8819 109.961 16.8644C110.62 16.8477 111.266 17.0553 111.791 17.4531C112.308 17.8613 112.705 18.3999 112.942 19.013C113.238 19.721 113.379 20.4835 113.356 21.2499C113.382 22.1463 113.221 23.0383 112.883 23.8695Z" fill="#3CBDFF"/>
</svg>
